<?xml version="1.0" encoding="utf-8"?>
<svg version="1.1" xmlns:xlink="http://www.w3.org/1999/xlink" width="15px" height="9px" xmlns="http://www.w3.org/2000/svg">
  <defs>
    <pattern id="BGPattern" patternUnits="userSpaceOnUse" alignment="0 0" imageRepeat="None" />
    <mask fill="white" id="Clip197">
      <path d="M 14.849699398797595 0.9278350515463915  C 14.9498997995992 1.0309278350515436  15 1.1494845360824733  15 1.2835051546391756  C 15 1.4175257731958752  14.9498997995992 1.5360824742268027  14.849699398797595 1.639175257731959  L 7.845691382765531 8.845360824742267  C 7.745490981963928 8.94845360824742  7.630260521042085 9  7.5 9  C 7.369739478957917 9  7.254509018036074 8.94845360824742  7.154308617234468 8.845360824742267  L 0.1503006012024048 1.639175257731959  C 0.05010020040080175 1.5360824742268027  0 1.4175257731958752  0 1.2835051546391756  C 0 1.1494845360824733  0.05010020040080175 1.0309278350515436  0.1503006012024048 0.9278350515463915  L 0.9018036072144289 0.1546391752577324  C 1.0020040080160324 0.05154639175257614  1.117234468937876 0  1.24749498997996 0  C 1.3777555110220443 0  1.4929859719438878 0.05154639175257614  1.593186372745491 0.1546391752577324  L 7.5 6.231958762886598  L 13.40681362725451 0.1546391752577324  C 13.507014028056114 0.05154639175257614  13.622244488977957 0  13.75250501002004 0  C 13.882765531062127 0  13.99799599198397 0.05154639175257614  14.098196392785573 0.1546391752577324  L 14.849699398797595 0.9278350515463915  Z " fill-rule="evenodd" />
    </mask>
  </defs>
  <g transform="matrix(1 0 0 1 -715 -126 )">
    <path d="M 14.849699398797595 0.9278350515463915  C 14.9498997995992 1.0309278350515436  15 1.1494845360824733  15 1.2835051546391756  C 15 1.4175257731958752  14.9498997995992 1.5360824742268027  14.849699398797595 1.639175257731959  L 7.845691382765531 8.845360824742267  C 7.745490981963928 8.94845360824742  7.630260521042085 9  7.5 9  C 7.369739478957917 9  7.254509018036074 8.94845360824742  7.154308617234468 8.845360824742267  L 0.1503006012024048 1.639175257731959  C 0.05010020040080175 1.5360824742268027  0 1.4175257731958752  0 1.2835051546391756  C 0 1.1494845360824733  0.05010020040080175 1.0309278350515436  0.1503006012024048 0.9278350515463915  L 0.9018036072144289 0.1546391752577324  C 1.0020040080160324 0.05154639175257614  1.117234468937876 0  1.24749498997996 0  C 1.3777555110220443 0  1.4929859719438878 0.05154639175257614  1.593186372745491 0.1546391752577324  L 7.5 6.231958762886598  L 13.40681362725451 0.1546391752577324  C 13.507014028056114 0.05154639175257614  13.622244488977957 0  13.75250501002004 0  C 13.882765531062127 0  13.99799599198397 0.05154639175257614  14.098196392785573 0.1546391752577324  L 14.849699398797595 0.9278350515463915  Z " fill-rule="nonzero" fill="rgba(170, 170, 170, 1)" stroke="none" transform="matrix(1 0 0 1 715 126 )" class="fill" />
    <path d="M 14.849699398797595 0.9278350515463915  C 14.9498997995992 1.0309278350515436  15 1.1494845360824733  15 1.2835051546391756  C 15 1.4175257731958752  14.9498997995992 1.5360824742268027  14.849699398797595 1.639175257731959  L 7.845691382765531 8.845360824742267  C 7.745490981963928 8.94845360824742  7.630260521042085 9  7.5 9  C 7.369739478957917 9  7.254509018036074 8.94845360824742  7.154308617234468 8.845360824742267  L 0.1503006012024048 1.639175257731959  C 0.05010020040080175 1.5360824742268027  0 1.4175257731958752  0 1.2835051546391756  C 0 1.1494845360824733  0.05010020040080175 1.0309278350515436  0.1503006012024048 0.9278350515463915  L 0.9018036072144289 0.1546391752577324  C 1.0020040080160324 0.05154639175257614  1.117234468937876 0  1.24749498997996 0  C 1.3777555110220443 0  1.4929859719438878 0.05154639175257614  1.593186372745491 0.1546391752577324  L 7.5 6.231958762886598  L 13.40681362725451 0.1546391752577324  C 13.507014028056114 0.05154639175257614  13.622244488977957 0  13.75250501002004 0  C 13.882765531062127 0  13.99799599198397 0.05154639175257614  14.098196392785573 0.1546391752577324  L 14.849699398797595 0.9278350515463915  Z " stroke-width="0" stroke-dasharray="0" stroke="rgba(255, 255, 255, 0)" fill="none" transform="matrix(1 0 0 1 715 126 )" class="stroke" mask="url(#Clip197)" />
  </g>
</svg>