<?xml version="1.0" encoding="utf-8"?>
<svg version="1.1" xmlns:xlink="http://www.w3.org/1999/xlink" width="13px" height="13px" viewBox="2856 3099 13 13" xmlns="http://www.w3.org/2000/svg">
  <path d="M 2862.5 3099  C 2866.14 3099  2869 3101.86  2869 3105.5  C 2869 3109.14  2866.14 3112  2862.5 3112  C 2858.86 3112  2856 3109.14  2856 3105.5  C 2856 3101.86  2858.86 3099  2862.5 3099  Z " fill-rule="nonzero" fill="rgba(240, 240, 240, 1)" stroke="none" class="fill" />
  <path d="M 2862.5 3099.5  C 2865.86 3099.5  2868.5 3102.14  2868.5 3105.5  C 2868.5 3108.86  2865.86 3111.5  2862.5 3111.5  C 2859.14 3111.5  2856.5 3108.86  2856.5 3105.5  C 2856.5 3102.14  2859.14 3099.5  2862.5 3099.5  Z " stroke-width="1" stroke-dasharray="0" stroke="rgba(121, 121, 121, 1)" fill="none" class="stroke" stroke-dashoffset="0.5" />
  <path d="M 2862.5 3108.75  C 2860.68 3108.75  2859.25 3107.32  2859.25 3105.5  C 2859.25 3103.68  2860.68 3102.25  2862.5 3102.25  C 2864.32 3102.25  2865.75 3103.68  2865.75 3105.5  C 2865.75 3107.32  2864.32 3108.75  2862.5 3108.75  " fill-rule="nonzero" fill="rgba(121, 121, 121, 1)" stroke="none" class="stroke btn_check" />
</svg>