<?xml version="1.0" encoding="utf-8"?>
<svg version="1.1" xmlns:xlink="http://www.w3.org/1999/xlink" width="26px" height="26px" xmlns="http://www.w3.org/2000/svg">
  <defs>
    <pattern id="BGPattern" patternUnits="userSpaceOnUse" alignment="0 0" imageRepeat="None" />
    <mask fill="white" id="Clip100">
      <path d="M 21.10653409090909 11.984375  C 21.217329545454547 12.095170454545455  21.272727272727273 12.236742424242422  21.272727272727273 12.40909090909091  L 21.272727272727273 13.59090909090909  C 21.272727272727273 13.763257575757574  21.217329545454547 13.904829545454545  21.10653409090909 14.015625  C 20.995738636363637 14.126420454545455  20.85416666666667 14.18181818181818  20.68181818181818 14.18181818181818  L 14.18181818181818 14.18181818181818  L 14.18181818181818 20.68181818181818  C 14.18181818181818 20.854166666666664  14.126420454545455 20.995738636363637  14.015625 21.10653409090909  C 13.904829545454545 21.217329545454547  13.763257575757578 21.27272727272727  13.59090909090909 21.27272727272727  L 12.40909090909091 21.27272727272727  C 12.236742424242426 21.27272727272727  12.095170454545455 21.217329545454547  11.984375 21.10653409090909  C 11.873579545454545 20.995738636363637  11.818181818181818 20.854166666666664  11.818181818181818 20.68181818181818  L 11.818181818181818 14.18181818181818  L 5.318181818181818 14.18181818181818  C 5.145833333333334 14.18181818181818  5.004261363636363 14.126420454545455  4.893465909090909 14.015625  C 4.782670454545455 13.904829545454545  4.7272727272727275 13.763257575757574  4.7272727272727275 13.59090909090909  L 4.7272727272727275 12.40909090909091  C 4.7272727272727275 12.236742424242422  4.782670454545455 12.095170454545455  4.893465909090909 11.984375  C 5.004261363636363 11.873579545454545  5.145833333333334 11.81818181818182  5.318181818181818 11.81818181818182  L 11.818181818181818 11.81818181818182  L 11.818181818181818 5.318181818181819  C 11.818181818181818 5.1458333333333295  11.873579545454545 5.004261363636364  11.984375 4.89346590909091  C 12.095170454545455 4.782670454545455  12.236742424242426 4.727272727272726  12.40909090909091 4.727272727272726  L 13.59090909090909 4.727272727272726  C 13.763257575757578 4.727272727272726  13.904829545454545 4.782670454545455  14.015625 4.89346590909091  C 14.126420454545455 5.004261363636364  14.18181818181818 5.1458333333333295  14.18181818181818 5.318181818181819  L 14.18181818181818 11.81818181818182  L 20.68181818181818 11.81818181818182  C 20.85416666666667 11.81818181818182  20.995738636363637 11.873579545454545  21.10653409090909 11.984375  Z M 22.76846590909091 22.76846590909091  C 23.347064393939398 22.18986742424242  23.636363636363637 21.49431818181818  23.636363636363637 20.68181818181818  L 23.636363636363637 5.318181818181819  C 23.636363636363637 4.505681818181819  23.347064393939398 3.8101325757575744  22.76846590909091 3.2315340909090904  C 22.189867424242426 2.6529356060606037  21.49431818181818 2.363636363636364  20.68181818181818 2.363636363636364  L 5.318181818181818 2.363636363636364  C 4.505681818181818 2.363636363636364  3.8101325757575766 2.6529356060606037  3.231534090909091 3.2315340909090904  C 2.6529356060606064 3.8101325757575744  2.3636363636363638 4.505681818181819  2.3636363636363638 5.318181818181819  L 2.3636363636363638 20.68181818181818  C 2.3636363636363638 21.49431818181818  2.6529356060606064 22.18986742424242  3.231534090909091 22.76846590909091  C 3.8101325757575766 23.347064393939394  4.505681818181818 23.636363636363637  5.318181818181818 23.636363636363637  L 20.68181818181818 23.636363636363637  C 21.49431818181818 23.636363636363637  22.189867424242426 23.347064393939394  22.76846590909091 22.76846590909091  Z M 24.43963068181818 1.5603693181818192  C 25.479876893939398 2.6006155303030294  26 3.8532196969696937  26 5.318181818181819  L 26 20.68181818181818  C 26 22.146780303030305  25.479876893939398 23.399384469696972  24.43963068181818 24.43963068181818  C 23.399384469696972 25.479876893939394  22.146780303030305 26  20.68181818181818 26  L 5.318181818181818 26  C 3.8532196969696977 26  2.6006155303030307 25.479876893939394  1.5603693181818181 24.43963068181818  C 0.5201231060606061 23.399384469696972  0 22.146780303030305  0 20.68181818181818  L 0 5.318181818181819  C 0 3.8532196969696937  0.5201231060606061 2.6006155303030294  1.5603693181818181 1.5603693181818192  C 2.6006155303030307 0.5201231060606035  3.8532196969696977 0  5.318181818181818 0  L 20.68181818181818 0  C 22.146780303030305 0  23.399384469696972 0.5201231060606035  24.43963068181818 1.5603693181818192  Z " fill-rule="evenodd" />
    </mask>
  </defs>
  <g transform="matrix(1 0 0 1 -1105 -1333 )">
    <path d="M 21.10653409090909 11.984375  C 21.217329545454547 12.095170454545455  21.272727272727273 12.236742424242422  21.272727272727273 12.40909090909091  L 21.272727272727273 13.59090909090909  C 21.272727272727273 13.763257575757574  21.217329545454547 13.904829545454545  21.10653409090909 14.015625  C 20.995738636363637 14.126420454545455  20.85416666666667 14.18181818181818  20.68181818181818 14.18181818181818  L 14.18181818181818 14.18181818181818  L 14.18181818181818 20.68181818181818  C 14.18181818181818 20.854166666666664  14.126420454545455 20.995738636363637  14.015625 21.10653409090909  C 13.904829545454545 21.217329545454547  13.763257575757578 21.27272727272727  13.59090909090909 21.27272727272727  L 12.40909090909091 21.27272727272727  C 12.236742424242426 21.27272727272727  12.095170454545455 21.217329545454547  11.984375 21.10653409090909  C 11.873579545454545 20.995738636363637  11.818181818181818 20.854166666666664  11.818181818181818 20.68181818181818  L 11.818181818181818 14.18181818181818  L 5.318181818181818 14.18181818181818  C 5.145833333333334 14.18181818181818  5.004261363636363 14.126420454545455  4.893465909090909 14.015625  C 4.782670454545455 13.904829545454545  4.7272727272727275 13.763257575757574  4.7272727272727275 13.59090909090909  L 4.7272727272727275 12.40909090909091  C 4.7272727272727275 12.236742424242422  4.782670454545455 12.095170454545455  4.893465909090909 11.984375  C 5.004261363636363 11.873579545454545  5.145833333333334 11.81818181818182  5.318181818181818 11.81818181818182  L 11.818181818181818 11.81818181818182  L 11.818181818181818 5.318181818181819  C 11.818181818181818 5.1458333333333295  11.873579545454545 5.004261363636364  11.984375 4.89346590909091  C 12.095170454545455 4.782670454545455  12.236742424242426 4.727272727272726  12.40909090909091 4.727272727272726  L 13.59090909090909 4.727272727272726  C 13.763257575757578 4.727272727272726  13.904829545454545 4.782670454545455  14.015625 4.89346590909091  C 14.126420454545455 5.004261363636364  14.18181818181818 5.1458333333333295  14.18181818181818 5.318181818181819  L 14.18181818181818 11.81818181818182  L 20.68181818181818 11.81818181818182  C 20.85416666666667 11.81818181818182  20.995738636363637 11.873579545454545  21.10653409090909 11.984375  Z M 22.76846590909091 22.76846590909091  C 23.347064393939398 22.18986742424242  23.636363636363637 21.49431818181818  23.636363636363637 20.68181818181818  L 23.636363636363637 5.318181818181819  C 23.636363636363637 4.505681818181819  23.347064393939398 3.8101325757575744  22.76846590909091 3.2315340909090904  C 22.189867424242426 2.6529356060606037  21.49431818181818 2.363636363636364  20.68181818181818 2.363636363636364  L 5.318181818181818 2.363636363636364  C 4.505681818181818 2.363636363636364  3.8101325757575766 2.6529356060606037  3.231534090909091 3.2315340909090904  C 2.6529356060606064 3.8101325757575744  2.3636363636363638 4.505681818181819  2.3636363636363638 5.318181818181819  L 2.3636363636363638 20.68181818181818  C 2.3636363636363638 21.49431818181818  2.6529356060606064 22.18986742424242  3.231534090909091 22.76846590909091  C 3.8101325757575766 23.347064393939394  4.505681818181818 23.636363636363637  5.318181818181818 23.636363636363637  L 20.68181818181818 23.636363636363637  C 21.49431818181818 23.636363636363637  22.189867424242426 23.347064393939394  22.76846590909091 22.76846590909091  Z M 24.43963068181818 1.5603693181818192  C 25.479876893939398 2.6006155303030294  26 3.8532196969696937  26 5.318181818181819  L 26 20.68181818181818  C 26 22.146780303030305  25.479876893939398 23.399384469696972  24.43963068181818 24.43963068181818  C 23.399384469696972 25.479876893939394  22.146780303030305 26  20.68181818181818 26  L 5.318181818181818 26  C 3.8532196969696977 26  2.6006155303030307 25.479876893939394  1.5603693181818181 24.43963068181818  C 0.5201231060606061 23.399384469696972  0 22.146780303030305  0 20.68181818181818  L 0 5.318181818181819  C 0 3.8532196969696937  0.5201231060606061 2.6006155303030294  1.5603693181818181 1.5603693181818192  C 2.6006155303030307 0.5201231060606035  3.8532196969696977 0  5.318181818181818 0  L 20.68181818181818 0  C 22.146780303030305 0  23.399384469696972 0.5201231060606035  24.43963068181818 1.5603693181818192  Z " fill-rule="nonzero" fill="rgba(3, 161, 19, 1)" stroke="none" transform="matrix(1 0 0 1 1105 1333 )" class="fill" />
    <path d="M 21.10653409090909 11.984375  C 21.217329545454547 12.095170454545455  21.272727272727273 12.236742424242422  21.272727272727273 12.40909090909091  L 21.272727272727273 13.59090909090909  C 21.272727272727273 13.763257575757574  21.217329545454547 13.904829545454545  21.10653409090909 14.015625  C 20.995738636363637 14.126420454545455  20.85416666666667 14.18181818181818  20.68181818181818 14.18181818181818  L 14.18181818181818 14.18181818181818  L 14.18181818181818 20.68181818181818  C 14.18181818181818 20.854166666666664  14.126420454545455 20.995738636363637  14.015625 21.10653409090909  C 13.904829545454545 21.217329545454547  13.763257575757578 21.27272727272727  13.59090909090909 21.27272727272727  L 12.40909090909091 21.27272727272727  C 12.236742424242426 21.27272727272727  12.095170454545455 21.217329545454547  11.984375 21.10653409090909  C 11.873579545454545 20.995738636363637  11.818181818181818 20.854166666666664  11.818181818181818 20.68181818181818  L 11.818181818181818 14.18181818181818  L 5.318181818181818 14.18181818181818  C 5.145833333333334 14.18181818181818  5.004261363636363 14.126420454545455  4.893465909090909 14.015625  C 4.782670454545455 13.904829545454545  4.7272727272727275 13.763257575757574  4.7272727272727275 13.59090909090909  L 4.7272727272727275 12.40909090909091  C 4.7272727272727275 12.236742424242422  4.782670454545455 12.095170454545455  4.893465909090909 11.984375  C 5.004261363636363 11.873579545454545  5.145833333333334 11.81818181818182  5.318181818181818 11.81818181818182  L 11.818181818181818 11.81818181818182  L 11.818181818181818 5.318181818181819  C 11.818181818181818 5.1458333333333295  11.873579545454545 5.004261363636364  11.984375 4.89346590909091  C 12.095170454545455 4.782670454545455  12.236742424242426 4.727272727272726  12.40909090909091 4.727272727272726  L 13.59090909090909 4.727272727272726  C 13.763257575757578 4.727272727272726  13.904829545454545 4.782670454545455  14.015625 4.89346590909091  C 14.126420454545455 5.004261363636364  14.18181818181818 5.1458333333333295  14.18181818181818 5.318181818181819  L 14.18181818181818 11.81818181818182  L 20.68181818181818 11.81818181818182  C 20.85416666666667 11.81818181818182  20.995738636363637 11.873579545454545  21.10653409090909 11.984375  Z " stroke-width="0" stroke-dasharray="0" stroke="rgba(255, 255, 255, 0)" fill="none" transform="matrix(1 0 0 1 1105 1333 )" class="stroke" mask="url(#Clip100)" />
    <path d="M 22.76846590909091 22.76846590909091  C 23.347064393939398 22.18986742424242  23.636363636363637 21.49431818181818  23.636363636363637 20.68181818181818  L 23.636363636363637 5.318181818181819  C 23.636363636363637 4.505681818181819  23.347064393939398 3.8101325757575744  22.76846590909091 3.2315340909090904  C 22.189867424242426 2.6529356060606037  21.49431818181818 2.363636363636364  20.68181818181818 2.363636363636364  L 5.318181818181818 2.363636363636364  C 4.505681818181818 2.363636363636364  3.8101325757575766 2.6529356060606037  3.231534090909091 3.2315340909090904  C 2.6529356060606064 3.8101325757575744  2.3636363636363638 4.505681818181819  2.3636363636363638 5.318181818181819  L 2.3636363636363638 20.68181818181818  C 2.3636363636363638 21.49431818181818  2.6529356060606064 22.18986742424242  3.231534090909091 22.76846590909091  C 3.8101325757575766 23.347064393939394  4.505681818181818 23.636363636363637  5.318181818181818 23.636363636363637  L 20.68181818181818 23.636363636363637  C 21.49431818181818 23.636363636363637  22.189867424242426 23.347064393939394  22.76846590909091 22.76846590909091  Z " stroke-width="0" stroke-dasharray="0" stroke="rgba(255, 255, 255, 0)" fill="none" transform="matrix(1 0 0 1 1105 1333 )" class="stroke" mask="url(#Clip100)" />
    <path d="M 24.43963068181818 1.5603693181818192  C 25.479876893939398 2.6006155303030294  26 3.8532196969696937  26 5.318181818181819  L 26 20.68181818181818  C 26 22.146780303030305  25.479876893939398 23.399384469696972  24.43963068181818 24.43963068181818  C 23.399384469696972 25.479876893939394  22.146780303030305 26  20.68181818181818 26  L 5.318181818181818 26  C 3.8532196969696977 26  2.6006155303030307 25.479876893939394  1.5603693181818181 24.43963068181818  C 0.5201231060606061 23.399384469696972  0 22.146780303030305  0 20.68181818181818  L 0 5.318181818181819  C 0 3.8532196969696937  0.5201231060606061 2.6006155303030294  1.5603693181818181 1.5603693181818192  C 2.6006155303030307 0.5201231060606035  3.8532196969696977 0  5.318181818181818 0  L 20.68181818181818 0  C 22.146780303030305 0  23.399384469696972 0.5201231060606035  24.43963068181818 1.5603693181818192  Z " stroke-width="0" stroke-dasharray="0" stroke="rgba(255, 255, 255, 0)" fill="none" transform="matrix(1 0 0 1 1105 1333 )" class="stroke" mask="url(#Clip100)" />
  </g>
</svg>