<?xml version="1.0" encoding="utf-8"?>
<svg version="1.1" xmlns:xlink="http://www.w3.org/1999/xlink" width="22px" height="13px" xmlns="http://www.w3.org/2000/svg">
  <defs>
    <pattern id="BGPattern" patternUnits="userSpaceOnUse" alignment="0 0" imageRepeat="None" />
    <mask fill="white" id="Clip1">
      <path d="M 21.779559118236474 1.34020618556701  C 21.926519706078825 1.4891179839633408  22 1.660366552119128  22 1.8539518900343648  C 22 2.0475372279495976  21.926519706078825 2.2187857961053816  21.779559118236474 2.3676975945017187  L 11.507014028056112 12.776632302405497  C 11.360053440213761 12.92554410080183  11.191048764195058 13  11 13  C 10.808951235804944 13  10.63994655978624 12.92554410080183  10.492985971943888 12.776632302405497  L 0.22044088176352705 2.3676975945017187  C 0.0734802939211759 2.2187857961053816  0 2.0475372279495976  0 1.8539518900343648  C 0 1.660366552119128  0.0734802939211759 1.4891179839633408  0.22044088176352705 1.34020618556701  L 1.3226452905811623 0.22336769759450237  C 1.4696058784235142 0.07445589919816553  1.638610554442218 0  1.8296593186372745 0  C 2.0207080828323316 0  2.1897127588510354 0.07445589919816553  2.3366733466933867 0.22336769759450237  L 11 9.00171821305842  L 19.663326653306612 0.22336769759450237  C 19.810287241148966 0.07445589919816553  19.979291917167668 0  20.170340681362724 0  C 20.361389445557784 0  20.53039412157649 0.07445589919816553  20.67735470941884 0.22336769759450237  L 21.779559118236474 1.34020618556701  Z " fill-rule="evenodd" />
    </mask>
  </defs>
  <g transform="matrix(1 0 0 1 -1071 -129 )">
    <path d="M 21.779559118236474 1.34020618556701  C 21.926519706078825 1.4891179839633408  22 1.660366552119128  22 1.8539518900343648  C 22 2.0475372279495976  21.926519706078825 2.2187857961053816  21.779559118236474 2.3676975945017187  L 11.507014028056112 12.776632302405497  C 11.360053440213761 12.92554410080183  11.191048764195058 13  11 13  C 10.808951235804944 13  10.63994655978624 12.92554410080183  10.492985971943888 12.776632302405497  L 0.22044088176352705 2.3676975945017187  C 0.0734802939211759 2.2187857961053816  0 2.0475372279495976  0 1.8539518900343648  C 0 1.660366552119128  0.0734802939211759 1.4891179839633408  0.22044088176352705 1.34020618556701  L 1.3226452905811623 0.22336769759450237  C 1.4696058784235142 0.07445589919816553  1.638610554442218 0  1.8296593186372745 0  C 2.0207080828323316 0  2.1897127588510354 0.07445589919816553  2.3366733466933867 0.22336769759450237  L 11 9.00171821305842  L 19.663326653306612 0.22336769759450237  C 19.810287241148966 0.07445589919816553  19.979291917167668 0  20.170340681362724 0  C 20.361389445557784 0  20.53039412157649 0.07445589919816553  20.67735470941884 0.22336769759450237  L 21.779559118236474 1.34020618556701  Z " fill-rule="nonzero" fill="rgba(127, 127, 127, 1)" stroke="none" transform="matrix(1 0 0 1 1071 129 )" class="fill" />
    <path d="M 21.779559118236474 1.34020618556701  C 21.926519706078825 1.4891179839633408  22 1.660366552119128  22 1.8539518900343648  C 22 2.0475372279495976  21.926519706078825 2.2187857961053816  21.779559118236474 2.3676975945017187  L 11.507014028056112 12.776632302405497  C 11.360053440213761 12.92554410080183  11.191048764195058 13  11 13  C 10.808951235804944 13  10.63994655978624 12.92554410080183  10.492985971943888 12.776632302405497  L 0.22044088176352705 2.3676975945017187  C 0.0734802939211759 2.2187857961053816  0 2.0475372279495976  0 1.8539518900343648  C 0 1.660366552119128  0.0734802939211759 1.4891179839633408  0.22044088176352705 1.34020618556701  L 1.3226452905811623 0.22336769759450237  C 1.4696058784235142 0.07445589919816553  1.638610554442218 0  1.8296593186372745 0  C 2.0207080828323316 0  2.1897127588510354 0.07445589919816553  2.3366733466933867 0.22336769759450237  L 11 9.00171821305842  L 19.663326653306612 0.22336769759450237  C 19.810287241148966 0.07445589919816553  19.979291917167668 0  20.170340681362724 0  C 20.361389445557784 0  20.53039412157649 0.07445589919816553  20.67735470941884 0.22336769759450237  L 21.779559118236474 1.34020618556701  Z " stroke-width="0" stroke-dasharray="0" stroke="rgba(255, 255, 255, 0)" fill="none" transform="matrix(1 0 0 1 1071 129 )" class="stroke" mask="url(#Clip1)" />
  </g>
</svg>