<?xml version="1.0" encoding="utf-8"?>
<svg version="1.1" xmlns:xlink="http://www.w3.org/1999/xlink" width="29px" height="22px" xmlns="http://www.w3.org/2000/svg">
  <g transform="matrix(1 0 0 1 -1476 -2051 )">
    <path d="M 1476 2051  L 1505 2051  L 1505 2073  L 1476 2073  L 1476 2051  " fill-rule="nonzero" fill="rgba(204, 204, 204, 1)" stroke="none" class="fill" />
    <path d="M 1478 2053  L 1503 2053  L 1503 2071  L 1478 2071  L 1478 2053  " fill-rule="nonzero" fill="rgba(255, 255, 255, 1)" stroke="none" class="fill" />
    <path d="M 1492.73 2057.6000000000004  C 1491.806 2057.6000000000004  1491.08 2056.8740000000003  1491.08 2055.9500000000003  C 1491.08 2055.0260000000003  1491.806 2054.3  1492.73 2054.3  C 1493.654 2054.3  1494.3799999999999 2055.0260000000003  1494.3799999999999 2055.9500000000003  C 1494.3799999999999 2056.8740000000003  1493.654 2057.6000000000004  1492.73 2057.6000000000004  " fill-rule="nonzero" fill="rgba(204, 204, 204, 1)" stroke="none" class="fill" />
    <path d="M 1479 2071  L 1479 2061.65  L 1485 2057.4  L 1493.4 2063.2620689655173  L 1498.2 2059.95  L 1503 2063.2620689655173  L 1503 2071  L 1479 2071  " fill-rule="nonzero" fill="rgba(22, 155, 213, 1)" stroke="none" class="fill" />
  </g>
</svg>