<?xml version="1.0" encoding="utf-8"?>
<svg version="1.1" xmlns:xlink="http://www.w3.org/1999/xlink" width="44px" height="44px" xmlns="http://www.w3.org/2000/svg">
  <defs>
    <pattern id="BGPattern" patternUnits="userSpaceOnUse" alignment="0 0" imageRepeat="None" />
    <mask fill="white" id="Clip107">
      <path d="M 35.71875 20.28125  C 35.90625 20.46875  36 20.708333333333332  36 21  L 36 23  C 36 23.291666666666664  35.90625 23.53125  35.71875 23.71875  C 35.53125 23.90625  35.29166666666667 24  35 24  L 24 24  L 24 35  C 24 35.291666666666664  23.90625 35.53125  23.71875 35.71875  C 23.53125 35.90625  23.291666666666668 36  23 36  L 21 36  C 20.708333333333336 36  20.46875 35.90625  20.28125 35.71875  C 20.09375 35.53125  20 35.291666666666664  20 35  L 20 24  L 9 24  C 8.708333333333334 24  8.46875 23.90625  8.28125 23.71875  C 8.09375 23.53125  8 23.291666666666664  8 23  L 8 21  C 8 20.708333333333332  8.09375 20.46875  8.28125 20.28125  C 8.46875 20.09375  8.708333333333334 20  9 20  L 20 20  L 20 9.000000000000002  C 20 8.708333333333327  20.09375 8.468750000000002  20.28125 8.28125  C 20.46875 8.09375  20.708333333333336 7.999999999999998  21 7.999999999999998  L 23 7.999999999999998  C 23.291666666666668 7.999999999999998  23.53125 8.09375  23.71875 8.28125  C 23.90625 8.468750000000002  24 8.708333333333327  24 9.000000000000002  L 24 20  L 35 20  C 35.29166666666667 20  35.53125 20.09375  35.71875 20.28125  Z M 38.53125 38.53125  C 39.51041666666667 37.55208333333333  40 36.375  40 35  L 40 9.000000000000002  C 40 7.625000000000002  39.51041666666667 6.447916666666664  38.53125 5.468749999999999  C 37.552083333333336 4.489583333333329  36.375 4.000000000000002  35 4  L 9 4  C 7.625000000000001 4.000000000000002  6.447916666666668 4.489583333333329  5.46875 5.468749999999999  C 4.489583333333334 6.447916666666664  4 7.625000000000002  4 9.000000000000002  L 4 35  C 4 36.375  4.489583333333334 37.55208333333333  5.46875 38.53125  C 6.447916666666668 39.510416666666664  7.625000000000001 40  9 40  L 35 40  C 36.375 40  37.552083333333336 39.510416666666664  38.53125 38.53125  Z M 41.359375 2.6406250000000018  C 43.11979166666667 4.401041666666664  44 6.520833333333329  44 9.000000000000002  L 44 35  C 44 37.479166666666664  43.11979166666667 39.598958333333336  41.359375 41.359375  C 39.598958333333336 43.119791666666664  37.47916666666667 44  35 44  L 9 44  C 6.520833333333334 44  4.401041666666667 43.119791666666664  2.640625 41.359375  C 0.8802083333333333 39.598958333333336  0 37.479166666666664  0 35  L 0 9.000000000000002  C 0 6.520833333333329  0.8802083333333333 4.401041666666664  2.640625 2.6406250000000018  C 4.401041666666667 0.880208333333329  6.520833333333334 0  9 0  L 35 0  C 37.47916666666667 0  39.598958333333336 0.880208333333329  41.359375 2.6406250000000018  Z " fill-rule="evenodd" />
    </mask>
  </defs>
  <g transform="matrix(1 0 0 1 -1540 -2410 )">
    <path d="M 35.71875 20.28125  C 35.90625 20.46875  36 20.708333333333332  36 21  L 36 23  C 36 23.291666666666664  35.90625 23.53125  35.71875 23.71875  C 35.53125 23.90625  35.29166666666667 24  35 24  L 24 24  L 24 35  C 24 35.291666666666664  23.90625 35.53125  23.71875 35.71875  C 23.53125 35.90625  23.291666666666668 36  23 36  L 21 36  C 20.708333333333336 36  20.46875 35.90625  20.28125 35.71875  C 20.09375 35.53125  20 35.291666666666664  20 35  L 20 24  L 9 24  C 8.708333333333334 24  8.46875 23.90625  8.28125 23.71875  C 8.09375 23.53125  8 23.291666666666664  8 23  L 8 21  C 8 20.708333333333332  8.09375 20.46875  8.28125 20.28125  C 8.46875 20.09375  8.708333333333334 20  9 20  L 20 20  L 20 9.000000000000002  C 20 8.708333333333327  20.09375 8.468750000000002  20.28125 8.28125  C 20.46875 8.09375  20.708333333333336 7.999999999999998  21 7.999999999999998  L 23 7.999999999999998  C 23.291666666666668 7.999999999999998  23.53125 8.09375  23.71875 8.28125  C 23.90625 8.468750000000002  24 8.708333333333327  24 9.000000000000002  L 24 20  L 35 20  C 35.29166666666667 20  35.53125 20.09375  35.71875 20.28125  Z M 38.53125 38.53125  C 39.51041666666667 37.55208333333333  40 36.375  40 35  L 40 9.000000000000002  C 40 7.625000000000002  39.51041666666667 6.447916666666664  38.53125 5.468749999999999  C 37.552083333333336 4.489583333333329  36.375 4.000000000000002  35 4  L 9 4  C 7.625000000000001 4.000000000000002  6.447916666666668 4.489583333333329  5.46875 5.468749999999999  C 4.489583333333334 6.447916666666664  4 7.625000000000002  4 9.000000000000002  L 4 35  C 4 36.375  4.489583333333334 37.55208333333333  5.46875 38.53125  C 6.447916666666668 39.510416666666664  7.625000000000001 40  9 40  L 35 40  C 36.375 40  37.552083333333336 39.510416666666664  38.53125 38.53125  Z M 41.359375 2.6406250000000018  C 43.11979166666667 4.401041666666664  44 6.520833333333329  44 9.000000000000002  L 44 35  C 44 37.479166666666664  43.11979166666667 39.598958333333336  41.359375 41.359375  C 39.598958333333336 43.119791666666664  37.47916666666667 44  35 44  L 9 44  C 6.520833333333334 44  4.401041666666667 43.119791666666664  2.640625 41.359375  C 0.8802083333333333 39.598958333333336  0 37.479166666666664  0 35  L 0 9.000000000000002  C 0 6.520833333333329  0.8802083333333333 4.401041666666664  2.640625 2.6406250000000018  C 4.401041666666667 0.880208333333329  6.520833333333334 0  9 0  L 35 0  C 37.47916666666667 0  39.598958333333336 0.880208333333329  41.359375 2.6406250000000018  Z " fill-rule="nonzero" fill="rgba(215, 215, 215, 1)" stroke="none" transform="matrix(1 0 0 1 1540 2410 )" class="fill" />
    <path d="M 35.71875 20.28125  C 35.90625 20.46875  36 20.708333333333332  36 21  L 36 23  C 36 23.291666666666664  35.90625 23.53125  35.71875 23.71875  C 35.53125 23.90625  35.29166666666667 24  35 24  L 24 24  L 24 35  C 24 35.291666666666664  23.90625 35.53125  23.71875 35.71875  C 23.53125 35.90625  23.291666666666668 36  23 36  L 21 36  C 20.708333333333336 36  20.46875 35.90625  20.28125 35.71875  C 20.09375 35.53125  20 35.291666666666664  20 35  L 20 24  L 9 24  C 8.708333333333334 24  8.46875 23.90625  8.28125 23.71875  C 8.09375 23.53125  8 23.291666666666664  8 23  L 8 21  C 8 20.708333333333332  8.09375 20.46875  8.28125 20.28125  C 8.46875 20.09375  8.708333333333334 20  9 20  L 20 20  L 20 9.000000000000002  C 20 8.708333333333327  20.09375 8.468750000000002  20.28125 8.28125  C 20.46875 8.09375  20.708333333333336 7.999999999999998  21 7.999999999999998  L 23 7.999999999999998  C 23.291666666666668 7.999999999999998  23.53125 8.09375  23.71875 8.28125  C 23.90625 8.468750000000002  24 8.708333333333327  24 9.000000000000002  L 24 20  L 35 20  C 35.29166666666667 20  35.53125 20.09375  35.71875 20.28125  Z " stroke-width="0" stroke-dasharray="0" stroke="rgba(255, 255, 255, 0)" fill="none" transform="matrix(1 0 0 1 1540 2410 )" class="stroke" mask="url(#Clip107)" />
    <path d="M 38.53125 38.53125  C 39.51041666666667 37.55208333333333  40 36.375  40 35  L 40 9.000000000000002  C 40 7.625000000000002  39.51041666666667 6.447916666666664  38.53125 5.468749999999999  C 37.552083333333336 4.489583333333329  36.375 4.000000000000002  35 4  L 9 4  C 7.625000000000001 4.000000000000002  6.447916666666668 4.489583333333329  5.46875 5.468749999999999  C 4.489583333333334 6.447916666666664  4 7.625000000000002  4 9.000000000000002  L 4 35  C 4 36.375  4.489583333333334 37.55208333333333  5.46875 38.53125  C 6.447916666666668 39.510416666666664  7.625000000000001 40  9 40  L 35 40  C 36.375 40  37.552083333333336 39.510416666666664  38.53125 38.53125  Z " stroke-width="0" stroke-dasharray="0" stroke="rgba(255, 255, 255, 0)" fill="none" transform="matrix(1 0 0 1 1540 2410 )" class="stroke" mask="url(#Clip107)" />
    <path d="M 41.359375 2.6406250000000018  C 43.11979166666667 4.401041666666664  44 6.520833333333329  44 9.000000000000002  L 44 35  C 44 37.479166666666664  43.11979166666667 39.598958333333336  41.359375 41.359375  C 39.598958333333336 43.119791666666664  37.47916666666667 44  35 44  L 9 44  C 6.520833333333334 44  4.401041666666667 43.119791666666664  2.640625 41.359375  C 0.8802083333333333 39.598958333333336  0 37.479166666666664  0 35  L 0 9.000000000000002  C 0 6.520833333333329  0.8802083333333333 4.401041666666664  2.640625 2.6406250000000018  C 4.401041666666667 0.880208333333329  6.520833333333334 0  9 0  L 35 0  C 37.47916666666667 0  39.598958333333336 0.880208333333329  41.359375 2.6406250000000018  Z " stroke-width="0" stroke-dasharray="0" stroke="rgba(255, 255, 255, 0)" fill="none" transform="matrix(1 0 0 1 1540 2410 )" class="stroke" mask="url(#Clip107)" />
  </g>
</svg>