<?xml version="1.0" encoding="utf-8"?>
<svg version="1.1" xmlns:xlink="http://www.w3.org/1999/xlink" width="13px" height="13px" viewBox="2484 1339 13 13" xmlns="http://www.w3.org/2000/svg">
  <path d="M 2490.5 1339  C 2494.14 1339  2497 1341.86  2497 1345.5  C 2497 1349.14  2494.14 1352  2490.5 1352  C 2486.86 1352  2484 1349.14  2484 1345.5  C 2484 1341.86  2486.86 1339  2490.5 1339  Z " fill-rule="nonzero" fill="rgba(255, 255, 255, 1)" stroke="none" class="fill" />
  <path d="M 2490.5 1339.5  C 2493.86 1339.5  2496.5 1342.14  2496.5 1345.5  C 2496.5 1348.86  2493.86 1351.5  2490.5 1351.5  C 2487.14 1351.5  2484.5 1348.86  2484.5 1345.5  C 2484.5 1342.14  2487.14 1339.5  2490.5 1339.5  Z " stroke-width="1" stroke-dasharray="0" stroke="rgba(121, 121, 121, 1)" fill="none" class="stroke" stroke-dashoffset="0.5" />
  <path d="M 2490.5 1348.75  C 2488.68 1348.75  2487.25 1347.32  2487.25 1345.5  C 2487.25 1343.68  2488.68 1342.25  2490.5 1342.25  C 2492.32 1342.25  2493.75 1343.68  2493.75 1345.5  C 2493.75 1347.32  2492.32 1348.75  2490.5 1348.75  " fill-rule="nonzero" fill="rgba(121, 121, 121, 1)" stroke="none" class="stroke btn_check" />
</svg>