<?xml version="1.0" encoding="utf-8"?>
<svg version="1.1" xmlns:xlink="http://www.w3.org/1999/xlink" width="13px" height="13px" viewBox="2484 1450 13 13" xmlns="http://www.w3.org/2000/svg">
  <path d="M 2490.5 1450  C 2494.14 1450  2497 1452.86  2497 1456.5  C 2497 1460.14  2494.14 1463  2490.5 1463  C 2486.86 1463  2484 1460.14  2484 1456.5  C 2484 1452.86  2486.86 1450  2490.5 1450  Z " fill-rule="nonzero" fill="rgba(255, 255, 255, 1)" stroke="none" class="fill" />
  <path d="M 2490.5 1450.5  C 2493.86 1450.5  2496.5 1453.14  2496.5 1456.5  C 2496.5 1459.86  2493.86 1462.5  2490.5 1462.5  C 2487.14 1462.5  2484.5 1459.86  2484.5 1456.5  C 2484.5 1453.14  2487.14 1450.5  2490.5 1450.5  Z " stroke-width="1" stroke-dasharray="0" stroke="rgba(121, 121, 121, 1)" fill="none" class="stroke" stroke-dashoffset="0.5" />
  <path d="M 2490.5 1459.75  C 2488.68 1459.75  2487.25 1458.32  2487.25 1456.5  C 2487.25 1454.68  2488.68 1453.25  2490.5 1453.25  C 2492.32 1453.25  2493.75 1454.68  2493.75 1456.5  C 2493.75 1458.32  2492.32 1459.75  2490.5 1459.75  " fill-rule="nonzero" fill="rgba(121, 121, 121, 1)" stroke="none" class="stroke btn_check" />
</svg>