<?xml version="1.0" encoding="utf-8"?>
<svg version="1.1" xmlns:xlink="http://www.w3.org/1999/xlink" width="13px" height="13px" viewBox="2855 2376 13 13" xmlns="http://www.w3.org/2000/svg">
  <path d="M 2861.5 2376  C 2865.14 2376  2868 2378.86  2868 2382.5  C 2868 2386.14  2865.14 2389  2861.5 2389  C 2857.86 2389  2855 2386.14  2855 2382.5  C 2855 2378.86  2857.86 2376  2861.5 2376  Z " fill-rule="nonzero" fill="rgba(255, 255, 255, 1)" stroke="none" class="fill" />
  <path d="M 2861.5 2376.5  C 2864.86 2376.5  2867.5 2379.14  2867.5 2382.5  C 2867.5 2385.86  2864.86 2388.5  2861.5 2388.5  C 2858.14 2388.5  2855.5 2385.86  2855.5 2382.5  C 2855.5 2379.14  2858.14 2376.5  2861.5 2376.5  Z " stroke-width="1" stroke-dasharray="0" stroke="rgba(121, 121, 121, 1)" fill="none" class="stroke" stroke-dashoffset="0.5" />
  <path d="M 2861.5 2385.75  C 2859.68 2385.75  2858.25 2384.32  2858.25 2382.5  C 2858.25 2380.68  2859.68 2379.25  2861.5 2379.25  C 2863.32 2379.25  2864.75 2380.68  2864.75 2382.5  C 2864.75 2384.32  2863.32 2385.75  2861.5 2385.75  " fill-rule="nonzero" fill="rgba(121, 121, 121, 1)" stroke="none" class="stroke btn_check" />
</svg>