<?xml version="1.0" encoding="utf-8"?>
<svg version="1.1" xmlns:xlink="http://www.w3.org/1999/xlink" width="13px" height="13px" viewBox="2539 3427 13 13" xmlns="http://www.w3.org/2000/svg">
  <path d="M 2545.5 3427  C 2549.14 3427  2552 3429.86  2552 3433.5  C 2552 3437.14  2549.14 3440  2545.5 3440  C 2541.86 3440  2539 3437.14  2539 3433.5  C 2539 3429.86  2541.86 3427  2545.5 3427  Z " fill-rule="nonzero" fill="rgba(240, 240, 240, 1)" stroke="none" class="fill" />
  <path d="M 2545.5 3427.5  C 2548.86 3427.5  2551.5 3430.14  2551.5 3433.5  C 2551.5 3436.86  2548.86 3439.5  2545.5 3439.5  C 2542.14 3439.5  2539.5 3436.86  2539.5 3433.5  C 2539.5 3430.14  2542.14 3427.5  2545.5 3427.5  Z " stroke-width="1" stroke-dasharray="0" stroke="rgba(121, 121, 121, 1)" fill="none" class="stroke" stroke-dashoffset="0.5" />
  <path d="M 2545.5 3436.75  C 2543.68 3436.75  2542.25 3435.32  2542.25 3433.5  C 2542.25 3431.68  2543.68 3430.25  2545.5 3430.25  C 2547.32 3430.25  2548.75 3431.68  2548.75 3433.5  C 2548.75 3435.32  2547.32 3436.75  2545.5 3436.75  " fill-rule="nonzero" fill="rgba(121, 121, 121, 1)" stroke="none" class="stroke btn_check" />
</svg>