<?xml version="1.0" encoding="utf-8"?>
<svg version="1.1" xmlns:xlink="http://www.w3.org/1999/xlink" width="13px" height="13px" viewBox="2539 3497 13 13" xmlns="http://www.w3.org/2000/svg">
  <path d="M 2545.5 3497  C 2549.14 3497  2552 3499.86  2552 3503.5  C 2552 3507.14  2549.14 3510  2545.5 3510  C 2541.86 3510  2539 3507.14  2539 3503.5  C 2539 3499.86  2541.86 3497  2545.5 3497  Z " fill-rule="nonzero" fill="rgba(240, 240, 240, 1)" stroke="none" class="fill" />
  <path d="M 2545.5 3497.5  C 2548.86 3497.5  2551.5 3500.14  2551.5 3503.5  C 2551.5 3506.86  2548.86 3509.5  2545.5 3509.5  C 2542.14 3509.5  2539.5 3506.86  2539.5 3503.5  C 2539.5 3500.14  2542.14 3497.5  2545.5 3497.5  Z " stroke-width="1" stroke-dasharray="0" stroke="rgba(121, 121, 121, 1)" fill="none" class="stroke" stroke-dashoffset="0.5" />
  <path d="M 2545.5 3506.75  C 2543.68 3506.75  2542.25 3505.32  2542.25 3503.5  C 2542.25 3501.68  2543.68 3500.25  2545.5 3500.25  C 2547.32 3500.25  2548.75 3501.68  2548.75 3503.5  C 2548.75 3505.32  2547.32 3506.75  2545.5 3506.75  " fill-rule="nonzero" fill="rgba(121, 121, 121, 1)" stroke="none" class="stroke btn_check" />
</svg>