<?xml version="1.0" encoding="utf-8"?>
<svg version="1.1" xmlns:xlink="http://www.w3.org/1999/xlink" width="13px" height="13px" viewBox="2539 3562 13 13" xmlns="http://www.w3.org/2000/svg">
  <path d="M 2545.5 3562  C 2549.14 3562  2552 3564.86  2552 3568.5  C 2552 3572.14  2549.14 3575  2545.5 3575  C 2541.86 3575  2539 3572.14  2539 3568.5  C 2539 3564.86  2541.86 3562  2545.5 3562  Z " fill-rule="nonzero" fill="rgba(240, 240, 240, 1)" stroke="none" class="fill" />
  <path d="M 2545.5 3562.5  C 2548.86 3562.5  2551.5 3565.14  2551.5 3568.5  C 2551.5 3571.86  2548.86 3574.5  2545.5 3574.5  C 2542.14 3574.5  2539.5 3571.86  2539.5 3568.5  C 2539.5 3565.14  2542.14 3562.5  2545.5 3562.5  Z " stroke-width="1" stroke-dasharray="0" stroke="rgba(121, 121, 121, 1)" fill="none" class="stroke" stroke-dashoffset="0.5" />
  <path d="M 2545.5 3571.75  C 2543.68 3571.75  2542.25 3570.32  2542.25 3568.5  C 2542.25 3566.68  2543.68 3565.25  2545.5 3565.25  C 2547.32 3565.25  2548.75 3566.68  2548.75 3568.5  C 2548.75 3570.32  2547.32 3571.75  2545.5 3571.75  " fill-rule="nonzero" fill="rgba(121, 121, 121, 1)" stroke="none" class="stroke btn_check" />
</svg>