<?xml version="1.0" encoding="utf-8"?>
<svg version="1.1" xmlns:xlink="http://www.w3.org/1999/xlink" width="13px" height="13px" viewBox="2536 4357 13 13" xmlns="http://www.w3.org/2000/svg">
  <path d="M 2542.5 4357  C 2546.14 4357  2549 4359.86  2549 4363.5  C 2549 4367.14  2546.14 4370  2542.5 4370  C 2538.86 4370  2536 4367.14  2536 4363.5  C 2536 4359.86  2538.86 4357  2542.5 4357  Z " fill-rule="nonzero" fill="rgba(255, 255, 255, 1)" stroke="none" class="fill" />
  <path d="M 2542.5 4357.5  C 2545.86 4357.5  2548.5 4360.14  2548.5 4363.5  C 2548.5 4366.86  2545.86 4369.5  2542.5 4369.5  C 2539.14 4369.5  2536.5 4366.86  2536.5 4363.5  C 2536.5 4360.14  2539.14 4357.5  2542.5 4357.5  Z " stroke-width="1" stroke-dasharray="0" stroke="rgba(121, 121, 121, 1)" fill="none" class="stroke" stroke-dashoffset="0.5" />
  <path d="M 2542.5 4366.75  C 2540.68 4366.75  2539.25 4365.32  2539.25 4363.5  C 2539.25 4361.68  2540.68 4360.25  2542.5 4360.25  C 2544.32 4360.25  2545.75 4361.68  2545.75 4363.5  C 2545.75 4365.32  2544.32 4366.75  2542.5 4366.75  " fill-rule="nonzero" fill="rgba(121, 121, 121, 1)" stroke="none" class="stroke btn_check" />
</svg>