<?xml version="1.0" encoding="utf-8"?>
<svg version="1.1" xmlns:xlink="http://www.w3.org/1999/xlink" width="19px" height="11px" xmlns="http://www.w3.org/2000/svg">
  <defs>
    <pattern id="BGPattern" patternUnits="userSpaceOnUse" alignment="0 0" imageRepeat="None" />
    <mask fill="white" id="Clip98">
      <path d="M 18.809619238476955 1.1340206185567006  C 18.936539746158985 1.2600229095074424  19 1.4049255441008004  19 1.5687285223367704  C 19 1.7325315005727364  18.936539746158985 1.8774341351660921  18.809619238476955 2.0034364261168385  L 9.937875751503006 10.810996563573882  C 9.810955243820976 10.936998854524624  9.664996659986642 11  9.5 11  C 9.335003340013362 11  9.189044756179026 10.936998854524624  9.062124248496994 10.810996563573882  L 0.1903807615230461 2.0034364261168385  C 0.06346025384101554 1.8774341351660921  0 1.7325315005727364  0 1.5687285223367704  C 0 1.4049255441008004  0.06346025384101554 1.2600229095074424  0.1903807615230461 1.1340206185567006  L 1.1422845691382766 0.1890034364261174  C 1.2692050768203076 0.06300114547537083  1.4151636606546427 0  1.5801603206412826 0  C 1.7451569806279228 0  1.891115564462258 0.06300114547537083  2.0180360721442883 0.1890034364261174  L 9.5 7.616838487972508  L 16.981963927855713 0.1890034364261174  C 17.108884435537743 0.06300114547537083  17.25484301937208 0  17.419839679358716 0  C 17.584836339345358 0  17.730794923179694 0.06300114547537083  17.857715430861724 0.1890034364261174  L 18.809619238476955 1.1340206185567006  Z " fill-rule="evenodd" />
    </mask>
  </defs>
  <g transform="matrix(1 0 0 1 -1365 -1251 )">
    <path d="M 18.809619238476955 1.1340206185567006  C 18.936539746158985 1.2600229095074424  19 1.4049255441008004  19 1.5687285223367704  C 19 1.7325315005727364  18.936539746158985 1.8774341351660921  18.809619238476955 2.0034364261168385  L 9.937875751503006 10.810996563573882  C 9.810955243820976 10.936998854524624  9.664996659986642 11  9.5 11  C 9.335003340013362 11  9.189044756179026 10.936998854524624  9.062124248496994 10.810996563573882  L 0.1903807615230461 2.0034364261168385  C 0.06346025384101554 1.8774341351660921  0 1.7325315005727364  0 1.5687285223367704  C 0 1.4049255441008004  0.06346025384101554 1.2600229095074424  0.1903807615230461 1.1340206185567006  L 1.1422845691382766 0.1890034364261174  C 1.2692050768203076 0.06300114547537083  1.4151636606546427 0  1.5801603206412826 0  C 1.7451569806279228 0  1.891115564462258 0.06300114547537083  2.0180360721442883 0.1890034364261174  L 9.5 7.616838487972508  L 16.981963927855713 0.1890034364261174  C 17.108884435537743 0.06300114547537083  17.25484301937208 0  17.419839679358716 0  C 17.584836339345358 0  17.730794923179694 0.06300114547537083  17.857715430861724 0.1890034364261174  L 18.809619238476955 1.1340206185567006  Z " fill-rule="nonzero" fill="rgba(127, 127, 127, 1)" stroke="none" transform="matrix(1 0 0 1 1365 1251 )" class="fill" />
    <path d="M 18.809619238476955 1.1340206185567006  C 18.936539746158985 1.2600229095074424  19 1.4049255441008004  19 1.5687285223367704  C 19 1.7325315005727364  18.936539746158985 1.8774341351660921  18.809619238476955 2.0034364261168385  L 9.937875751503006 10.810996563573882  C 9.810955243820976 10.936998854524624  9.664996659986642 11  9.5 11  C 9.335003340013362 11  9.189044756179026 10.936998854524624  9.062124248496994 10.810996563573882  L 0.1903807615230461 2.0034364261168385  C 0.06346025384101554 1.8774341351660921  0 1.7325315005727364  0 1.5687285223367704  C 0 1.4049255441008004  0.06346025384101554 1.2600229095074424  0.1903807615230461 1.1340206185567006  L 1.1422845691382766 0.1890034364261174  C 1.2692050768203076 0.06300114547537083  1.4151636606546427 0  1.5801603206412826 0  C 1.7451569806279228 0  1.891115564462258 0.06300114547537083  2.0180360721442883 0.1890034364261174  L 9.5 7.616838487972508  L 16.981963927855713 0.1890034364261174  C 17.108884435537743 0.06300114547537083  17.25484301937208 0  17.419839679358716 0  C 17.584836339345358 0  17.730794923179694 0.06300114547537083  17.857715430861724 0.1890034364261174  L 18.809619238476955 1.1340206185567006  Z " stroke-width="0" stroke-dasharray="0" stroke="rgba(255, 255, 255, 0)" fill="none" transform="matrix(1 0 0 1 1365 1251 )" class="stroke" mask="url(#Clip98)" />
  </g>
</svg>