<?xml version="1.0" encoding="utf-8"?>
<svg version="1.1" xmlns:xlink="http://www.w3.org/1999/xlink" width="33px" height="24px" xmlns="http://www.w3.org/2000/svg">
  <g transform="matrix(1 0 0 1 -1891 -5192 )">
    <path d="M 1891 5192  L 1924 5192  L 1924 5216  L 1891 5216  L 1891 5192  " fill-rule="nonzero" fill="rgba(204, 204, 204, 1)" stroke="none" class="fill" />
    <path d="M 1893 5194  L 1922 5194  L 1922 5214  L 1893 5214  L 1893 5194  " fill-rule="nonzero" fill="rgba(255, 255, 255, 1)" stroke="none" class="fill" />
    <path d="M 1909.96 5199.200000000001  C 1908.952 5199.200000000001  1908.16 5198.408  1908.16 5197.400000000001  C 1908.16 5196.392000000001  1908.952 5195.6  1909.96 5195.6  C 1910.968 5195.6  1911.76 5196.392000000001  1911.76 5197.400000000001  C 1911.76 5198.408  1910.968 5199.200000000001  1909.96 5199.200000000001  " fill-rule="nonzero" fill="rgba(204, 204, 204, 1)" stroke="none" class="fill" />
    <path d="M 1894 5214  L 1894 5203.55  L 1901 5198.8  L 1910.8 5205.709090909091  L 1916.4 5201.65  L 1922 5205.709090909091  L 1922 5214  L 1894 5214  " fill-rule="nonzero" fill="rgba(22, 155, 213, 1)" stroke="none" class="fill" />
  </g>
</svg>