<?xml version="1.0" encoding="utf-8"?>
<svg version="1.1" xmlns:xlink="http://www.w3.org/1999/xlink" width="13px" height="13px" viewBox="2554 6042 13 13" xmlns="http://www.w3.org/2000/svg">
  <path d="M 2560.5 6042  C 2564.14 6042  2567 6044.86  2567 6048.5  C 2567 6052.14  2564.14 6055  2560.5 6055  C 2556.86 6055  2554 6052.14  2554 6048.5  C 2554 6044.86  2556.86 6042  2560.5 6042  Z " fill-rule="nonzero" fill="rgba(255, 255, 255, 1)" stroke="none" class="fill" />
  <path d="M 2560.5 6042.5  C 2563.86 6042.5  2566.5 6045.14  2566.5 6048.5  C 2566.5 6051.86  2563.86 6054.5  2560.5 6054.5  C 2557.14 6054.5  2554.5 6051.86  2554.5 6048.5  C 2554.5 6045.14  2557.14 6042.5  2560.5 6042.5  Z " stroke-width="1" stroke-dasharray="0" stroke="rgba(121, 121, 121, 1)" fill="none" class="stroke" stroke-dashoffset="0.5" />
  <path d="M 2560.5 6051.75  C 2558.68 6051.75  2557.25 6050.32  2557.25 6048.5  C 2557.25 6046.68  2558.68 6045.25  2560.5 6045.25  C 2562.32 6045.25  2563.75 6046.68  2563.75 6048.5  C 2563.75 6050.32  2562.32 6051.75  2560.5 6051.75  " fill-rule="nonzero" fill="rgba(121, 121, 121, 1)" stroke="none" class="stroke btn_check" />
</svg>