<?xml version="1.0" encoding="utf-8"?>
<svg version="1.1" xmlns:xlink="http://www.w3.org/1999/xlink" width="35px" height="20px" xmlns="http://www.w3.org/2000/svg">
  <defs>
    <pattern id="BGPattern" patternUnits="userSpaceOnUse" alignment="0 0" imageRepeat="None" />
    <mask fill="white" id="Clip21">
      <path d="M 0 20  L 0 0  L 35 0  L 35 20  L 0 20  Z " fill-rule="evenodd" />
    </mask>
  </defs>
  <g transform="matrix(1 0 0 1 -2308 -6005 )">
    <path d="M 0 20  L 0 0  L 35 0  L 35 20  L 0 20  Z " fill-rule="nonzero" fill="rgba(242, 242, 242, 1)" stroke="none" transform="matrix(1 0 0 1 2308 6005 )" class="fill" />
    <path d="M 0 20  L 0 0  L 35 0  L 35 20  L 0 20  Z " stroke-width="2" stroke-dasharray="0" stroke="rgba(121, 121, 121, 1)" fill="none" transform="matrix(1 0 0 1 2308 6005 )" class="stroke" mask="url(#Clip21)" />
    <path d="M 34.240287250641096 0.4341215710622296  L 0.7597127493589018 19.565878428937772  M 0.7597127493589018 0.4341215710622296  L 34.240287250641096 19.565878428937772  " stroke-width="1" stroke-dasharray="0" stroke="rgba(121, 121, 121, 1)" fill="none" transform="matrix(1 0 0 1 2308 6005 )" class="stroke" />
  </g>
</svg>