<?xml version="1.0" encoding="utf-8"?>
<svg version="1.1" xmlns:xlink="http://www.w3.org/1999/xlink" width="13px" height="13px" viewBox="2554 6152 13 13" xmlns="http://www.w3.org/2000/svg">
  <path d="M 2560.5 6152  C 2564.14 6152  2567 6154.86  2567 6158.5  C 2567 6162.14  2564.14 6165  2560.5 6165  C 2556.86 6165  2554 6162.14  2554 6158.5  C 2554 6154.86  2556.86 6152  2560.5 6152  Z " fill-rule="nonzero" fill="rgba(255, 255, 255, 1)" stroke="none" class="fill" />
  <path d="M 2560.5 6152.5  C 2563.86 6152.5  2566.5 6155.14  2566.5 6158.5  C 2566.5 6161.86  2563.86 6164.5  2560.5 6164.5  C 2557.14 6164.5  2554.5 6161.86  2554.5 6158.5  C 2554.5 6155.14  2557.14 6152.5  2560.5 6152.5  Z " stroke-width="1" stroke-dasharray="0" stroke="rgba(121, 121, 121, 1)" fill="none" class="stroke" stroke-dashoffset="0.5" />
  <path d="M 2560.5 6161.75  C 2558.68 6161.75  2557.25 6160.32  2557.25 6158.5  C 2557.25 6156.68  2558.68 6155.25  2560.5 6155.25  C 2562.32 6155.25  2563.75 6156.68  2563.75 6158.5  C 2563.75 6160.32  2562.32 6161.75  2560.5 6161.75  " fill-rule="nonzero" fill="rgba(121, 121, 121, 1)" stroke="none" class="stroke btn_check" />
</svg>