<?xml version="1.0" encoding="utf-8"?>
<svg version="1.1" xmlns:xlink="http://www.w3.org/1999/xlink" width="13px" height="13px" viewBox="2545 6846 13 13" xmlns="http://www.w3.org/2000/svg">
  <path d="M 2551.5 6846  C 2555.14 6846  2558 6848.86  2558 6852.5  C 2558 6856.14  2555.14 6859  2551.5 6859  C 2547.86 6859  2545 6856.14  2545 6852.5  C 2545 6848.86  2547.86 6846  2551.5 6846  Z " fill-rule="nonzero" fill="rgba(240, 240, 240, 1)" stroke="none" class="fill" />
  <path d="M 2551.5 6846.5  C 2554.86 6846.5  2557.5 6849.14  2557.5 6852.5  C 2557.5 6855.86  2554.86 6858.5  2551.5 6858.5  C 2548.14 6858.5  2545.5 6855.86  2545.5 6852.5  C 2545.5 6849.14  2548.14 6846.5  2551.5 6846.5  Z " stroke-width="1" stroke-dasharray="0" stroke="rgba(121, 121, 121, 1)" fill="none" class="stroke" stroke-dashoffset="0.5" />
  <path d="M 2551.5 6855.75  C 2549.68 6855.75  2548.25 6854.32  2548.25 6852.5  C 2548.25 6850.68  2549.68 6849.25  2551.5 6849.25  C 2553.32 6849.25  2554.75 6850.68  2554.75 6852.5  C 2554.75 6854.32  2553.32 6855.75  2551.5 6855.75  " fill-rule="nonzero" fill="rgba(121, 121, 121, 1)" stroke="none" class="stroke btn_check" />
</svg>