<?xml version="1.0" encoding="utf-8"?>
<svg version="1.1" xmlns:xlink="http://www.w3.org/1999/xlink" width="116px" height="87px" xmlns="http://www.w3.org/2000/svg">
  <defs>
    <pattern id="BGPattern" patternUnits="userSpaceOnUse" alignment="0 0" imageRepeat="None" />
    <mask fill="white" id="Clip1">
      <path d="M 0 87  L 0 0  L 116 0  L 116 87  L 0 87  Z " fill-rule="evenodd" />
    </mask>
  </defs>
  <g transform="matrix(1 0 0 1 -704 -496 )">
    <path d="M 0 87  L 0 0  L 116 0  L 116 87  L 0 87  Z " fill-rule="nonzero" fill="rgba(236, 128, 141, 1)" stroke="none" transform="matrix(1 0 0 1 704 496 )" class="fill" />
    <path d="M 0 87  L 0 0  L 116 0  L 116 87  L 0 87  Z " stroke-width="2" stroke-dasharray="0" stroke="rgba(170, 170, 170, 1)" fill="none" transform="matrix(1 0 0 1 704 496 )" class="stroke" mask="url(#Clip1)" />
    <path d="M 115.46666666666667 0.4  L 0.5333333333333333 86.60000000000001  M 0.5333333333333333 0.4  L 115.46666666666667 86.60000000000001  " stroke-width="1" stroke-dasharray="0" stroke="rgba(170, 170, 170, 1)" fill="none" transform="matrix(1 0 0 1 704 496 )" class="stroke" />
  </g>
</svg>