<?xml version="1.0" encoding="utf-8"?>
<svg version="1.1" xmlns:xlink="http://www.w3.org/1999/xlink" width="26px" height="22px" xmlns="http://www.w3.org/2000/svg">
  <defs>
    <pattern id="BGPattern" patternUnits="userSpaceOnUse" alignment="0 0" imageRepeat="None" />
    <mask fill="white" id="Clip75">
      <path d="M 25.678385416666668 17.9265625  C 25.892795138888886 18.144270833333334  26 18.402083333333334  26 18.7  L 26 20.9  C 26 21.197916666666664  25.892795138888886 21.455729166666664  25.678385416666668 21.6734375  C 25.463975694444446 21.891145833333333  25.210069444444446 22  24.916666666666668 22  L 1.0833333333333333 22  C 0.7899305555555556 22  0.5360243055555556 21.891145833333333  0.3216145833333333 21.6734375  C 0.10720486111111112 21.455729166666664  0 21.197916666666664  0 20.9  L 0 18.7  C 0 18.402083333333334  0.10720486111111112 18.144270833333334  0.3216145833333333 17.9265625  C 0.5360243055555556 17.708854166666665  0.7899305555555556 17.6  1.0833333333333333 17.6  L 24.916666666666668 17.6  C 25.210069444444446 17.6  25.463975694444446 17.708854166666665  25.678385416666668 17.9265625  Z M 25.678385416666668 9.126562499999999  C 25.892795138888886 9.344270833333333  26 9.602083333333333  26 9.899999999999999  L 26 12.100000000000001  C 26 12.397916666666665  25.892795138888886 12.655729166666665  25.678385416666668 12.873437500000001  C 25.463975694444446 13.091145833333332  25.210069444444446 13.2  24.916666666666668 13  L 1.0833333333333333 13  C 0.7899305555555556 13.2  0.5360243055555556 13.091145833333332  0.3216145833333333 12.873437500000001  C 0.10720486111111112 12.655729166666665  0 12.397916666666665  0 12.100000000000001  L 0 9.899999999999999  C 0 9.602083333333333  0.10720486111111112 9.344270833333333  0.3216145833333333 9.126562499999999  C 0.5360243055555556 8.908854166666668  0.7899305555555556 8.8  1.0833333333333333 9  L 24.916666666666668 9  C 25.210069444444446 8.8  25.463975694444446 8.908854166666668  25.678385416666668 9.126562499999999  Z M 25.678385416666668 0.326562500000001  C 25.892795138888886 0.5442708333333317  26 0.8020833333333317  26 1.100000000000001  L 26 3.3000000000000007  C 26 3.5979166666666647  25.892795138888886 3.8557291666666647  25.678385416666668 4.073437500000001  C 25.463975694444446 4.291145833333331  25.210069444444446 4.399999999999999  24.916666666666668 4.399999999999999  L 1.0833333333333333 4.399999999999999  C 0.7899305555555556 4.399999999999999  0.5360243055555556 4.291145833333331  0.3216145833333333 4.073437500000001  C 0.10720486111111112 3.8557291666666647  0 3.5979166666666647  0 3.3000000000000007  L 0 1.100000000000001  C 0 0.8020833333333317  0.10720486111111112 0.5442708333333317  0.3216145833333333 0.326562500000001  C 0.5360243055555556 0.10885416666666536  0.7899305555555556 0  1.0833333333333333 0  L 24.916666666666668 0  C 25.210069444444446 0  25.463975694444446 0.10885416666666536  25.678385416666668 0.326562500000001  Z " fill-rule="evenodd" />
    </mask>
  </defs>
  <g transform="matrix(1 0 0 1 -337 -755 )">
    <path d="M 25.678385416666668 17.9265625  C 25.892795138888886 18.144270833333334  26 18.402083333333334  26 18.7  L 26 20.9  C 26 21.197916666666664  25.892795138888886 21.455729166666664  25.678385416666668 21.6734375  C 25.463975694444446 21.891145833333333  25.210069444444446 22  24.916666666666668 22  L 1.0833333333333333 22  C 0.7899305555555556 22  0.5360243055555556 21.891145833333333  0.3216145833333333 21.6734375  C 0.10720486111111112 21.455729166666664  0 21.197916666666664  0 20.9  L 0 18.7  C 0 18.402083333333334  0.10720486111111112 18.144270833333334  0.3216145833333333 17.9265625  C 0.5360243055555556 17.708854166666665  0.7899305555555556 17.6  1.0833333333333333 17.6  L 24.916666666666668 17.6  C 25.210069444444446 17.6  25.463975694444446 17.708854166666665  25.678385416666668 17.9265625  Z M 25.678385416666668 9.126562499999999  C 25.892795138888886 9.344270833333333  26 9.602083333333333  26 9.899999999999999  L 26 12.100000000000001  C 26 12.397916666666665  25.892795138888886 12.655729166666665  25.678385416666668 12.873437500000001  C 25.463975694444446 13.091145833333332  25.210069444444446 13.2  24.916666666666668 13  L 1.0833333333333333 13  C 0.7899305555555556 13.2  0.5360243055555556 13.091145833333332  0.3216145833333333 12.873437500000001  C 0.10720486111111112 12.655729166666665  0 12.397916666666665  0 12.100000000000001  L 0 9.899999999999999  C 0 9.602083333333333  0.10720486111111112 9.344270833333333  0.3216145833333333 9.126562499999999  C 0.5360243055555556 8.908854166666668  0.7899305555555556 8.8  1.0833333333333333 9  L 24.916666666666668 9  C 25.210069444444446 8.8  25.463975694444446 8.908854166666668  25.678385416666668 9.126562499999999  Z M 25.678385416666668 0.326562500000001  C 25.892795138888886 0.5442708333333317  26 0.8020833333333317  26 1.100000000000001  L 26 3.3000000000000007  C 26 3.5979166666666647  25.892795138888886 3.8557291666666647  25.678385416666668 4.073437500000001  C 25.463975694444446 4.291145833333331  25.210069444444446 4.399999999999999  24.916666666666668 4.399999999999999  L 1.0833333333333333 4.399999999999999  C 0.7899305555555556 4.399999999999999  0.5360243055555556 4.291145833333331  0.3216145833333333 4.073437500000001  C 0.10720486111111112 3.8557291666666647  0 3.5979166666666647  0 3.3000000000000007  L 0 1.100000000000001  C 0 0.8020833333333317  0.10720486111111112 0.5442708333333317  0.3216145833333333 0.326562500000001  C 0.5360243055555556 0.10885416666666536  0.7899305555555556 0  1.0833333333333333 0  L 24.916666666666668 0  C 25.210069444444446 0  25.463975694444446 0.10885416666666536  25.678385416666668 0.326562500000001  Z " fill-rule="nonzero" fill="rgba(170, 170, 170, 1)" stroke="none" transform="matrix(1 0 0 1 337 755 )" class="fill" />
    <path d="M 25.678385416666668 17.9265625  C 25.892795138888886 18.144270833333334  26 18.402083333333334  26 18.7  L 26 20.9  C 26 21.197916666666664  25.892795138888886 21.455729166666664  25.678385416666668 21.6734375  C 25.463975694444446 21.891145833333333  25.210069444444446 22  24.916666666666668 22  L 1.0833333333333333 22  C 0.7899305555555556 22  0.5360243055555556 21.891145833333333  0.3216145833333333 21.6734375  C 0.10720486111111112 21.455729166666664  0 21.197916666666664  0 20.9  L 0 18.7  C 0 18.402083333333334  0.10720486111111112 18.144270833333334  0.3216145833333333 17.9265625  C 0.5360243055555556 17.708854166666665  0.7899305555555556 17.6  1.0833333333333333 17.6  L 24.916666666666668 17.6  C 25.210069444444446 17.6  25.463975694444446 17.708854166666665  25.678385416666668 17.9265625  Z " stroke-width="0" stroke-dasharray="0" stroke="rgba(255, 255, 255, 0)" fill="none" transform="matrix(1 0 0 1 337 755 )" class="stroke" mask="url(#Clip75)" />
    <path d="M 25.678385416666668 9.126562499999999  C 25.892795138888886 9.344270833333333  26 9.602083333333333  26 9.899999999999999  L 26 12.100000000000001  C 26 12.397916666666665  25.892795138888886 12.655729166666665  25.678385416666668 12.873437500000001  C 25.463975694444446 13.091145833333332  25.210069444444446 13.2  24.916666666666668 13  L 1.0833333333333333 13  C 0.7899305555555556 13.2  0.5360243055555556 13.091145833333332  0.3216145833333333 12.873437500000001  C 0.10720486111111112 12.655729166666665  0 12.397916666666665  0 12.100000000000001  L 0 9.899999999999999  C 0 9.602083333333333  0.10720486111111112 9.344270833333333  0.3216145833333333 9.126562499999999  C 0.5360243055555556 8.908854166666668  0.7899305555555556 8.8  1.0833333333333333 9  L 24.916666666666668 9  C 25.210069444444446 8.8  25.463975694444446 8.908854166666668  25.678385416666668 9.126562499999999  Z " stroke-width="0" stroke-dasharray="0" stroke="rgba(255, 255, 255, 0)" fill="none" transform="matrix(1 0 0 1 337 755 )" class="stroke" mask="url(#Clip75)" />
    <path d="M 25.678385416666668 0.326562500000001  C 25.892795138888886 0.5442708333333317  26 0.8020833333333317  26 1.100000000000001  L 26 3.3000000000000007  C 26 3.5979166666666647  25.892795138888886 3.8557291666666647  25.678385416666668 4.073437500000001  C 25.463975694444446 4.291145833333331  25.210069444444446 4.399999999999999  24.916666666666668 4.399999999999999  L 1.0833333333333333 4.399999999999999  C 0.7899305555555556 4.399999999999999  0.5360243055555556 4.291145833333331  0.3216145833333333 4.073437500000001  C 0.10720486111111112 3.8557291666666647  0 3.5979166666666647  0 3.3000000000000007  L 0 1.100000000000001  C 0 0.8020833333333317  0.10720486111111112 0.5442708333333317  0.3216145833333333 0.326562500000001  C 0.5360243055555556 0.10885416666666536  0.7899305555555556 0  1.0833333333333333 0  L 24.916666666666668 0  C 25.210069444444446 0  25.463975694444446 0.10885416666666536  25.678385416666668 0.326562500000001  Z " stroke-width="0" stroke-dasharray="0" stroke="rgba(255, 255, 255, 0)" fill="none" transform="matrix(1 0 0 1 337 755 )" class="stroke" mask="url(#Clip75)" />
  </g>
</svg>