<?xml version="1.0" encoding="utf-8"?>
<svg version="1.1" xmlns:xlink="http://www.w3.org/1999/xlink" width="15px" height="18px" xmlns="http://www.w3.org/2000/svg">
  <defs>
    <pattern id="BGPattern" patternUnits="userSpaceOnUse" alignment="0 0" imageRepeat="None" />
    <mask fill="white" id="Clip76">
      <path d="M 13.928571428571429 1.4980494148244479  L 13.928571428571429 5.99219765929779  C 14.22433035714286 5.99219765929779  14.476841517857144 6.138491547464239  14.686104910714285 6.431079323797139  C 14.895368303571429 6.723667100130039  15 7.076723016905072  15 7.490247074122237  C 15 7.903771131339401  14.895368303571429 8.256827048114433  14.686104910714285 8.549414824447334  C 14.476841517857144 8.842002600780233  14.22433035714286 8.988296488946684  13.928571428571429 8.988296488946684  L 13.928571428571429 13.482444733420024  C 13.928571428571429 13.888166449934978  13.822544642857144 14.239271781534459  13.610491071428571 14.535760728218465  C 13.398437500000002 14.83224967490247  13.147321428571429 14.980494148244473  12.857142857142856 14.980494148244473  C 10.530133928571429 12.27308192457737  8.264508928571429 10.790637191157346  6.060267857142858 10.533159947984396  C 5.736607142857143 10.681404421326397  5.482700892857142 10.938881664499348  5.298549107142858 11.305591677503251  C 5.114397321428572 11.672301690507151  5.0279017857142865 12.064369310793236  5.0390625 12.481794538361509  C 5.050223214285714 12.899219765929779  5.161830357142858 13.260078023407022  5.373883928571428 13.56436931079324  C 5.2622767857142865 13.82184655396619  5.198102678571428 14.07737321196359  5.181361607142858 14.330949284785437  C 5.164620535714286 14.584525357607282  5.181361607142858 14.81079323797139  5.231584821428572 15.009752925877763  C 5.281808035714286 15.208712613784137  5.375279017857144 15.423276983094928  5.511997767857142 15.653446033810143  C 5.648716517857143 15.883615084525358  5.782645089285714 16.078673602080624  5.913783482142858 16.238621586475944  C 6.044921875 16.398569570871263  6.216517857142858 16.59557867360208  6.428571428571428 16.829648894668402  C 6.266741071428572 17.28218465539662  5.955636160714286 17.605981794538362  5.495256696428572 17.80104031209363  C 5.034877232142858 17.996098829648897  4.564732142857143 18.040962288686604  4.084821428571428 17.93563068920676  C 3.604910714285715 17.830299089726918  3.2366071428571432 17.61378413524057  2.979910714285714 17.286085825747723  C 2.940848214285715 17.10663198959688  2.858537946428571 16.765279583875163  2.732979910714286 16.262028608582575  C 2.607421875 15.758777633289988  2.518136160714286 15.390117035110533  2.465122767857143 15.156046814044213  C 2.4121093750000004 14.921976592977893  2.347935267857143 14.574772431729519  2.272600446428571 14.11443433029909  C 2.197265625 13.65409622886866  2.155412946428571 13.260078023407022  2.147042410714286 12.932379713914175  C 2.1386718750000004 12.604681404421324  2.1484375000000004 12.220416124837449  2.176339285714286 11.77958387516255  C 2.204241071428572 11.338751625487646  2.2656250000000004 10.907672301690505  2.360491071428571 10.48634590377113  L 1.3392857142857144 10.48634590377113  C 0.9709821428571429 10.48634590377113  0.6556919642857143 10.30299089726918  0.3934151785714286 9.93628088426528  C 0.13113839285714285 9.569570871261377  0 9.128738621586477  0 8.613784135240572  L 0 6.366710013003901  C 0 5.851755526657998  0.13113839285714285 5.410923276983093  0.3934151785714286 5.044213263979193  C 0.6556919642857143 4.677503250975291  0.9709821428571429 4.494148244473342  1.3392857142857144 4.494148244473342  L 5.357142857142858 4.494148244473342  C 7.784598214285714 4.494148244473342  10.284598214285715 2.9960988296488935  12.857142857142856 0  C 13.147321428571429 0  13.398437500000002 0.14824447334200075  13.610491071428571 0.44473342002600824  C 13.822544642857144 0.7412223667100117  13.928571428571429 1.0923276983094916  13.928571428571429 1.4980494148244479  Z M 6.428571428571428 9.070221066319897  C 8.532366071428571 9.397919375812743  10.675223214285715 10.72821846553966  12.857142857142856 13.06111833550065  L 12.857142857142856 1.895968790637191  C 10.658482142857144 4.252275682704811  8.515625 5.590377113133939  6.428571428571428 5.9102730819245775  L 6.428571428571428 9.070221066319897  Z " fill-rule="evenodd" />
    </mask>
  </defs>
  <g transform="matrix(1 0 0 1 -89 -286 )">
    <path d="M 13.928571428571429 1.4980494148244479  L 13.928571428571429 5.99219765929779  C 14.22433035714286 5.99219765929779  14.476841517857144 6.138491547464239  14.686104910714285 6.431079323797139  C 14.895368303571429 6.723667100130039  15 7.076723016905072  15 7.490247074122237  C 15 7.903771131339401  14.895368303571429 8.256827048114433  14.686104910714285 8.549414824447334  C 14.476841517857144 8.842002600780233  14.22433035714286 8.988296488946684  13.928571428571429 8.988296488946684  L 13.928571428571429 13.482444733420024  C 13.928571428571429 13.888166449934978  13.822544642857144 14.239271781534459  13.610491071428571 14.535760728218465  C 13.398437500000002 14.83224967490247  13.147321428571429 14.980494148244473  12.857142857142856 14.980494148244473  C 10.530133928571429 12.27308192457737  8.264508928571429 10.790637191157346  6.060267857142858 10.533159947984396  C 5.736607142857143 10.681404421326397  5.482700892857142 10.938881664499348  5.298549107142858 11.305591677503251  C 5.114397321428572 11.672301690507151  5.0279017857142865 12.064369310793236  5.0390625 12.481794538361509  C 5.050223214285714 12.899219765929779  5.161830357142858 13.260078023407022  5.373883928571428 13.56436931079324  C 5.2622767857142865 13.82184655396619  5.198102678571428 14.07737321196359  5.181361607142858 14.330949284785437  C 5.164620535714286 14.584525357607282  5.181361607142858 14.81079323797139  5.231584821428572 15.009752925877763  C 5.281808035714286 15.208712613784137  5.375279017857144 15.423276983094928  5.511997767857142 15.653446033810143  C 5.648716517857143 15.883615084525358  5.782645089285714 16.078673602080624  5.913783482142858 16.238621586475944  C 6.044921875 16.398569570871263  6.216517857142858 16.59557867360208  6.428571428571428 16.829648894668402  C 6.266741071428572 17.28218465539662  5.955636160714286 17.605981794538362  5.495256696428572 17.80104031209363  C 5.034877232142858 17.996098829648897  4.564732142857143 18.040962288686604  4.084821428571428 17.93563068920676  C 3.604910714285715 17.830299089726918  3.2366071428571432 17.61378413524057  2.979910714285714 17.286085825747723  C 2.940848214285715 17.10663198959688  2.858537946428571 16.765279583875163  2.732979910714286 16.262028608582575  C 2.607421875 15.758777633289988  2.518136160714286 15.390117035110533  2.465122767857143 15.156046814044213  C 2.4121093750000004 14.921976592977893  2.347935267857143 14.574772431729519  2.272600446428571 14.11443433029909  C 2.197265625 13.65409622886866  2.155412946428571 13.260078023407022  2.147042410714286 12.932379713914175  C 2.1386718750000004 12.604681404421324  2.1484375000000004 12.220416124837449  2.176339285714286 11.77958387516255  C 2.204241071428572 11.338751625487646  2.2656250000000004 10.907672301690505  2.360491071428571 10.48634590377113  L 1.3392857142857144 10.48634590377113  C 0.9709821428571429 10.48634590377113  0.6556919642857143 10.30299089726918  0.3934151785714286 9.93628088426528  C 0.13113839285714285 9.569570871261377  0 9.128738621586477  0 8.613784135240572  L 0 6.366710013003901  C 0 5.851755526657998  0.13113839285714285 5.410923276983093  0.3934151785714286 5.044213263979193  C 0.6556919642857143 4.677503250975291  0.9709821428571429 4.494148244473342  1.3392857142857144 4.494148244473342  L 5.357142857142858 4.494148244473342  C 7.784598214285714 4.494148244473342  10.284598214285715 2.9960988296488935  12.857142857142856 0  C 13.147321428571429 0  13.398437500000002 0.14824447334200075  13.610491071428571 0.44473342002600824  C 13.822544642857144 0.7412223667100117  13.928571428571429 1.0923276983094916  13.928571428571429 1.4980494148244479  Z M 6.428571428571428 9.070221066319897  C 8.532366071428571 9.397919375812743  10.675223214285715 10.72821846553966  12.857142857142856 13.06111833550065  L 12.857142857142856 1.895968790637191  C 10.658482142857144 4.252275682704811  8.515625 5.590377113133939  6.428571428571428 5.9102730819245775  L 6.428571428571428 9.070221066319897  Z " fill-rule="nonzero" fill="rgba(170, 170, 170, 1)" stroke="none" transform="matrix(1 0 0 1 89 286 )" class="fill" />
    <path d="M 13.928571428571429 1.4980494148244479  L 13.928571428571429 5.99219765929779  C 14.22433035714286 5.99219765929779  14.476841517857144 6.138491547464239  14.686104910714285 6.431079323797139  C 14.895368303571429 6.723667100130039  15 7.076723016905072  15 7.490247074122237  C 15 7.903771131339401  14.895368303571429 8.256827048114433  14.686104910714285 8.549414824447334  C 14.476841517857144 8.842002600780233  14.22433035714286 8.988296488946684  13.928571428571429 8.988296488946684  L 13.928571428571429 13.482444733420024  C 13.928571428571429 13.888166449934978  13.822544642857144 14.239271781534459  13.610491071428571 14.535760728218465  C 13.398437500000002 14.83224967490247  13.147321428571429 14.980494148244473  12.857142857142856 14.980494148244473  C 10.530133928571429 12.27308192457737  8.264508928571429 10.790637191157346  6.060267857142858 10.533159947984396  C 5.736607142857143 10.681404421326397  5.482700892857142 10.938881664499348  5.298549107142858 11.305591677503251  C 5.114397321428572 11.672301690507151  5.0279017857142865 12.064369310793236  5.0390625 12.481794538361509  C 5.050223214285714 12.899219765929779  5.161830357142858 13.260078023407022  5.373883928571428 13.56436931079324  C 5.2622767857142865 13.82184655396619  5.198102678571428 14.07737321196359  5.181361607142858 14.330949284785437  C 5.164620535714286 14.584525357607282  5.181361607142858 14.81079323797139  5.231584821428572 15.009752925877763  C 5.281808035714286 15.208712613784137  5.375279017857144 15.423276983094928  5.511997767857142 15.653446033810143  C 5.648716517857143 15.883615084525358  5.782645089285714 16.078673602080624  5.913783482142858 16.238621586475944  C 6.044921875 16.398569570871263  6.216517857142858 16.59557867360208  6.428571428571428 16.829648894668402  C 6.266741071428572 17.28218465539662  5.955636160714286 17.605981794538362  5.495256696428572 17.80104031209363  C 5.034877232142858 17.996098829648897  4.564732142857143 18.040962288686604  4.084821428571428 17.93563068920676  C 3.604910714285715 17.830299089726918  3.2366071428571432 17.61378413524057  2.979910714285714 17.286085825747723  C 2.940848214285715 17.10663198959688  2.858537946428571 16.765279583875163  2.732979910714286 16.262028608582575  C 2.607421875 15.758777633289988  2.518136160714286 15.390117035110533  2.465122767857143 15.156046814044213  C 2.4121093750000004 14.921976592977893  2.347935267857143 14.574772431729519  2.272600446428571 14.11443433029909  C 2.197265625 13.65409622886866  2.155412946428571 13.260078023407022  2.147042410714286 12.932379713914175  C 2.1386718750000004 12.604681404421324  2.1484375000000004 12.220416124837449  2.176339285714286 11.77958387516255  C 2.204241071428572 11.338751625487646  2.2656250000000004 10.907672301690505  2.360491071428571 10.48634590377113  L 1.3392857142857144 10.48634590377113  C 0.9709821428571429 10.48634590377113  0.6556919642857143 10.30299089726918  0.3934151785714286 9.93628088426528  C 0.13113839285714285 9.569570871261377  0 9.128738621586477  0 8.613784135240572  L 0 6.366710013003901  C 0 5.851755526657998  0.13113839285714285 5.410923276983093  0.3934151785714286 5.044213263979193  C 0.6556919642857143 4.677503250975291  0.9709821428571429 4.494148244473342  1.3392857142857144 4.494148244473342  L 5.357142857142858 4.494148244473342  C 7.784598214285714 4.494148244473342  10.284598214285715 2.9960988296488935  12.857142857142856 0  C 13.147321428571429 0  13.398437500000002 0.14824447334200075  13.610491071428571 0.44473342002600824  C 13.822544642857144 0.7412223667100117  13.928571428571429 1.0923276983094916  13.928571428571429 1.4980494148244479  Z " stroke-width="0" stroke-dasharray="0" stroke="rgba(255, 255, 255, 0)" fill="none" transform="matrix(1 0 0 1 89 286 )" class="stroke" mask="url(#Clip76)" />
    <path d="M 6.428571428571428 9.070221066319897  C 8.532366071428571 9.397919375812743  10.675223214285715 10.72821846553966  12.857142857142856 13.06111833550065  L 12.857142857142856 1.895968790637191  C 10.658482142857144 4.252275682704811  8.515625 5.590377113133939  6.428571428571428 5.9102730819245775  L 6.428571428571428 9.070221066319897  Z " stroke-width="0" stroke-dasharray="0" stroke="rgba(255, 255, 255, 0)" fill="none" transform="matrix(1 0 0 1 89 286 )" class="stroke" mask="url(#Clip76)" />
  </g>
</svg>