<?xml version="1.0" encoding="utf-8"?>
<svg version="1.1" xmlns:xlink="http://www.w3.org/1999/xlink" width="25px" height="25px" xmlns="http://www.w3.org/2000/svg">
  <defs>
    <pattern id="BGPattern" patternUnits="userSpaceOnUse" alignment="0 0" imageRepeat="None" />
    <mask fill="white" id="Clip79">
      <path d="M 0 7.5  C 0 3.3  3.3 0  7.5 0  C 11.700000000000001 0  15 3.3  15 7.5  C 15 11.700000000000001  11.700000000000001 15  7.5 15  C 3.3 15  0 11.700000000000001  0 7.5  Z " fill-rule="evenodd" />
    </mask>
  </defs>
  <g transform="matrix(1 0 0 1 -657 -738 )">
    <path d="M 0 7.5  C 0 3.3  3.3 0  7.5 0  C 11.700000000000001 0  15 3.3  15 7.5  C 15 11.700000000000001  11.700000000000001 15  7.5 15  C 3.3 15  0 11.700000000000001  0 7.5  Z " fill-rule="nonzero" fill="rgba(217, 0, 27, 1)" stroke="none" transform="matrix(1 0 0 1 661 742 )" class="fill" />
    <path d="M 0 7.5  C 0 3.3  3.3 0  7.5 0  C 11.700000000000001 0  15 3.3  15 7.5  C 15 11.700000000000001  11.700000000000001 15  7.5 15  C 3.3 15  0 11.700000000000001  0 7.5  Z " stroke-width="2" stroke-dasharray="0" stroke="rgba(255, 255, 255, 1)" fill="none" transform="matrix(1 0 0 1 661 742 )" class="stroke" mask="url(#Clip79)" />
  </g>
  <style>svg { filter: drop-shadow(1px 1px 2.5px rgba(0, 0, 0, 0.6980392156862745)); }</style>
</svg>