<?xml version="1.0" encoding="utf-8"?>
<svg version="1.1" xmlns:xlink="http://www.w3.org/1999/xlink" width="9px" height="11px" xmlns="http://www.w3.org/2000/svg">
  <defs>
    <pattern id="BGPattern" patternUnits="userSpaceOnUse" alignment="0 0" imageRepeat="None" />
    <mask fill="white" id="Clip25">
      <path d="M 8.786264441591785 5.141304347826087  C 8.92875481386393 5.335597826086956  9.000000000000002 5.562273550724637  9 5.821331521739131  C 9.000000000000002 6.075407608695652  8.92875481386393 6.299592391304348  8.786264441591785 6.493885869565217  L 8.353016688061617 7.054347826086956  C 8.206675224646984 7.243659420289854  8.031450577663673 7.338315217391305  7.827342747111682 7.338315217391305  C 7.619383825417201 7.338315217391305  7.446084724005135 7.243659420289854  7.307445442875482 7.054347826086956  L 5.609114249037227 4.864809782608695  L 5.609114249037227 10.125679347826086  C 5.609114249037227 10.38473731884058  5.536906290115533 10.595221920289855  5.392490372272143 10.757133152173914  C 5.248074454428755 10.919044384057973  5.073812580231066 11  4.869704749679076 11  L 4.130295250320924 11  C 3.926187419768935 11  3.751925545571245 10.919044384057973  3.607509627727856 10.757133152173914  C 3.4630937098844674 10.595221920289855  3.390885750962773 10.38473731884058  3.390885750962773 10.125679347826086  L 3.390885750962773 4.864809782608695  L 1.6925545571245186 7.054347826086956  C 1.5539152759948651 7.243659420289854  1.3806161745827985 7.338315217391305  1.1726572528883183 7.338315217391305  C 0.9646983311938382 7.338315217391305  0.7913992297817715 7.243659420289854  0.6527599486521181 7.054347826086956  L 0.21951219512195122 6.493885869565217  C 0.0731707317073171 6.304574275362318  0 6.080389492753623  0 5.821331521739131  C 0 5.557291666666666  0.0731707317073171 5.330615942028985  0.21951219512195122 5.141304347826087  L 3.9801026957638 0.27649456521739146  C 4.114890885750963 0.09216485507246341  4.2881899871630305 0  4.5 0  C 4.7079589216944795 0  4.883183568677793 0.09216485507246341  5.025673940949936 0.27649456521739146  L 8.786264441591785 5.141304347826087  Z " fill-rule="evenodd" />
    </mask>
  </defs>
  <g transform="matrix(1 0 0 1 -1290 -623 )">
    <path d="M 8.786264441591785 5.141304347826087  C 8.92875481386393 5.335597826086956  9.000000000000002 5.562273550724637  9 5.821331521739131  C 9.000000000000002 6.075407608695652  8.92875481386393 6.299592391304348  8.786264441591785 6.493885869565217  L 8.353016688061617 7.054347826086956  C 8.206675224646984 7.243659420289854  8.031450577663673 7.338315217391305  7.827342747111682 7.338315217391305  C 7.619383825417201 7.338315217391305  7.446084724005135 7.243659420289854  7.307445442875482 7.054347826086956  L 5.609114249037227 4.864809782608695  L 5.609114249037227 10.125679347826086  C 5.609114249037227 10.38473731884058  5.536906290115533 10.595221920289855  5.392490372272143 10.757133152173914  C 5.248074454428755 10.919044384057973  5.073812580231066 11  4.869704749679076 11  L 4.130295250320924 11  C 3.926187419768935 11  3.751925545571245 10.919044384057973  3.607509627727856 10.757133152173914  C 3.4630937098844674 10.595221920289855  3.390885750962773 10.38473731884058  3.390885750962773 10.125679347826086  L 3.390885750962773 4.864809782608695  L 1.6925545571245186 7.054347826086956  C 1.5539152759948651 7.243659420289854  1.3806161745827985 7.338315217391305  1.1726572528883183 7.338315217391305  C 0.9646983311938382 7.338315217391305  0.7913992297817715 7.243659420289854  0.6527599486521181 7.054347826086956  L 0.21951219512195122 6.493885869565217  C 0.0731707317073171 6.304574275362318  0 6.080389492753623  0 5.821331521739131  C 0 5.557291666666666  0.0731707317073171 5.330615942028985  0.21951219512195122 5.141304347826087  L 3.9801026957638 0.27649456521739146  C 4.114890885750963 0.09216485507246341  4.2881899871630305 0  4.5 0  C 4.7079589216944795 0  4.883183568677793 0.09216485507246341  5.025673940949936 0.27649456521739146  L 8.786264441591785 5.141304347826087  Z " fill-rule="nonzero" fill="rgba(3, 149, 18, 1)" stroke="none" transform="matrix(1 0 0 1 1290 623 )" class="fill" />
    <path d="M 8.786264441591785 5.141304347826087  C 8.92875481386393 5.335597826086956  9.000000000000002 5.562273550724637  9 5.821331521739131  C 9.000000000000002 6.075407608695652  8.92875481386393 6.299592391304348  8.786264441591785 6.493885869565217  L 8.353016688061617 7.054347826086956  C 8.206675224646984 7.243659420289854  8.031450577663673 7.338315217391305  7.827342747111682 7.338315217391305  C 7.619383825417201 7.338315217391305  7.446084724005135 7.243659420289854  7.307445442875482 7.054347826086956  L 5.609114249037227 4.864809782608695  L 5.609114249037227 10.125679347826086  C 5.609114249037227 10.38473731884058  5.536906290115533 10.595221920289855  5.392490372272143 10.757133152173914  C 5.248074454428755 10.919044384057973  5.073812580231066 11  4.869704749679076 11  L 4.130295250320924 11  C 3.926187419768935 11  3.751925545571245 10.919044384057973  3.607509627727856 10.757133152173914  C 3.4630937098844674 10.595221920289855  3.390885750962773 10.38473731884058  3.390885750962773 10.125679347826086  L 3.390885750962773 4.864809782608695  L 1.6925545571245186 7.054347826086956  C 1.5539152759948651 7.243659420289854  1.3806161745827985 7.338315217391305  1.1726572528883183 7.338315217391305  C 0.9646983311938382 7.338315217391305  0.7913992297817715 7.243659420289854  0.6527599486521181 7.054347826086956  L 0.21951219512195122 6.493885869565217  C 0.0731707317073171 6.304574275362318  0 6.080389492753623  0 5.821331521739131  C 0 5.557291666666666  0.0731707317073171 5.330615942028985  0.21951219512195122 5.141304347826087  L 3.9801026957638 0.27649456521739146  C 4.114890885750963 0.09216485507246341  4.2881899871630305 0  4.5 0  C 4.7079589216944795 0  4.883183568677793 0.09216485507246341  5.025673940949936 0.27649456521739146  L 8.786264441591785 5.141304347826087  Z " stroke-width="0" stroke-dasharray="0" stroke="rgba(255, 255, 255, 0)" fill="none" transform="matrix(1 0 0 1 1290 623 )" class="stroke" mask="url(#Clip25)" />
  </g>
</svg>