<?xml version="1.0" encoding="utf-8"?>
<svg version="1.1" xmlns:xlink="http://www.w3.org/1999/xlink" width="47px" height="42px" xmlns="http://www.w3.org/2000/svg">
  <defs>
    <pattern id="BGPattern" patternUnits="userSpaceOnUse" alignment="0 0" imageRepeat="None" />
    <mask fill="white" id="Clip85">
      <path d="M 0 21  C 0 9.239999999999998  10.339999999999998 0  23.5 0  C 36.660000000000004 0  47 9.239999999999998  47 21  C 47 32.76  36.660000000000004 42  23.5 42  C 10.339999999999998 42  0 32.76  0 21  Z " fill-rule="evenodd" />
    </mask>
  </defs>
  <g transform="matrix(1 0 0 1 -89 -111 )">
    <path d="M 0 21  C 0 9.239999999999998  10.339999999999998 0  23.5 0  C 36.660000000000004 0  47 9.239999999999998  47 21  C 47 32.76  36.660000000000004 42  23.5 42  C 10.339999999999998 42  0 32.76  0 21  Z " fill-rule="nonzero" fill="rgba(255, 255, 255, 1)" stroke="none" transform="matrix(1 0 0 1 89 111 )" class="fill" />
    <path d="M 0 21  C 0 9.239999999999998  10.339999999999998 0  23.5 0  C 36.660000000000004 0  47 9.239999999999998  47 21  C 47 32.76  36.660000000000004 42  23.5 42  C 10.339999999999998 42  0 32.76  0 21  Z " stroke-width="2" stroke-dasharray="0" stroke="rgba(121, 121, 121, 1)" fill="none" transform="matrix(1 0 0 1 89 111 )" class="stroke" mask="url(#Clip85)" />
  </g>
</svg>