<?xml version="1.0" encoding="utf-8"?>
<svg version="1.1" xmlns:xlink="http://www.w3.org/1999/xlink" width="16px" height="13px" xmlns="http://www.w3.org/2000/svg">
  <defs>
    <pattern id="BGPattern" patternUnits="userSpaceOnUse" alignment="0 0" imageRepeat="None" />
    <mask fill="white" id="Clip78">
      <path d="M 13.3541791942273 7.137073863636364  C 13.482461415113251 7.186316287878787  13.546602525556224 7.275568181818181  13.546602525556224 7.404829545454545  L 13.546602525556224 10.34090909090909  C 13.546602525556224 11.073390151515152  13.275606333934657 11.699692234848486  12.733613950691522 12.21981534090909  C 12.191621567448387 12.739938446969697  11.538985768691122 13  10.775706554419724 13  L 2.7708959711365004 13  C 2.0076167568651035 13  1.3549809581078374 12.739938446969697  0.8129885748647023 12.21981534090909  C 0.2709961916215674 11.699692234848486  0 11.073390151515152  0 10.34090909090909  L 0 2.6590909090909096  C 0 1.9266098484848468  0.2709961916215674 1.3003077651515147  0.8129885748647023 0.7801846590909096  C 1.3549809581078374 0.26006155303030176  2.0076167568651035 0  2.7708959711365004 0  L 10.775706554419724 0  C 11.179795550210462 0  11.555021046301864 0.07694128787878718  11.901383042693926 0.23082386363636298  C 11.997594708358388 0.273910984848484  12.055321707757065 0.3446969696969694  12.074564040889959 0.4431818181818178  C 12.09380637402285 0.5478219696969694  12.064942874323512 0.637073863636363  11.987973541791943 0.7109375  L 11.51653638003608 1.1633522727272725  C 11.452395269593106 1.2249053030303019  11.378632992583684 1.255681818181818  11.295249549007817 1.255681818181818  C 11.276007215874925 1.255681818181818  11.247143716175586 1.2495265151515147  11.208659049909802 1.2372159090909096  C 11.061134495890961 1.2002840909090904  10.916816997394267 1.181818181818182  10.775706554419724 1.181818181818182  L 2.7708959711365004 1.181818181818182  C 2.3475646422128684 1.181818181818182  1.9851673682100626 1.3264678030303019  1.6837041491280818 1.6157670454545452  C 1.3822409300461016 1.9050662878787872  1.2315093205051113 2.2528409090909096  1.2315093205051113 2.6590909090909096  L 1.2315093205051113 10.34090909090909  C 1.2315093205051113 10.74715909090909  1.3822409300461016 11.09493371212121  1.6837041491280818 11.384232954545455  C 1.9851673682100626 11.673532196969697  2.3475646422128684 11.818181818181818  2.7708959711365004 11.818181818181818  L 10.775706554419724 11.818181818181818  C 11.199037883343355 11.818181818181818  11.561435157346162 11.673532196969697  11.862898376428141 11.384232954545455  C 12.164361595510124 11.09493371212121  12.315093205051113 10.74715909090909  12.315093205051113 10.34090909090909  L 12.315093205051113 7.995738636363636  C 12.315093205051113 7.915719696969697  12.34395670475045 7.848011363636364  12.401683704149129 7.792613636363636  L 13.017438364401684 7.201704545454545  C 13.08157947484466 7.140151515151515  13.155341751854081 7.109375  13.238725195429947 7.109375  C 13.27720986169573 7.109375  13.315694527961515 7.118607954545455  13.3541791942273 7.137073863636364  Z M 16 2.363636363636363  C 16 2.566761363636363  15.923030667468431 2.7421875  15.769092002405293 2.8899147727272725  L 7.9374624173181 10.405539772727273  C 7.783523752254962 10.553267045454545  7.600721587492485 10.627130681818182  7.389055923030668 10.627130681818182  C 7.177390258568852 10.627130681818182  6.994588093806374 10.553267045454545  6.840649428743236 10.405539772727273  L 2.703547805171377 6.4353693181818175  C 2.549609140108238 6.287642045454545  2.4726398075766687 6.11221590909091  2.4726398075766687 5.90909090909091  C 2.4726398075766687 5.705965909090908  2.549609140108238 5.530539772727272  2.703547805171377 5.3828125  L 3.761876127480457 4.3671875  C 3.9158147925435958 4.2194602272727275  4.098616957306073 4.14559659090909  4.31028262176789 4.14559659090909  C 4.521948286229706 4.14559659090909  4.704750450992183 4.2194602272727275  4.858689116055322 4.3671875  L 7.389055923030668 6.795454545454545  L 13.613950691521348 0.8217329545454548  C 13.767889356584487 0.6740056818181822  13.950691521346963 0.6001420454545452  14.16235718580878 0.6001420454545452  C 14.374022850270595 0.6001420454545452  14.556825015033073 0.6740056818181822  14.710763680096212 0.8217329545454548  L 15.769092002405293 1.8373579545454548  C 15.923030667468431 1.9850852272727275  16 2.160511363636363  16 2.363636363636363  Z " fill-rule="evenodd" />
    </mask>
  </defs>
  <g transform="matrix(1 0 0 1 -93 -486 )">
    <path d="M 13.3541791942273 7.137073863636364  C 13.482461415113251 7.186316287878787  13.546602525556224 7.275568181818181  13.546602525556224 7.404829545454545  L 13.546602525556224 10.34090909090909  C 13.546602525556224 11.073390151515152  13.275606333934657 11.699692234848486  12.733613950691522 12.21981534090909  C 12.191621567448387 12.739938446969697  11.538985768691122 13  10.775706554419724 13  L 2.7708959711365004 13  C 2.0076167568651035 13  1.3549809581078374 12.739938446969697  0.8129885748647023 12.21981534090909  C 0.2709961916215674 11.699692234848486  0 11.073390151515152  0 10.34090909090909  L 0 2.6590909090909096  C 0 1.9266098484848468  0.2709961916215674 1.3003077651515147  0.8129885748647023 0.7801846590909096  C 1.3549809581078374 0.26006155303030176  2.0076167568651035 0  2.7708959711365004 0  L 10.775706554419724 0  C 11.179795550210462 0  11.555021046301864 0.07694128787878718  11.901383042693926 0.23082386363636298  C 11.997594708358388 0.273910984848484  12.055321707757065 0.3446969696969694  12.074564040889959 0.4431818181818178  C 12.09380637402285 0.5478219696969694  12.064942874323512 0.637073863636363  11.987973541791943 0.7109375  L 11.51653638003608 1.1633522727272725  C 11.452395269593106 1.2249053030303019  11.378632992583684 1.255681818181818  11.295249549007817 1.255681818181818  C 11.276007215874925 1.255681818181818  11.247143716175586 1.2495265151515147  11.208659049909802 1.2372159090909096  C 11.061134495890961 1.2002840909090904  10.916816997394267 1.181818181818182  10.775706554419724 1.181818181818182  L 2.7708959711365004 1.181818181818182  C 2.3475646422128684 1.181818181818182  1.9851673682100626 1.3264678030303019  1.6837041491280818 1.6157670454545452  C 1.3822409300461016 1.9050662878787872  1.2315093205051113 2.2528409090909096  1.2315093205051113 2.6590909090909096  L 1.2315093205051113 10.34090909090909  C 1.2315093205051113 10.74715909090909  1.3822409300461016 11.09493371212121  1.6837041491280818 11.384232954545455  C 1.9851673682100626 11.673532196969697  2.3475646422128684 11.818181818181818  2.7708959711365004 11.818181818181818  L 10.775706554419724 11.818181818181818  C 11.199037883343355 11.818181818181818  11.561435157346162 11.673532196969697  11.862898376428141 11.384232954545455  C 12.164361595510124 11.09493371212121  12.315093205051113 10.74715909090909  12.315093205051113 10.34090909090909  L 12.315093205051113 7.995738636363636  C 12.315093205051113 7.915719696969697  12.34395670475045 7.848011363636364  12.401683704149129 7.792613636363636  L 13.017438364401684 7.201704545454545  C 13.08157947484466 7.140151515151515  13.155341751854081 7.109375  13.238725195429947 7.109375  C 13.27720986169573 7.109375  13.315694527961515 7.118607954545455  13.3541791942273 7.137073863636364  Z M 16 2.363636363636363  C 16 2.566761363636363  15.923030667468431 2.7421875  15.769092002405293 2.8899147727272725  L 7.9374624173181 10.405539772727273  C 7.783523752254962 10.553267045454545  7.600721587492485 10.627130681818182  7.389055923030668 10.627130681818182  C 7.177390258568852 10.627130681818182  6.994588093806374 10.553267045454545  6.840649428743236 10.405539772727273  L 2.703547805171377 6.4353693181818175  C 2.549609140108238 6.287642045454545  2.4726398075766687 6.11221590909091  2.4726398075766687 5.90909090909091  C 2.4726398075766687 5.705965909090908  2.549609140108238 5.530539772727272  2.703547805171377 5.3828125  L 3.761876127480457 4.3671875  C 3.9158147925435958 4.2194602272727275  4.098616957306073 4.14559659090909  4.31028262176789 4.14559659090909  C 4.521948286229706 4.14559659090909  4.704750450992183 4.2194602272727275  4.858689116055322 4.3671875  L 7.389055923030668 6.795454545454545  L 13.613950691521348 0.8217329545454548  C 13.767889356584487 0.6740056818181822  13.950691521346963 0.6001420454545452  14.16235718580878 0.6001420454545452  C 14.374022850270595 0.6001420454545452  14.556825015033073 0.6740056818181822  14.710763680096212 0.8217329545454548  L 15.769092002405293 1.8373579545454548  C 15.923030667468431 1.9850852272727275  16 2.160511363636363  16 2.363636363636363  Z " fill-rule="nonzero" fill="rgba(2, 167, 240, 1)" stroke="none" transform="matrix(1 0 0 1 93 486 )" class="fill" />
    <path d="M 13.3541791942273 7.137073863636364  C 13.482461415113251 7.186316287878787  13.546602525556224 7.275568181818181  13.546602525556224 7.404829545454545  L 13.546602525556224 10.34090909090909  C 13.546602525556224 11.073390151515152  13.275606333934657 11.699692234848486  12.733613950691522 12.21981534090909  C 12.191621567448387 12.739938446969697  11.538985768691122 13  10.775706554419724 13  L 2.7708959711365004 13  C 2.0076167568651035 13  1.3549809581078374 12.739938446969697  0.8129885748647023 12.21981534090909  C 0.2709961916215674 11.699692234848486  0 11.073390151515152  0 10.34090909090909  L 0 2.6590909090909096  C 0 1.9266098484848468  0.2709961916215674 1.3003077651515147  0.8129885748647023 0.7801846590909096  C 1.3549809581078374 0.26006155303030176  2.0076167568651035 0  2.7708959711365004 0  L 10.775706554419724 0  C 11.179795550210462 0  11.555021046301864 0.07694128787878718  11.901383042693926 0.23082386363636298  C 11.997594708358388 0.273910984848484  12.055321707757065 0.3446969696969694  12.074564040889959 0.4431818181818178  C 12.09380637402285 0.5478219696969694  12.064942874323512 0.637073863636363  11.987973541791943 0.7109375  L 11.51653638003608 1.1633522727272725  C 11.452395269593106 1.2249053030303019  11.378632992583684 1.255681818181818  11.295249549007817 1.255681818181818  C 11.276007215874925 1.255681818181818  11.247143716175586 1.2495265151515147  11.208659049909802 1.2372159090909096  C 11.061134495890961 1.2002840909090904  10.916816997394267 1.181818181818182  10.775706554419724 1.181818181818182  L 2.7708959711365004 1.181818181818182  C 2.3475646422128684 1.181818181818182  1.9851673682100626 1.3264678030303019  1.6837041491280818 1.6157670454545452  C 1.3822409300461016 1.9050662878787872  1.2315093205051113 2.2528409090909096  1.2315093205051113 2.6590909090909096  L 1.2315093205051113 10.34090909090909  C 1.2315093205051113 10.74715909090909  1.3822409300461016 11.09493371212121  1.6837041491280818 11.384232954545455  C 1.9851673682100626 11.673532196969697  2.3475646422128684 11.818181818181818  2.7708959711365004 11.818181818181818  L 10.775706554419724 11.818181818181818  C 11.199037883343355 11.818181818181818  11.561435157346162 11.673532196969697  11.862898376428141 11.384232954545455  C 12.164361595510124 11.09493371212121  12.315093205051113 10.74715909090909  12.315093205051113 10.34090909090909  L 12.315093205051113 7.995738636363636  C 12.315093205051113 7.915719696969697  12.34395670475045 7.848011363636364  12.401683704149129 7.792613636363636  L 13.017438364401684 7.201704545454545  C 13.08157947484466 7.140151515151515  13.155341751854081 7.109375  13.238725195429947 7.109375  C 13.27720986169573 7.109375  13.315694527961515 7.118607954545455  13.3541791942273 7.137073863636364  Z " stroke-width="0" stroke-dasharray="0" stroke="rgba(255, 255, 255, 0)" fill="none" transform="matrix(1 0 0 1 93 486 )" class="stroke" mask="url(#Clip78)" />
    <path d="M 16 2.363636363636363  C 16 2.566761363636363  15.923030667468431 2.7421875  15.769092002405293 2.8899147727272725  L 7.9374624173181 10.405539772727273  C 7.783523752254962 10.553267045454545  7.600721587492485 10.627130681818182  7.389055923030668 10.627130681818182  C 7.177390258568852 10.627130681818182  6.994588093806374 10.553267045454545  6.840649428743236 10.405539772727273  L 2.703547805171377 6.4353693181818175  C 2.549609140108238 6.287642045454545  2.4726398075766687 6.11221590909091  2.4726398075766687 5.90909090909091  C 2.4726398075766687 5.705965909090908  2.549609140108238 5.530539772727272  2.703547805171377 5.3828125  L 3.761876127480457 4.3671875  C 3.9158147925435958 4.2194602272727275  4.098616957306073 4.14559659090909  4.31028262176789 4.14559659090909  C 4.521948286229706 4.14559659090909  4.704750450992183 4.2194602272727275  4.858689116055322 4.3671875  L 7.389055923030668 6.795454545454545  L 13.613950691521348 0.8217329545454548  C 13.767889356584487 0.6740056818181822  13.950691521346963 0.6001420454545452  14.16235718580878 0.6001420454545452  C 14.374022850270595 0.6001420454545452  14.556825015033073 0.6740056818181822  14.710763680096212 0.8217329545454548  L 15.769092002405293 1.8373579545454548  C 15.923030667468431 1.9850852272727275  16 2.160511363636363  16 2.363636363636363  Z " stroke-width="0" stroke-dasharray="0" stroke="rgba(255, 255, 255, 0)" fill="none" transform="matrix(1 0 0 1 93 486 )" class="stroke" mask="url(#Clip78)" />
  </g>
</svg>