<?xml version="1.0" encoding="utf-8"?>
<svg version="1.1" xmlns:xlink="http://www.w3.org/1999/xlink" width="13px" height="13px" viewBox="1168 1024 13 13" xmlns="http://www.w3.org/2000/svg">
  <path d="M 1174.5 1024  C 1178.14 1024  1181 1026.86  1181 1030.5  C 1181 1034.14  1178.14 1037  1174.5 1037  C 1170.86 1037  1168 1034.14  1168 1030.5  C 1168 1026.86  1170.86 1024  1174.5 1024  Z " fill-rule="nonzero" fill="rgba(240, 240, 240, 1)" stroke="none" class="fill" />
  <path d="M 1174.5 1024.5  C 1177.86 1024.5  1180.5 1027.14  1180.5 1030.5  C 1180.5 1033.86  1177.86 1036.5  1174.5 1036.5  C 1171.14 1036.5  1168.5 1033.86  1168.5 1030.5  C 1168.5 1027.14  1171.14 1024.5  1174.5 1024.5  Z " stroke-width="1" stroke-dasharray="0" stroke="rgba(121, 121, 121, 1)" fill="none" class="stroke" stroke-dashoffset="0.5" />
  <path d="M 1174.5 1033.75  C 1172.68 1033.75  1171.25 1032.32  1171.25 1030.5  C 1171.25 1028.68  1172.68 1027.25  1174.5 1027.25  C 1176.32 1027.25  1177.75 1028.68  1177.75 1030.5  C 1177.75 1032.32  1176.32 1033.75  1174.5 1033.75  " fill-rule="nonzero" fill="rgba(121, 121, 121, 1)" stroke="none" class="stroke btn_check" />
</svg>