<?xml version="1.0" encoding="utf-8"?>
<svg version="1.1" xmlns:xlink="http://www.w3.org/1999/xlink" width="13px" height="13px" viewBox="1243 1024 13 13" xmlns="http://www.w3.org/2000/svg">
  <path d="M 1249.5 1024  C 1253.14 1024  1256 1026.86  1256 1030.5  C 1256 1034.14  1253.14 1037  1249.5 1037  C 1245.86 1037  1243 1034.14  1243 1030.5  C 1243 1026.86  1245.86 1024  1249.5 1024  Z " fill-rule="nonzero" fill="rgba(240, 240, 240, 1)" stroke="none" class="fill" />
  <path d="M 1249.5 1024.5  C 1252.86 1024.5  1255.5 1027.14  1255.5 1030.5  C 1255.5 1033.86  1252.86 1036.5  1249.5 1036.5  C 1246.14 1036.5  1243.5 1033.86  1243.5 1030.5  C 1243.5 1027.14  1246.14 1024.5  1249.5 1024.5  Z " stroke-width="1" stroke-dasharray="0" stroke="rgba(121, 121, 121, 1)" fill="none" class="stroke" stroke-dashoffset="0.5" />
  <path d="M 1249.5 1033.75  C 1247.68 1033.75  1246.25 1032.32  1246.25 1030.5  C 1246.25 1028.68  1247.68 1027.25  1249.5 1027.25  C 1251.32 1027.25  1252.75 1028.68  1252.75 1030.5  C 1252.75 1032.32  1251.32 1033.75  1249.5 1033.75  " fill-rule="nonzero" fill="rgba(121, 121, 121, 1)" stroke="none" class="stroke btn_check" />
</svg>