<?xml version="1.0" encoding="utf-8"?>
<svg version="1.1" xmlns:xlink="http://www.w3.org/1999/xlink" width="13px" height="13px" viewBox="2056 1527 13 13" xmlns="http://www.w3.org/2000/svg">
  <path d="M 2062.5 1527  C 2066.14 1527  2069 1529.86  2069 1533.5  C 2069 1537.14  2066.14 1540  2062.5 1540  C 2058.86 1540  2056 1537.14  2056 1533.5  C 2056 1529.86  2058.86 1527  2062.5 1527  Z " fill-rule="nonzero" fill="rgba(240, 240, 240, 1)" stroke="none" class="fill" />
  <path d="M 2062.5 1527.5  C 2065.86 1527.5  2068.5 1530.14  2068.5 1533.5  C 2068.5 1536.86  2065.86 1539.5  2062.5 1539.5  C 2059.14 1539.5  2056.5 1536.86  2056.5 1533.5  C 2056.5 1530.14  2059.14 1527.5  2062.5 1527.5  Z " stroke-width="1" stroke-dasharray="0" stroke="rgba(121, 121, 121, 1)" fill="none" class="stroke" stroke-dashoffset="0.5" />
  <path d="M 2062.5 1536.75  C 2060.68 1536.75  2059.25 1535.32  2059.25 1533.5  C 2059.25 1531.68  2060.68 1530.25  2062.5 1530.25  C 2064.32 1530.25  2065.75 1531.68  2065.75 1533.5  C 2065.75 1535.32  2064.32 1536.75  2062.5 1536.75  " fill-rule="nonzero" fill="rgba(121, 121, 121, 1)" stroke="none" class="stroke btn_check" />
</svg>