<?xml version="1.0" encoding="utf-8"?>
<svg version="1.1" xmlns:xlink="http://www.w3.org/1999/xlink" width="24px" height="23px" xmlns="http://www.w3.org/2000/svg">
  <defs>
    <pattern id="BGPattern" patternUnits="userSpaceOnUse" alignment="0 0" imageRepeat="None" />
    <mask fill="white" id="Clip245">
      <path d="M 23.759519038076153 10.571428571428571  C 23.919839679358716 10.73015873015873  24 10.912698412698411  24 11.119047619047619  C 24 11.325396825396826  23.919839679358716 11.507936507936508  23.759519038076153 11.666666666666668  L 12.553106212424849 22.761904761904763  C 12.392785571142285 22.92063492063492  12.208416833667336 23  12 23  C 11.791583166332668 23  11.607214428857716 22.92063492063492  11.44689378757515 22.761904761904763  L 0.24048096192384769 11.666666666666668  C 0.0801603206412828 11.507936507936508  0 11.325396825396826  0 11.119047619047619  C 0 10.912698412698411  0.0801603206412828 10.73015873015873  0.24048096192384769 10.571428571428571  L 1.442885771543086 9.38095238095238  C 1.6032064128256518 9.22222222222222  1.7875751503006014 9.142857142857142  1.9959919839679359 9.142857142857142  C 2.204408817635271 9.142857142857142  2.3887775551102206 9.22222222222222  2.5490981963927855 9.38095238095238  L 12 18.738095238095237  L 21.450901803607216 9.38095238095238  C 21.61122244488978 9.22222222222222  21.79559118236473 9.142857142857142  22.004008016032063 9.142857142857142  C 22.212424849699403 9.142857142857142  22.39679358717435 9.22222222222222  22.557114228456914 9.38095238095238  L 23.759519038076153 10.571428571428571  Z M 23.759519038076153 1.4285714285714288  C 23.919839679358716 1.5873015873015839  24 1.7698412698412682  24 1.976190476190477  C 24 2.182539682539678  23.919839679358716 2.3650793650793625  23.759519038076153 2.523809523809523  L 12.553106212424849 13.619047619047617  C 12.392785571142285 13.777777777777779  12.208416833667336 13.857142857142858  12 13.857142857142858  C 11.791583166332668 13.857142857142858  11.607214428857716 13.777777777777779  11.44689378757515 13.619047619047617  L 0.24048096192384769 2.523809523809523  C 0.0801603206412828 2.3650793650793625  0 2.182539682539678  0 1.976190476190477  C 0 1.7698412698412682  0.0801603206412828 1.5873015873015839  0.24048096192384769 1.4285714285714288  L 1.442885771543086 0.2380952380952377  C 1.6032064128256518 0.07936507936507753  1.7875751503006014 0  1.9959919839679359 0  C 2.204408817635271 0  2.3887775551102206 0.07936507936507753  2.5490981963927855 0.2380952380952377  L 12 9.595238095238097  L 21.450901803607216 0.2380952380952377  C 21.61122244488978 0.07936507936507753  21.79559118236473 0  22.004008016032063 0  C 22.212424849699403 0  22.39679358717435 0.07936507936507753  22.557114228456914 0.2380952380952377  L 23.759519038076153 1.4285714285714288  Z " fill-rule="evenodd" />
    </mask>
  </defs>
  <g transform="matrix(1 0 0 1 -2092 -1284 )">
    <path d="M 23.759519038076153 10.571428571428571  C 23.919839679358716 10.73015873015873  24 10.912698412698411  24 11.119047619047619  C 24 11.325396825396826  23.919839679358716 11.507936507936508  23.759519038076153 11.666666666666668  L 12.553106212424849 22.761904761904763  C 12.392785571142285 22.92063492063492  12.208416833667336 23  12 23  C 11.791583166332668 23  11.607214428857716 22.92063492063492  11.44689378757515 22.761904761904763  L 0.24048096192384769 11.666666666666668  C 0.0801603206412828 11.507936507936508  0 11.325396825396826  0 11.119047619047619  C 0 10.912698412698411  0.0801603206412828 10.73015873015873  0.24048096192384769 10.571428571428571  L 1.442885771543086 9.38095238095238  C 1.6032064128256518 9.22222222222222  1.7875751503006014 9.142857142857142  1.9959919839679359 9.142857142857142  C 2.204408817635271 9.142857142857142  2.3887775551102206 9.22222222222222  2.5490981963927855 9.38095238095238  L 12 18.738095238095237  L 21.450901803607216 9.38095238095238  C 21.61122244488978 9.22222222222222  21.79559118236473 9.142857142857142  22.004008016032063 9.142857142857142  C 22.212424849699403 9.142857142857142  22.39679358717435 9.22222222222222  22.557114228456914 9.38095238095238  L 23.759519038076153 10.571428571428571  Z M 23.759519038076153 1.4285714285714288  C 23.919839679358716 1.5873015873015839  24 1.7698412698412682  24 1.976190476190477  C 24 2.182539682539678  23.919839679358716 2.3650793650793625  23.759519038076153 2.523809523809523  L 12.553106212424849 13.619047619047617  C 12.392785571142285 13.777777777777779  12.208416833667336 13.857142857142858  12 13.857142857142858  C 11.791583166332668 13.857142857142858  11.607214428857716 13.777777777777779  11.44689378757515 13.619047619047617  L 0.24048096192384769 2.523809523809523  C 0.0801603206412828 2.3650793650793625  0 2.182539682539678  0 1.976190476190477  C 0 1.7698412698412682  0.0801603206412828 1.5873015873015839  0.24048096192384769 1.4285714285714288  L 1.442885771543086 0.2380952380952377  C 1.6032064128256518 0.07936507936507753  1.7875751503006014 0  1.9959919839679359 0  C 2.204408817635271 0  2.3887775551102206 0.07936507936507753  2.5490981963927855 0.2380952380952377  L 12 9.595238095238097  L 21.450901803607216 0.2380952380952377  C 21.61122244488978 0.07936507936507753  21.79559118236473 0  22.004008016032063 0  C 22.212424849699403 0  22.39679358717435 0.07936507936507753  22.557114228456914 0.2380952380952377  L 23.759519038076153 1.4285714285714288  Z " fill-rule="nonzero" fill="rgba(217, 0, 27, 1)" stroke="none" transform="matrix(1 0 0 1 2092 1284 )" class="fill" />
    <path d="M 23.759519038076153 10.571428571428571  C 23.919839679358716 10.73015873015873  24 10.912698412698411  24 11.119047619047619  C 24 11.325396825396826  23.919839679358716 11.507936507936508  23.759519038076153 11.666666666666668  L 12.553106212424849 22.761904761904763  C 12.392785571142285 22.92063492063492  12.208416833667336 23  12 23  C 11.791583166332668 23  11.607214428857716 22.92063492063492  11.44689378757515 22.761904761904763  L 0.24048096192384769 11.666666666666668  C 0.0801603206412828 11.507936507936508  0 11.325396825396826  0 11.119047619047619  C 0 10.912698412698411  0.0801603206412828 10.73015873015873  0.24048096192384769 10.571428571428571  L 1.442885771543086 9.38095238095238  C 1.6032064128256518 9.22222222222222  1.7875751503006014 9.142857142857142  1.9959919839679359 9.142857142857142  C 2.204408817635271 9.142857142857142  2.3887775551102206 9.22222222222222  2.5490981963927855 9.38095238095238  L 12 18.738095238095237  L 21.450901803607216 9.38095238095238  C 21.61122244488978 9.22222222222222  21.79559118236473 9.142857142857142  22.004008016032063 9.142857142857142  C 22.212424849699403 9.142857142857142  22.39679358717435 9.22222222222222  22.557114228456914 9.38095238095238  L 23.759519038076153 10.571428571428571  Z " stroke-width="0" stroke-dasharray="0" stroke="rgba(255, 255, 255, 0)" fill="none" transform="matrix(1 0 0 1 2092 1284 )" class="stroke" mask="url(#Clip245)" />
    <path d="M 23.759519038076153 1.4285714285714288  C 23.919839679358716 1.5873015873015839  24 1.7698412698412682  24 1.976190476190477  C 24 2.182539682539678  23.919839679358716 2.3650793650793625  23.759519038076153 2.523809523809523  L 12.553106212424849 13.619047619047617  C 12.392785571142285 13.777777777777779  12.208416833667336 13.857142857142858  12 13.857142857142858  C 11.791583166332668 13.857142857142858  11.607214428857716 13.777777777777779  11.44689378757515 13.619047619047617  L 0.24048096192384769 2.523809523809523  C 0.0801603206412828 2.3650793650793625  0 2.182539682539678  0 1.976190476190477  C 0 1.7698412698412682  0.0801603206412828 1.5873015873015839  0.24048096192384769 1.4285714285714288  L 1.442885771543086 0.2380952380952377  C 1.6032064128256518 0.07936507936507753  1.7875751503006014 0  1.9959919839679359 0  C 2.204408817635271 0  2.3887775551102206 0.07936507936507753  2.5490981963927855 0.2380952380952377  L 12 9.595238095238097  L 21.450901803607216 0.2380952380952377  C 21.61122244488978 0.07936507936507753  21.79559118236473 0  22.004008016032063 0  C 22.212424849699403 0  22.39679358717435 0.07936507936507753  22.557114228456914 0.2380952380952377  L 23.759519038076153 1.4285714285714288  Z " stroke-width="0" stroke-dasharray="0" stroke="rgba(255, 255, 255, 0)" fill="none" transform="matrix(1 0 0 1 2092 1284 )" class="stroke" mask="url(#Clip245)" />
  </g>
</svg>