<?xml version="1.0" encoding="utf-8"?>
<svg version="1.1" xmlns:xlink="http://www.w3.org/1999/xlink" width="3307px" height="1361px" xmlns="http://www.w3.org/2000/svg">
  <defs>
    <pattern id="BGPattern" patternUnits="userSpaceOnUse" alignment="0 0" imageRepeat="None" />
    <mask fill="white" id="Clip323">
      <path d="M 0 1356  L 0 5  C 0 2.1999999999999997  2.2 0  5 0  L 3302 0  C 3304.8 0  3307 2.1999999999999997  3307 5  L 3307 1356  C 3307 1358.8  3304.8 1361  3302 1361  L 5 1361  C 2.2 1361  0 1358.8  0 1356  Z " fill-rule="evenodd" />
    </mask>
  </defs>
  <g transform="matrix(1 0 0 1 -125 -522 )">
    <path d="M 0 1356  L 0 5  C 0 2.1999999999999997  2.2 0  5 0  L 3302 0  C 3304.8 0  3307 2.1999999999999997  3307 5  L 3307 1356  C 3307 1358.8  3304.8 1361  3302 1361  L 5 1361  C 2.2 1361  0 1358.8  0 1356  Z " fill-rule="nonzero" fill="rgba(255, 255, 255, 0)" stroke="none" transform="matrix(1 0 0 1 125 522 )" class="fill" />
    <path d="M 0 1356  L 0 5  C 0 2.1999999999999997  2.2 0  5 0  L 3302 0  C 3304.8 0  3307 2.1999999999999997  3307 5  L 3307 1356  C 3307 1358.8  3304.8 1361  3302 1361  L 5 1361  C 2.2 1361  0 1358.8  0 1356  Z " stroke-width="2" stroke-dasharray="9,4" stroke="rgba(236, 128, 141, 1)" fill="none" transform="matrix(1 0 0 1 125 522 )" class="stroke" mask="url(#Clip323)" />
  </g>
</svg>