<?xml version="1.0" encoding="utf-8"?>
<svg version="1.1" xmlns:xlink="http://www.w3.org/1999/xlink" width="13px" height="13px" viewBox="2921 1491 13 13" xmlns="http://www.w3.org/2000/svg">
  <path d="M 2927.5 1491  C 2931.14 1491  2934 1493.86  2934 1497.5  C 2934 1501.14  2931.14 1504  2927.5 1504  C 2923.86 1504  2921 1501.14  2921 1497.5  C 2921 1493.86  2923.86 1491  2927.5 1491  Z " fill-rule="nonzero" fill="rgba(255, 255, 255, 1)" stroke="none" class="fill" />
  <path d="M 2927.5 1491.5  C 2930.86 1491.5  2933.5 1494.14  2933.5 1497.5  C 2933.5 1500.86  2930.86 1503.5  2927.5 1503.5  C 2924.14 1503.5  2921.5 1500.86  2921.5 1497.5  C 2921.5 1494.14  2924.14 1491.5  2927.5 1491.5  Z " stroke-width="1" stroke-dasharray="0" stroke="rgba(121, 121, 121, 1)" fill="none" class="stroke" stroke-dashoffset="0.5" />
  <path d="M 2927.5 1500.75  C 2925.68 1500.75  2924.25 1499.32  2924.25 1497.5  C 2924.25 1495.68  2925.68 1494.25  2927.5 1494.25  C 2929.32 1494.25  2930.75 1495.68  2930.75 1497.5  C 2930.75 1499.32  2929.32 1500.75  2927.5 1500.75  " fill-rule="nonzero" fill="rgba(121, 121, 121, 1)" stroke="none" class="stroke btn_check" />
</svg>