<?xml version="1.0" encoding="utf-8"?>
<svg version="1.1" xmlns:xlink="http://www.w3.org/1999/xlink" width="13px" height="13px" viewBox="2846 1527 13 13" xmlns="http://www.w3.org/2000/svg">
  <path d="M 2852.5 1527  C 2856.14 1527  2859 1529.86  2859 1533.5  C 2859 1537.14  2856.14 1540  2852.5 1540  C 2848.86 1540  2846 1537.14  2846 1533.5  C 2846 1529.86  2848.86 1527  2852.5 1527  Z " fill-rule="nonzero" fill="rgba(240, 240, 240, 1)" stroke="none" class="fill" />
  <path d="M 2852.5 1527.5  C 2855.86 1527.5  2858.5 1530.14  2858.5 1533.5  C 2858.5 1536.86  2855.86 1539.5  2852.5 1539.5  C 2849.14 1539.5  2846.5 1536.86  2846.5 1533.5  C 2846.5 1530.14  2849.14 1527.5  2852.5 1527.5  Z " stroke-width="1" stroke-dasharray="0" stroke="rgba(121, 121, 121, 1)" fill="none" class="stroke" stroke-dashoffset="0.5" />
  <path d="M 2852.5 1536.75  C 2850.68 1536.75  2849.25 1535.32  2849.25 1533.5  C 2849.25 1531.68  2850.68 1530.25  2852.5 1530.25  C 2854.32 1530.25  2855.75 1531.68  2855.75 1533.5  C 2855.75 1535.32  2854.32 1536.75  2852.5 1536.75  " fill-rule="nonzero" fill="rgba(121, 121, 121, 1)" stroke="none" class="stroke btn_check" />
</svg>