<?xml version="1.0" encoding="utf-8"?>
<svg version="1.1" xmlns:xlink="http://www.w3.org/1999/xlink" width="17px" height="17px" xmlns="http://www.w3.org/2000/svg">
  <defs>
    <linearGradient gradientUnits="userSpaceOnUse" x1="8" y1="0" x2="8" y2="16" id="LinearGradient217">
      <stop id="Stop218" stop-color="#ffffff" offset="0" />
      <stop id="Stop219" stop-color="#f2f2f2" offset="0" />
      <stop id="Stop220" stop-color="#e4e4e4" offset="1" />
      <stop id="Stop221" stop-color="#ffffff" offset="1" />
    </linearGradient>
    <pattern id="BGPattern" patternUnits="userSpaceOnUse" alignment="0 0" imageRepeat="None" />
    <mask fill="white" id="Clip222">
      <path d="M 8 0  C 12.480000000000008 0  16 3.5200000000000045  16 8  C 16 12.479999999999995  12.480000000000008 16  8 16  C 3.5199999999999934 16  0 12.480000000000008  0 8  C 0 3.5199999999999987  3.5199999999999934 0  8 0  Z " fill-rule="evenodd" />
    </mask>
  </defs>
  <g transform="matrix(1 0 0 1 -818 -622 )">
    <path d="M 8 0  C 12.480000000000008 0  16 3.5200000000000045  16 8  C 16 12.479999999999995  12.480000000000008 16  8 16  C 3.5199999999999934 16  0 12.480000000000008  0 8  C 0 3.5199999999999987  3.5199999999999934 0  8 0  Z " fill-rule="nonzero" fill="url(#LinearGradient217)" stroke="none" transform="matrix(1 0 0 1 818 622 )" class="fill" />
    <path d="M 8 0  C 12.480000000000008 0  16 3.5200000000000045  16 8  C 16 12.479999999999995  12.480000000000008 16  8 16  C 3.5199999999999934 16  0 12.480000000000008  0 8  C 0 3.5199999999999987  3.5199999999999934 0  8 0  Z " stroke-width="2" stroke-dasharray="0" stroke="rgba(121, 121, 121, 1)" fill="none" transform="matrix(1 0 0 1 818 622 )" class="stroke" mask="url(#Clip222)" />
    <path d="M 2.35658914728682 2.3152454780361778  L 13.65 13.65  M 2.35658914728682 13.65  L 13.65 2.3152454780361778  " stroke-width="1" stroke-dasharray="0" stroke="rgba(121, 121, 121, 1)" fill="none" transform="matrix(1 0 0 1 818 622 )" class="stroke" />
  </g>
</svg>