<?xml version="1.0" encoding="utf-8"?>
<svg version="1.1" xmlns:xlink="http://www.w3.org/1999/xlink" width="13px" height="13px" viewBox="530 988 13 13" xmlns="http://www.w3.org/2000/svg">
  <path d="M 536.5 988  C 540.14 988  543 990.86  543 994.5  C 543 998.14  540.14 1001  536.5 1001  C 532.86 1001  530 998.14  530 994.5  C 530 990.86  532.86 988  536.5 988  Z " fill-rule="nonzero" fill="rgba(255, 255, 255, 1)" stroke="none" class="fill" />
  <path d="M 536.5 988.5  C 539.86 988.5  542.5 991.14  542.5 994.5  C 542.5 997.86  539.86 1000.5  536.5 1000.5  C 533.14 1000.5  530.5 997.86  530.5 994.5  C 530.5 991.14  533.14 988.5  536.5 988.5  Z " stroke-width="1" stroke-dasharray="0" stroke="rgba(121, 121, 121, 1)" fill="none" class="stroke" stroke-dashoffset="0.5" />
  <path d="M 536.5 997.75  C 534.68 997.75  533.25 996.32  533.25 994.5  C 533.25 992.68  534.68 991.25  536.5 991.25  C 538.32 991.25  539.75 992.68  539.75 994.5  C 539.75 996.32  538.32 997.75  536.5 997.75  " fill-rule="nonzero" fill="rgba(121, 121, 121, 1)" stroke="none" class="stroke btn_check" />
</svg>