<?xml version="1.0" encoding="utf-8"?>
<svg version="1.1" xmlns:xlink="http://www.w3.org/1999/xlink" width="13px" height="13px" viewBox="1008 660 13 13" xmlns="http://www.w3.org/2000/svg">
  <path d="M 1014.5 660  C 1018.14 660  1021 662.86  1021 666.5  C 1021 670.14  1018.14 673  1014.5 673  C 1010.86 673  1008 670.14  1008 666.5  C 1008 662.86  1010.86 660  1014.5 660  Z " fill-rule="nonzero" fill="rgba(255, 255, 255, 1)" stroke="none" class="fill" />
  <path d="M 1014.5 660.5  C 1017.86 660.5  1020.5 663.14  1020.5 666.5  C 1020.5 669.86  1017.86 672.5  1014.5 672.5  C 1011.14 672.5  1008.5 669.86  1008.5 666.5  C 1008.5 663.14  1011.14 660.5  1014.5 660.5  Z " stroke-width="1" stroke-dasharray="0" stroke="rgba(121, 121, 121, 1)" fill="none" class="stroke" stroke-dashoffset="0.5" />
  <path d="M 1014.5 669.75  C 1012.68 669.75  1011.25 668.32  1011.25 666.5  C 1011.25 664.68  1012.68 663.25  1014.5 663.25  C 1016.32 663.25  1017.75 664.68  1017.75 666.5  C 1017.75 668.32  1016.32 669.75  1014.5 669.75  " fill-rule="nonzero" fill="rgba(121, 121, 121, 1)" stroke="none" class="stroke btn_check" />
</svg>