<?xml version="1.0" encoding="utf-8"?>
<svg version="1.1" xmlns:xlink="http://www.w3.org/1999/xlink" width="13px" height="13px" viewBox="2131 1491 13 13" xmlns="http://www.w3.org/2000/svg">
  <path d="M 2137.5 1491  C 2141.14 1491  2144 1493.86  2144 1497.5  C 2144 1501.14  2141.14 1504  2137.5 1504  C 2133.86 1504  2131 1501.14  2131 1497.5  C 2131 1493.86  2133.86 1491  2137.5 1491  Z " fill-rule="nonzero" fill="rgba(255, 255, 255, 1)" stroke="none" class="fill" />
  <path d="M 2137.5 1491.5  C 2140.86 1491.5  2143.5 1494.14  2143.5 1497.5  C 2143.5 1500.86  2140.86 1503.5  2137.5 1503.5  C 2134.14 1503.5  2131.5 1500.86  2131.5 1497.5  C 2131.5 1494.14  2134.14 1491.5  2137.5 1491.5  Z " stroke-width="1" stroke-dasharray="0" stroke="rgba(121, 121, 121, 1)" fill="none" class="stroke" stroke-dashoffset="0.5" />
  <path d="M 2137.5 1500.75  C 2135.68 1500.75  2134.25 1499.32  2134.25 1497.5  C 2134.25 1495.68  2135.68 1494.25  2137.5 1494.25  C 2139.32 1494.25  2140.75 1495.68  2140.75 1497.5  C 2140.75 1499.32  2139.32 1500.75  2137.5 1500.75  " fill-rule="nonzero" fill="rgba(121, 121, 121, 1)" stroke="none" class="stroke btn_check" />
</svg>