<?xml version="1.0" encoding="utf-8"?>
<svg version="1.1" xmlns:xlink="http://www.w3.org/1999/xlink" width="13px" height="13px" viewBox="2131 1527 13 13" xmlns="http://www.w3.org/2000/svg">
  <path d="M 2137.5 1527  C 2141.14 1527  2144 1529.86  2144 1533.5  C 2144 1537.14  2141.14 1540  2137.5 1540  C 2133.86 1540  2131 1537.14  2131 1533.5  C 2131 1529.86  2133.86 1527  2137.5 1527  Z " fill-rule="nonzero" fill="rgba(240, 240, 240, 1)" stroke="none" class="fill" />
  <path d="M 2137.5 1527.5  C 2140.86 1527.5  2143.5 1530.14  2143.5 1533.5  C 2143.5 1536.86  2140.86 1539.5  2137.5 1539.5  C 2134.14 1539.5  2131.5 1536.86  2131.5 1533.5  C 2131.5 1530.14  2134.14 1527.5  2137.5 1527.5  Z " stroke-width="1" stroke-dasharray="0" stroke="rgba(121, 121, 121, 1)" fill="none" class="stroke" stroke-dashoffset="0.5" />
  <path d="M 2137.5 1536.75  C 2135.68 1536.75  2134.25 1535.32  2134.25 1533.5  C 2134.25 1531.68  2135.68 1530.25  2137.5 1530.25  C 2139.32 1530.25  2140.75 1531.68  2140.75 1533.5  C 2140.75 1535.32  2139.32 1536.75  2137.5 1536.75  " fill-rule="nonzero" fill="rgba(121, 121, 121, 1)" stroke="none" class="stroke btn_check" />
</svg>