<?xml version="1.0" encoding="utf-8"?>
<svg version="1.1" xmlns:xlink="http://www.w3.org/1999/xlink" width="13px" height="13px" viewBox="2056 1491 13 13" xmlns="http://www.w3.org/2000/svg">
  <path d="M 2062.5 1491  C 2066.14 1491  2069 1493.86  2069 1497.5  C 2069 1501.14  2066.14 1504  2062.5 1504  C 2058.86 1504  2056 1501.14  2056 1497.5  C 2056 1493.86  2058.86 1491  2062.5 1491  Z " fill-rule="nonzero" fill="rgba(240, 240, 240, 1)" stroke="none" class="fill" />
  <path d="M 2062.5 1491.5  C 2065.86 1491.5  2068.5 1494.14  2068.5 1497.5  C 2068.5 1500.86  2065.86 1503.5  2062.5 1503.5  C 2059.14 1503.5  2056.5 1500.86  2056.5 1497.5  C 2056.5 1494.14  2059.14 1491.5  2062.5 1491.5  Z " stroke-width="1" stroke-dasharray="0" stroke="rgba(121, 121, 121, 1)" fill="none" class="stroke" stroke-dashoffset="0.5" />
  <path d="M 2062.5 1500.75  C 2060.68 1500.75  2059.25 1499.32  2059.25 1497.5  C 2059.25 1495.68  2060.68 1494.25  2062.5 1494.25  C 2064.32 1494.25  2065.75 1495.68  2065.75 1497.5  C 2065.75 1499.32  2064.32 1500.75  2062.5 1500.75  " fill-rule="nonzero" fill="rgba(121, 121, 121, 1)" stroke="none" class="stroke btn_check" />
</svg>