<?xml version="1.0" encoding="utf-8"?>
<svg version="1.1" xmlns:xlink="http://www.w3.org/1999/xlink" width="13px" height="13px" viewBox="1866 648 13 13" xmlns="http://www.w3.org/2000/svg">
  <path d="M 1872.5 648  C 1876.14 648  1879 650.86  1879 654.5  C 1879 658.14  1876.14 661  1872.5 661  C 1868.86 661  1866 658.14  1866 654.5  C 1866 650.86  1868.86 648  1872.5 648  Z " fill-rule="nonzero" fill="rgba(240, 240, 240, 1)" stroke="none" class="fill" />
  <path d="M 1872.5 648.5  C 1875.86 648.5  1878.5 651.14  1878.5 654.5  C 1878.5 657.86  1875.86 660.5  1872.5 660.5  C 1869.14 660.5  1866.5 657.86  1866.5 654.5  C 1866.5 651.14  1869.14 648.5  1872.5 648.5  Z " stroke-width="1" stroke-dasharray="0" stroke="rgba(121, 121, 121, 1)" fill="none" class="stroke" stroke-dashoffset="0.5" />
  <path d="M 1872.5 657.75  C 1870.68 657.75  1869.25 656.32  1869.25 654.5  C 1869.25 652.68  1870.68 651.25  1872.5 651.25  C 1874.32 651.25  1875.75 652.68  1875.75 654.5  C 1875.75 656.32  1874.32 657.75  1872.5 657.75  " fill-rule="nonzero" fill="rgba(121, 121, 121, 1)" stroke="none" class="stroke btn_check" />
</svg>