<?xml version="1.0" encoding="utf-8"?>
<svg version="1.1" xmlns:xlink="http://www.w3.org/1999/xlink" width="13px" height="13px" viewBox="2846 1491 13 13" xmlns="http://www.w3.org/2000/svg">
  <path d="M 2852.5 1491  C 2856.14 1491  2859 1493.86  2859 1497.5  C 2859 1501.14  2856.14 1504  2852.5 1504  C 2848.86 1504  2846 1501.14  2846 1497.5  C 2846 1493.86  2848.86 1491  2852.5 1491  Z " fill-rule="nonzero" fill="rgba(240, 240, 240, 1)" stroke="none" class="fill" />
  <path d="M 2852.5 1491.5  C 2855.86 1491.5  2858.5 1494.14  2858.5 1497.5  C 2858.5 1500.86  2855.86 1503.5  2852.5 1503.5  C 2849.14 1503.5  2846.5 1500.86  2846.5 1497.5  C 2846.5 1494.14  2849.14 1491.5  2852.5 1491.5  Z " stroke-width="1" stroke-dasharray="0" stroke="rgba(121, 121, 121, 1)" fill="none" class="stroke" stroke-dashoffset="0.5" />
  <path d="M 2852.5 1500.75  C 2850.68 1500.75  2849.25 1499.32  2849.25 1497.5  C 2849.25 1495.68  2850.68 1494.25  2852.5 1494.25  C 2854.32 1494.25  2855.75 1495.68  2855.75 1497.5  C 2855.75 1499.32  2854.32 1500.75  2852.5 1500.75  " fill-rule="nonzero" fill="rgba(121, 121, 121, 1)" stroke="none" class="stroke btn_check" />
</svg>