<?xml version="1.0" encoding="utf-8"?>
<svg version="1.1" xmlns:xlink="http://www.w3.org/1999/xlink" width="13px" height="13px" viewBox="2921 1527 13 13" xmlns="http://www.w3.org/2000/svg">
  <path d="M 2927.5 1527  C 2931.14 1527  2934 1529.86  2934 1533.5  C 2934 1537.14  2931.14 1540  2927.5 1540  C 2923.86 1540  2921 1537.14  2921 1533.5  C 2921 1529.86  2923.86 1527  2927.5 1527  Z " fill-rule="nonzero" fill="rgba(240, 240, 240, 1)" stroke="none" class="fill" />
  <path d="M 2927.5 1527.5  C 2930.86 1527.5  2933.5 1530.14  2933.5 1533.5  C 2933.5 1536.86  2930.86 1539.5  2927.5 1539.5  C 2924.14 1539.5  2921.5 1536.86  2921.5 1533.5  C 2921.5 1530.14  2924.14 1527.5  2927.5 1527.5  Z " stroke-width="1" stroke-dasharray="0" stroke="rgba(121, 121, 121, 1)" fill="none" class="stroke" stroke-dashoffset="0.5" />
  <path d="M 2927.5 1536.75  C 2925.68 1536.75  2924.25 1535.32  2924.25 1533.5  C 2924.25 1531.68  2925.68 1530.25  2927.5 1530.25  C 2929.32 1530.25  2930.75 1531.68  2930.75 1533.5  C 2930.75 1535.32  2929.32 1536.75  2927.5 1536.75  " fill-rule="nonzero" fill="rgba(121, 121, 121, 1)" stroke="none" class="stroke btn_check" />
</svg>