<?xml version="1.0" encoding="utf-8"?>
<svg version="1.1" xmlns:xlink="http://www.w3.org/1999/xlink" width="23px" height="13px" xmlns="http://www.w3.org/2000/svg">
  <defs>
    <pattern id="BGPattern" patternUnits="userSpaceOnUse" alignment="0 0" imageRepeat="None" />
    <mask fill="white" id="Clip93">
      <path d="M 22.769539078156313 1.34020618556701  C 22.923179692718772 1.4891179839633408  23 1.660366552119128  23 1.8539518900343648  C 23 2.0475372279495976  22.923179692718772 2.2187857961053816  22.769539078156313 2.3676975945017187  L 12.03006012024048 12.776632302405497  C 11.876419505678024 12.92554410080183  11.699732798931198 13  11.5 13  C 11.300267201068806 13  11.12358049432198 12.92554410080183  10.969939879759519 12.776632302405497  L 0.23046092184368736 2.3676975945017187  C 0.07682030728122935 2.2187857961053816  0 2.0475372279495976  0 1.8539518900343648  C 0 1.660366552119128  0.07682030728122935 1.4891179839633408  0.23046092184368736 1.34020618556701  L 1.3827655310621243 0.22336769759450237  C 1.536406145624583 0.07445589919816553  1.7130928523714097 0  1.9128256513026052 0  C 2.1125584502338013 0  2.2892451569806282 0.07445589919816553  2.442885771543086 0.22336769759450237  L 11.5 9.00171821305842  L 20.557114228456914 0.22336769759450237  C 20.710754843019373 0.07445589919816553  20.8874415497662 0  21.087174348697395 0  C 21.286907147628593 0  21.46359385437542 0.07445589919816553  21.617234468937877 0.22336769759450237  L 22.769539078156313 1.34020618556701  Z " fill-rule="evenodd" />
    </mask>
  </defs>
  <g transform="matrix(1 0 0 1 -1455 -85 )">
    <path d="M 22.769539078156313 1.34020618556701  C 22.923179692718772 1.4891179839633408  23 1.660366552119128  23 1.8539518900343648  C 23 2.0475372279495976  22.923179692718772 2.2187857961053816  22.769539078156313 2.3676975945017187  L 12.03006012024048 12.776632302405497  C 11.876419505678024 12.92554410080183  11.699732798931198 13  11.5 13  C 11.300267201068806 13  11.12358049432198 12.92554410080183  10.969939879759519 12.776632302405497  L 0.23046092184368736 2.3676975945017187  C 0.07682030728122935 2.2187857961053816  0 2.0475372279495976  0 1.8539518900343648  C 0 1.660366552119128  0.07682030728122935 1.4891179839633408  0.23046092184368736 1.34020618556701  L 1.3827655310621243 0.22336769759450237  C 1.536406145624583 0.07445589919816553  1.7130928523714097 0  1.9128256513026052 0  C 2.1125584502338013 0  2.2892451569806282 0.07445589919816553  2.442885771543086 0.22336769759450237  L 11.5 9.00171821305842  L 20.557114228456914 0.22336769759450237  C 20.710754843019373 0.07445589919816553  20.8874415497662 0  21.087174348697395 0  C 21.286907147628593 0  21.46359385437542 0.07445589919816553  21.617234468937877 0.22336769759450237  L 22.769539078156313 1.34020618556701  Z " fill-rule="nonzero" fill="rgba(0, 0, 0, 1)" stroke="none" transform="matrix(1 0 0 1 1455 85 )" class="fill" />
    <path d="M 22.769539078156313 1.34020618556701  C 22.923179692718772 1.4891179839633408  23 1.660366552119128  23 1.8539518900343648  C 23 2.0475372279495976  22.923179692718772 2.2187857961053816  22.769539078156313 2.3676975945017187  L 12.03006012024048 12.776632302405497  C 11.876419505678024 12.92554410080183  11.699732798931198 13  11.5 13  C 11.300267201068806 13  11.12358049432198 12.92554410080183  10.969939879759519 12.776632302405497  L 0.23046092184368736 2.3676975945017187  C 0.07682030728122935 2.2187857961053816  0 2.0475372279495976  0 1.8539518900343648  C 0 1.660366552119128  0.07682030728122935 1.4891179839633408  0.23046092184368736 1.34020618556701  L 1.3827655310621243 0.22336769759450237  C 1.536406145624583 0.07445589919816553  1.7130928523714097 0  1.9128256513026052 0  C 2.1125584502338013 0  2.2892451569806282 0.07445589919816553  2.442885771543086 0.22336769759450237  L 11.5 9.00171821305842  L 20.557114228456914 0.22336769759450237  C 20.710754843019373 0.07445589919816553  20.8874415497662 0  21.087174348697395 0  C 21.286907147628593 0  21.46359385437542 0.07445589919816553  21.617234468937877 0.22336769759450237  L 22.769539078156313 1.34020618556701  Z " stroke-width="0" stroke-dasharray="0" stroke="rgba(255, 255, 255, 0)" fill="none" transform="matrix(1 0 0 1 1455 85 )" class="stroke" mask="url(#Clip93)" />
  </g>
</svg>