<?xml version="1.0" encoding="utf-8"?>
<svg version="1.1" xmlns:xlink="http://www.w3.org/1999/xlink" width="27px" height="15px" xmlns="http://www.w3.org/2000/svg">
  <defs>
    <pattern id="BGPattern" patternUnits="userSpaceOnUse" alignment="0 0" imageRepeat="None" />
    <mask fill="white" id="Clip73">
      <path d="M 0 15  L 0 0  L 27 0  L 27 15  L 0 15  Z " fill-rule="evenodd" />
    </mask>
  </defs>
  <g transform="matrix(1 0 0 1 -1868 -2336 )">
    <path d="M 0 15  L 0 0  L 27 0  L 27 15  L 0 15  Z " fill-rule="nonzero" fill="rgba(242, 242, 242, 1)" stroke="none" transform="matrix(1 0 0 1 1868 2336 )" class="fill" />
    <path d="M 0 15  L 0 0  L 27 0  L 27 15  L 0 15  Z " stroke-width="2" stroke-dasharray="0" stroke="rgba(121, 121, 121, 1)" fill="none" transform="matrix(1 0 0 1 1868 2336 )" class="stroke" mask="url(#Clip73)" />
    <path d="M 26.213258451490617 0.43707863806076885  L 0.7867415485093839 14.562921361939232  M 0.7867415485093839 0.43707863806076885  L 26.213258451490617 14.562921361939232  " stroke-width="1" stroke-dasharray="0" stroke="rgba(121, 121, 121, 1)" fill="none" transform="matrix(1 0 0 1 1868 2336 )" class="stroke" />
  </g>
</svg>