<?xml version="1.0" encoding="utf-8"?>
<svg version="1.1" xmlns:xlink="http://www.w3.org/1999/xlink" width="13px" height="13px" xmlns="http://www.w3.org/2000/svg">
  <defs>
    <pattern id="BGPattern" patternUnits="userSpaceOnUse" alignment="0 0" imageRepeat="None" />
    <mask fill="white" id="Clip50">
      <path d="M 7.371744791666666 8.878255208333332  C 7.422526041666666 8.929036458333332  7.447916666666666 8.99392361111111  7.447916666666666 9.072916666666668  L 7.447916666666666 10.427083333333334  C 7.447916666666666 10.50607638888889  7.422526041666666 10.570963541666666  7.371744791666666 10.621744791666666  C 7.320963541666666 10.672526041666666  7.256076388888888 10.697916666666666  7.177083333333334 10.697916666666666  L 5.822916666666667 10.697916666666666  C 5.743923611111112 10.697916666666666  5.679036458333333 10.672526041666666  5.628255208333333 10.621744791666666  C 5.577473958333333 10.570963541666666  5.552083333333333 10.50607638888889  5.552083333333333 10.427083333333334  L 5.552083333333333 9.072916666666668  C 5.552083333333333 8.99392361111111  5.577473958333333 8.929036458333332  5.628255208333333 8.878255208333332  C 5.679036458333333 8.827473958333332  5.743923611111112 8.802083333333332  5.822916666666667 8.802083333333332  L 7.177083333333334 8.802083333333332  C 7.256076388888888 8.802083333333332  7.320963541666666 8.827473958333332  7.371744791666666 8.878255208333332  Z M 8.687825520833334 3.0595703125  C 9.3056640625 3.5645616319444438  9.614583333333334 4.16970486111111  9.614583333333334 4.875  C 9.614583333333334 5.157118055555555  9.572265625 5.411024305555555  9.487630208333334 5.63671875  C 9.402994791666666 5.862413194444444  9.27463107638889 6.057074652777778  9.1025390625 6.220703125  C 8.93044704861111 6.384331597222221  8.783745659722223 6.508463541666668  8.662434895833334 6.593098958333332  C 8.541124131944445 6.677734375  8.37326388888889 6.779296875  8.158854166666666 6.897786458333332  C 7.978298611111112 6.999348958333332  7.847113715277779 7.0783420138888875  7.765299479166666 7.134765625  C 7.683485243055556 7.19118923611111  7.610134548611112 7.258897569444445  7.545247395833334 7.337890625  C 7.480360243055556 7.416883680555555  7.447916666666666 7.498697916666668  7.447916666666666 7.583333333333332  L 7.447916666666666 7.854166666666668  C 7.447916666666666 7.933159722222222  7.422526041666666 7.998046875  7.371744791666666 8.048828125  C 7.320963541666666 8.099609375  7.256076388888888 8.125  7.177083333333334 8.125  L 5.822916666666667 8.125  C 5.743923611111112 8.125  5.679036458333333 8.099609375  5.628255208333333 8.048828125  C 5.577473958333333 7.998046875  5.552083333333333 7.933159722222222  5.552083333333333 7.854166666666668  L 5.552083333333333 7.278645833333332  C 5.552083333333333 7.081163194444445  5.581705729166667 6.89919704861111  5.640950520833333 6.732747395833332  C 5.7001953125 6.566297743055555  5.767903645833333 6.432291666666666  5.844075520833333 6.330729166666666  C 5.920247395833333 6.229166666666666  6.0302734375 6.129014756944444  6.174153645833333 6.0302734375  C 6.318033854166667 5.931532118055555  6.433702256944445 5.859592013888888  6.521158854166666 5.814453125  C 6.60861545138889 5.769314236111112  6.734157986111112 5.710069444444444  6.897786458333334 5.63671875  C 7.196831597222222 5.495659722222221  7.408420138888888 5.374348958333334  7.532552083333334 5.272786458333334  C 7.656684027777779 5.171223958333334  7.718750000000002 5.032986111111112  7.71875 4.858072916666666  C 7.718750000000002 4.621093749999998  7.596028645833334 4.419379340277776  7.3505859375 4.2529296875  C 7.105143229166668 4.086480034722221  6.835720486111112 4.003255208333334  6.542317708333334 4.003255208333334  C 6.226345486111112 4.003255208333334  5.958333333333333 4.079427083333334  5.73828125 4.231770833333334  C 5.574652777777779 4.344618055555555  5.348958333333333 4.578776041666666  5.061197916666667 4.934244791666666  C 5.010416666666667 5.001953124999998  4.939887152777779 5.035807291666666  4.849609375 5.035807291666666  C 4.787543402777779 5.035807291666666  4.733940972222222 5.018880208333332  4.688802083333333 4.985026041666666  L 3.774739583333333 4.291015625  C 3.7183159722222223 4.251519097222221  3.684461805555556 4.19509548611111  3.673177083333333 4.121744791666666  C 3.661892361111112 4.048394097222221  3.6759982638888893 3.9835069444444438  3.715494791666667 3.927083333333334  C 4.403862847222222 2.84375  5.388454861111112 2.302083333333334  6.669270833333334 2.302083333333334  C 7.397135416666666 2.302083333333334  8.069986979166666 2.554578993055555  8.687825520833334 3.0595703125  Z M 8.603190104166666 1.514973958333334  C 7.9345703125 1.227213541666666  7.233506944444445 1.083333333333334  6.5 1.083333333333334  C 5.766493055555555 1.083333333333334  5.0654296875 1.227213541666666  4.396809895833333 1.514973958333334  C 3.728190104166667 1.802734375  3.1526692708333335 2.187825520833334  2.6702473958333335 2.670247395833334  C 2.1878255208333335 3.152669270833334  1.802734375 3.728190104166666  1.5149739583333333 4.396809895833334  C 1.2272135416666667 5.0654296875  1.0833333333333333 5.766493055555555  1.0833333333333333 6.5  C 1.0833333333333333 7.233506944444445  1.2272135416666667 7.9345703125  1.5149739583333333 8.603190104166668  C 1.802734375 9.271809895833332  2.1878255208333335 9.847330729166666  2.6702473958333335 10.329752604166666  C 3.1526692708333335 10.812174479166666  3.728190104166667 11.197265625  4.396809895833333 11.485026041666666  C 5.0654296875 11.772786458333334  5.766493055555555 11.916666666666666  6.5 11.916666666666666  C 7.233506944444445 11.916666666666666  7.9345703125 11.772786458333334  8.603190104166666 11.485026041666666  C 9.271809895833334 11.197265625  9.847330729166666 10.812174479166666  10.329752604166666 10.329752604166666  C 10.812174479166666 9.847330729166666  11.197265625 9.271809895833332  11.485026041666666 8.603190104166668  C 11.772786458333334 7.9345703125  11.916666666666666 7.233506944444445  11.916666666666666 6.5  C 11.916666666666666 5.766493055555555  11.772786458333334 5.0654296875  11.485026041666666 4.396809895833334  C 11.197265625 3.728190104166666  10.812174479166666 3.152669270833334  10.329752604166666 2.670247395833334  C 9.847330729166666 2.187825520833334  9.271809895833334 1.802734375  8.603190104166666 1.514973958333334  Z M 12.128255208333334 3.2373046875  C 12.709418402777777 4.23318142361111  13 5.320746527777776  13 6.5  C 13 7.679253472222222  12.709418402777777 8.766818576388888  12.128255208333334 9.7626953125  C 11.54709201388889 10.75857204861111  10.75857204861111 11.54709201388889  9.7626953125 12.128255208333334  C 8.76681857638889 12.709418402777779  7.679253472222222 13  6.5 13  C 5.320746527777779 13  4.233181423611112 12.709418402777779  3.2373046875 12.128255208333334  C 2.2414279513888893 11.54709201388889  1.4529079861111112 10.75857204861111  0.8717447916666667 9.7626953125  C 0.2905815972222222 8.766818576388888  0 7.679253472222222  0 6.5  C 0 5.320746527777776  0.2905815972222222 4.23318142361111  0.8717447916666667 3.2373046875  C 1.4529079861111112 2.241427951388889  2.2414279513888893 1.4529079861111098  3.2373046875 0.8717447916666662  C 4.233181423611112 0.2905815972222211  5.320746527777779 0  6.5 0  C 7.679253472222222 0  8.76681857638889 0.2905815972222211  9.7626953125 0.8717447916666662  C 10.75857204861111 1.4529079861111098  11.54709201388889 2.241427951388889  12.128255208333334 3.2373046875  Z " fill-rule="evenodd" />
    </mask>
  </defs>
  <g transform="matrix(1 0 0 1 -1264 -320 )">
    <path d="M 7.371744791666666 8.878255208333332  C 7.422526041666666 8.929036458333332  7.447916666666666 8.99392361111111  7.447916666666666 9.072916666666668  L 7.447916666666666 10.427083333333334  C 7.447916666666666 10.50607638888889  7.422526041666666 10.570963541666666  7.371744791666666 10.621744791666666  C 7.320963541666666 10.672526041666666  7.256076388888888 10.697916666666666  7.177083333333334 10.697916666666666  L 5.822916666666667 10.697916666666666  C 5.743923611111112 10.697916666666666  5.679036458333333 10.672526041666666  5.628255208333333 10.621744791666666  C 5.577473958333333 10.570963541666666  5.552083333333333 10.50607638888889  5.552083333333333 10.427083333333334  L 5.552083333333333 9.072916666666668  C 5.552083333333333 8.99392361111111  5.577473958333333 8.929036458333332  5.628255208333333 8.878255208333332  C 5.679036458333333 8.827473958333332  5.743923611111112 8.802083333333332  5.822916666666667 8.802083333333332  L 7.177083333333334 8.802083333333332  C 7.256076388888888 8.802083333333332  7.320963541666666 8.827473958333332  7.371744791666666 8.878255208333332  Z M 8.687825520833334 3.0595703125  C 9.3056640625 3.5645616319444438  9.614583333333334 4.16970486111111  9.614583333333334 4.875  C 9.614583333333334 5.157118055555555  9.572265625 5.411024305555555  9.487630208333334 5.63671875  C 9.402994791666666 5.862413194444444  9.27463107638889 6.057074652777778  9.1025390625 6.220703125  C 8.93044704861111 6.384331597222221  8.783745659722223 6.508463541666668  8.662434895833334 6.593098958333332  C 8.541124131944445 6.677734375  8.37326388888889 6.779296875  8.158854166666666 6.897786458333332  C 7.978298611111112 6.999348958333332  7.847113715277779 7.0783420138888875  7.765299479166666 7.134765625  C 7.683485243055556 7.19118923611111  7.610134548611112 7.258897569444445  7.545247395833334 7.337890625  C 7.480360243055556 7.416883680555555  7.447916666666666 7.498697916666668  7.447916666666666 7.583333333333332  L 7.447916666666666 7.854166666666668  C 7.447916666666666 7.933159722222222  7.422526041666666 7.998046875  7.371744791666666 8.048828125  C 7.320963541666666 8.099609375  7.256076388888888 8.125  7.177083333333334 8.125  L 5.822916666666667 8.125  C 5.743923611111112 8.125  5.679036458333333 8.099609375  5.628255208333333 8.048828125  C 5.577473958333333 7.998046875  5.552083333333333 7.933159722222222  5.552083333333333 7.854166666666668  L 5.552083333333333 7.278645833333332  C 5.552083333333333 7.081163194444445  5.581705729166667 6.89919704861111  5.640950520833333 6.732747395833332  C 5.7001953125 6.566297743055555  5.767903645833333 6.432291666666666  5.844075520833333 6.330729166666666  C 5.920247395833333 6.229166666666666  6.0302734375 6.129014756944444  6.174153645833333 6.0302734375  C 6.318033854166667 5.931532118055555  6.433702256944445 5.859592013888888  6.521158854166666 5.814453125  C 6.60861545138889 5.769314236111112  6.734157986111112 5.710069444444444  6.897786458333334 5.63671875  C 7.196831597222222 5.495659722222221  7.408420138888888 5.374348958333334  7.532552083333334 5.272786458333334  C 7.656684027777779 5.171223958333334  7.718750000000002 5.032986111111112  7.71875 4.858072916666666  C 7.718750000000002 4.621093749999998  7.596028645833334 4.419379340277776  7.3505859375 4.2529296875  C 7.105143229166668 4.086480034722221  6.835720486111112 4.003255208333334  6.542317708333334 4.003255208333334  C 6.226345486111112 4.003255208333334  5.958333333333333 4.079427083333334  5.73828125 4.231770833333334  C 5.574652777777779 4.344618055555555  5.348958333333333 4.578776041666666  5.061197916666667 4.934244791666666  C 5.010416666666667 5.001953124999998  4.939887152777779 5.035807291666666  4.849609375 5.035807291666666  C 4.787543402777779 5.035807291666666  4.733940972222222 5.018880208333332  4.688802083333333 4.985026041666666  L 3.774739583333333 4.291015625  C 3.7183159722222223 4.251519097222221  3.684461805555556 4.19509548611111  3.673177083333333 4.121744791666666  C 3.661892361111112 4.048394097222221  3.6759982638888893 3.9835069444444438  3.715494791666667 3.927083333333334  C 4.403862847222222 2.84375  5.388454861111112 2.302083333333334  6.669270833333334 2.302083333333334  C 7.397135416666666 2.302083333333334  8.069986979166666 2.554578993055555  8.687825520833334 3.0595703125  Z M 8.603190104166666 1.514973958333334  C 7.9345703125 1.227213541666666  7.233506944444445 1.083333333333334  6.5 1.083333333333334  C 5.766493055555555 1.083333333333334  5.0654296875 1.227213541666666  4.396809895833333 1.514973958333334  C 3.728190104166667 1.802734375  3.1526692708333335 2.187825520833334  2.6702473958333335 2.670247395833334  C 2.1878255208333335 3.152669270833334  1.802734375 3.728190104166666  1.5149739583333333 4.396809895833334  C 1.2272135416666667 5.0654296875  1.0833333333333333 5.766493055555555  1.0833333333333333 6.5  C 1.0833333333333333 7.233506944444445  1.2272135416666667 7.9345703125  1.5149739583333333 8.603190104166668  C 1.802734375 9.271809895833332  2.1878255208333335 9.847330729166666  2.6702473958333335 10.329752604166666  C 3.1526692708333335 10.812174479166666  3.728190104166667 11.197265625  4.396809895833333 11.485026041666666  C 5.0654296875 11.772786458333334  5.766493055555555 11.916666666666666  6.5 11.916666666666666  C 7.233506944444445 11.916666666666666  7.9345703125 11.772786458333334  8.603190104166666 11.485026041666666  C 9.271809895833334 11.197265625  9.847330729166666 10.812174479166666  10.329752604166666 10.329752604166666  C 10.812174479166666 9.847330729166666  11.197265625 9.271809895833332  11.485026041666666 8.603190104166668  C 11.772786458333334 7.9345703125  11.916666666666666 7.233506944444445  11.916666666666666 6.5  C 11.916666666666666 5.766493055555555  11.772786458333334 5.0654296875  11.485026041666666 4.396809895833334  C 11.197265625 3.728190104166666  10.812174479166666 3.152669270833334  10.329752604166666 2.670247395833334  C 9.847330729166666 2.187825520833334  9.271809895833334 1.802734375  8.603190104166666 1.514973958333334  Z M 12.128255208333334 3.2373046875  C 12.709418402777777 4.23318142361111  13 5.320746527777776  13 6.5  C 13 7.679253472222222  12.709418402777777 8.766818576388888  12.128255208333334 9.7626953125  C 11.54709201388889 10.75857204861111  10.75857204861111 11.54709201388889  9.7626953125 12.128255208333334  C 8.76681857638889 12.709418402777779  7.679253472222222 13  6.5 13  C 5.320746527777779 13  4.233181423611112 12.709418402777779  3.2373046875 12.128255208333334  C 2.2414279513888893 11.54709201388889  1.4529079861111112 10.75857204861111  0.8717447916666667 9.7626953125  C 0.2905815972222222 8.766818576388888  0 7.679253472222222  0 6.5  C 0 5.320746527777776  0.2905815972222222 4.23318142361111  0.8717447916666667 3.2373046875  C 1.4529079861111112 2.241427951388889  2.2414279513888893 1.4529079861111098  3.2373046875 0.8717447916666662  C 4.233181423611112 0.2905815972222211  5.320746527777779 0  6.5 0  C 7.679253472222222 0  8.76681857638889 0.2905815972222211  9.7626953125 0.8717447916666662  C 10.75857204861111 1.4529079861111098  11.54709201388889 2.241427951388889  12.128255208333334 3.2373046875  Z " fill-rule="nonzero" fill="rgba(217, 0, 27, 1)" stroke="none" transform="matrix(1 0 0 1 1264 320 )" class="fill" />
    <path d="M 7.371744791666666 8.878255208333332  C 7.422526041666666 8.929036458333332  7.447916666666666 8.99392361111111  7.447916666666666 9.072916666666668  L 7.447916666666666 10.427083333333334  C 7.447916666666666 10.50607638888889  7.422526041666666 10.570963541666666  7.371744791666666 10.621744791666666  C 7.320963541666666 10.672526041666666  7.256076388888888 10.697916666666666  7.177083333333334 10.697916666666666  L 5.822916666666667 10.697916666666666  C 5.743923611111112 10.697916666666666  5.679036458333333 10.672526041666666  5.628255208333333 10.621744791666666  C 5.577473958333333 10.570963541666666  5.552083333333333 10.50607638888889  5.552083333333333 10.427083333333334  L 5.552083333333333 9.072916666666668  C 5.552083333333333 8.99392361111111  5.577473958333333 8.929036458333332  5.628255208333333 8.878255208333332  C 5.679036458333333 8.827473958333332  5.743923611111112 8.802083333333332  5.822916666666667 8.802083333333332  L 7.177083333333334 8.802083333333332  C 7.256076388888888 8.802083333333332  7.320963541666666 8.827473958333332  7.371744791666666 8.878255208333332  Z " stroke-width="0" stroke-dasharray="0" stroke="rgba(255, 255, 255, 0)" fill="none" transform="matrix(1 0 0 1 1264 320 )" class="stroke" mask="url(#Clip50)" />
    <path d="M 8.687825520833334 3.0595703125  C 9.3056640625 3.5645616319444438  9.614583333333334 4.16970486111111  9.614583333333334 4.875  C 9.614583333333334 5.157118055555555  9.572265625 5.411024305555555  9.487630208333334 5.63671875  C 9.402994791666666 5.862413194444444  9.27463107638889 6.057074652777778  9.1025390625 6.220703125  C 8.93044704861111 6.384331597222221  8.783745659722223 6.508463541666668  8.662434895833334 6.593098958333332  C 8.541124131944445 6.677734375  8.37326388888889 6.779296875  8.158854166666666 6.897786458333332  C 7.978298611111112 6.999348958333332  7.847113715277779 7.0783420138888875  7.765299479166666 7.134765625  C 7.683485243055556 7.19118923611111  7.610134548611112 7.258897569444445  7.545247395833334 7.337890625  C 7.480360243055556 7.416883680555555  7.447916666666666 7.498697916666668  7.447916666666666 7.583333333333332  L 7.447916666666666 7.854166666666668  C 7.447916666666666 7.933159722222222  7.422526041666666 7.998046875  7.371744791666666 8.048828125  C 7.320963541666666 8.099609375  7.256076388888888 8.125  7.177083333333334 8.125  L 5.822916666666667 8.125  C 5.743923611111112 8.125  5.679036458333333 8.099609375  5.628255208333333 8.048828125  C 5.577473958333333 7.998046875  5.552083333333333 7.933159722222222  5.552083333333333 7.854166666666668  L 5.552083333333333 7.278645833333332  C 5.552083333333333 7.081163194444445  5.581705729166667 6.89919704861111  5.640950520833333 6.732747395833332  C 5.7001953125 6.566297743055555  5.767903645833333 6.432291666666666  5.844075520833333 6.330729166666666  C 5.920247395833333 6.229166666666666  6.0302734375 6.129014756944444  6.174153645833333 6.0302734375  C 6.318033854166667 5.931532118055555  6.433702256944445 5.859592013888888  6.521158854166666 5.814453125  C 6.60861545138889 5.769314236111112  6.734157986111112 5.710069444444444  6.897786458333334 5.63671875  C 7.196831597222222 5.495659722222221  7.408420138888888 5.374348958333334  7.532552083333334 5.272786458333334  C 7.656684027777779 5.171223958333334  7.718750000000002 5.032986111111112  7.71875 4.858072916666666  C 7.718750000000002 4.621093749999998  7.596028645833334 4.419379340277776  7.3505859375 4.2529296875  C 7.105143229166668 4.086480034722221  6.835720486111112 4.003255208333334  6.542317708333334 4.003255208333334  C 6.226345486111112 4.003255208333334  5.958333333333333 4.079427083333334  5.73828125 4.231770833333334  C 5.574652777777779 4.344618055555555  5.348958333333333 4.578776041666666  5.061197916666667 4.934244791666666  C 5.010416666666667 5.001953124999998  4.939887152777779 5.035807291666666  4.849609375 5.035807291666666  C 4.787543402777779 5.035807291666666  4.733940972222222 5.018880208333332  4.688802083333333 4.985026041666666  L 3.774739583333333 4.291015625  C 3.7183159722222223 4.251519097222221  3.684461805555556 4.19509548611111  3.673177083333333 4.121744791666666  C 3.661892361111112 4.048394097222221  3.6759982638888893 3.9835069444444438  3.715494791666667 3.927083333333334  C 4.403862847222222 2.84375  5.388454861111112 2.302083333333334  6.669270833333334 2.302083333333334  C 7.397135416666666 2.302083333333334  8.069986979166666 2.554578993055555  8.687825520833334 3.0595703125  Z " stroke-width="0" stroke-dasharray="0" stroke="rgba(255, 255, 255, 0)" fill="none" transform="matrix(1 0 0 1 1264 320 )" class="stroke" mask="url(#Clip50)" />
    <path d="M 8.603190104166666 1.514973958333334  C 7.9345703125 1.227213541666666  7.233506944444445 1.083333333333334  6.5 1.083333333333334  C 5.766493055555555 1.083333333333334  5.0654296875 1.227213541666666  4.396809895833333 1.514973958333334  C 3.728190104166667 1.802734375  3.1526692708333335 2.187825520833334  2.6702473958333335 2.670247395833334  C 2.1878255208333335 3.152669270833334  1.802734375 3.728190104166666  1.5149739583333333 4.396809895833334  C 1.2272135416666667 5.0654296875  1.0833333333333333 5.766493055555555  1.0833333333333333 6.5  C 1.0833333333333333 7.233506944444445  1.2272135416666667 7.9345703125  1.5149739583333333 8.603190104166668  C 1.802734375 9.271809895833332  2.1878255208333335 9.847330729166666  2.6702473958333335 10.329752604166666  C 3.1526692708333335 10.812174479166666  3.728190104166667 11.197265625  4.396809895833333 11.485026041666666  C 5.0654296875 11.772786458333334  5.766493055555555 11.916666666666666  6.5 11.916666666666666  C 7.233506944444445 11.916666666666666  7.9345703125 11.772786458333334  8.603190104166666 11.485026041666666  C 9.271809895833334 11.197265625  9.847330729166666 10.812174479166666  10.329752604166666 10.329752604166666  C 10.812174479166666 9.847330729166666  11.197265625 9.271809895833332  11.485026041666666 8.603190104166668  C 11.772786458333334 7.9345703125  11.916666666666666 7.233506944444445  11.916666666666666 6.5  C 11.916666666666666 5.766493055555555  11.772786458333334 5.0654296875  11.485026041666666 4.396809895833334  C 11.197265625 3.728190104166666  10.812174479166666 3.152669270833334  10.329752604166666 2.670247395833334  C 9.847330729166666 2.187825520833334  9.271809895833334 1.802734375  8.603190104166666 1.514973958333334  Z " stroke-width="0" stroke-dasharray="0" stroke="rgba(255, 255, 255, 0)" fill="none" transform="matrix(1 0 0 1 1264 320 )" class="stroke" mask="url(#Clip50)" />
    <path d="M 12.128255208333334 3.2373046875  C 12.709418402777777 4.23318142361111  13 5.320746527777776  13 6.5  C 13 7.679253472222222  12.709418402777777 8.766818576388888  12.128255208333334 9.7626953125  C 11.54709201388889 10.75857204861111  10.75857204861111 11.54709201388889  9.7626953125 12.128255208333334  C 8.76681857638889 12.709418402777779  7.679253472222222 13  6.5 13  C 5.320746527777779 13  4.233181423611112 12.709418402777779  3.2373046875 12.128255208333334  C 2.2414279513888893 11.54709201388889  1.4529079861111112 10.75857204861111  0.8717447916666667 9.7626953125  C 0.2905815972222222 8.766818576388888  0 7.679253472222222  0 6.5  C 0 5.320746527777776  0.2905815972222222 4.23318142361111  0.8717447916666667 3.2373046875  C 1.4529079861111112 2.241427951388889  2.2414279513888893 1.4529079861111098  3.2373046875 0.8717447916666662  C 4.233181423611112 0.2905815972222211  5.320746527777779 0  6.5 0  C 7.679253472222222 0  8.76681857638889 0.2905815972222211  9.7626953125 0.8717447916666662  C 10.75857204861111 1.4529079861111098  11.54709201388889 2.241427951388889  12.128255208333334 3.2373046875  Z " stroke-width="0" stroke-dasharray="0" stroke="rgba(255, 255, 255, 0)" fill="none" transform="matrix(1 0 0 1 1264 320 )" class="stroke" mask="url(#Clip50)" />
  </g>
</svg>