<?xml version="1.0" encoding="utf-8"?>
<svg version="1.1" xmlns:xlink="http://www.w3.org/1999/xlink" width="29px" height="22px" xmlns="http://www.w3.org/2000/svg">
  <g transform="matrix(1 0 0 1 -2653 -2051 )">
    <path d="M 2653 2051  L 2682 2051  L 2682 2073  L 2653 2073  L 2653 2051  " fill-rule="nonzero" fill="rgba(204, 204, 204, 1)" stroke="none" class="fill" />
    <path d="M 2655 2053  L 2680 2053  L 2680 2071  L 2655 2071  L 2655 2053  " fill-rule="nonzero" fill="rgba(255, 255, 255, 1)" stroke="none" class="fill" />
    <path d="M 2669.73 2057.6000000000004  C 2668.806 2057.6000000000004  2668.08 2056.8740000000003  2668.08 2055.9500000000003  C 2668.08 2055.0260000000003  2668.806 2054.3  2669.73 2054.3  C 2670.654 2054.3  2671.38 2055.0260000000003  2671.38 2055.9500000000003  C 2671.38 2056.8740000000003  2670.654 2057.6000000000004  2669.73 2057.6000000000004  " fill-rule="nonzero" fill="rgba(204, 204, 204, 1)" stroke="none" class="fill" />
    <path d="M 2656 2071  L 2656 2061.65  L 2662 2057.4  L 2670.4 2063.2620689655173  L 2675.2 2059.95  L 2680 2063.2620689655173  L 2680 2071  L 2656 2071  " fill-rule="nonzero" fill="rgba(22, 155, 213, 1)" stroke="none" class="fill" />
  </g>
</svg>