<?xml version="1.0" encoding="utf-8"?>
<svg version="1.1" xmlns:xlink="http://www.w3.org/1999/xlink" width="13px" height="13px" viewBox="1735 1339 13 13" xmlns="http://www.w3.org/2000/svg">
  <path d="M 1741.5 1339  C 1745.14 1339  1748 1341.86  1748 1345.5  C 1748 1349.14  1745.14 1352  1741.5 1352  C 1737.86 1352  1735 1349.14  1735 1345.5  C 1735 1341.86  1737.86 1339  1741.5 1339  Z " fill-rule="nonzero" fill="rgba(255, 255, 255, 1)" stroke="none" class="fill" />
  <path d="M 1741.5 1339.5  C 1744.86 1339.5  1747.5 1342.14  1747.5 1345.5  C 1747.5 1348.86  1744.86 1351.5  1741.5 1351.5  C 1738.14 1351.5  1735.5 1348.86  1735.5 1345.5  C 1735.5 1342.14  1738.14 1339.5  1741.5 1339.5  Z " stroke-width="1" stroke-dasharray="0" stroke="rgba(121, 121, 121, 1)" fill="none" class="stroke" stroke-dashoffset="0.5" />
  <path d="M 1741.5 1348.75  C 1739.68 1348.75  1738.25 1347.32  1738.25 1345.5  C 1738.25 1343.68  1739.68 1342.25  1741.5 1342.25  C 1743.32 1342.25  1744.75 1343.68  1744.75 1345.5  C 1744.75 1347.32  1743.32 1348.75  1741.5 1348.75  " fill-rule="nonzero" fill="rgba(121, 121, 121, 1)" stroke="none" class="stroke btn_check" />
</svg>