<?xml version="1.0" encoding="utf-8"?>
<svg version="1.1" xmlns:xlink="http://www.w3.org/1999/xlink" width="13px" height="13px" viewBox="1735 1450 13 13" xmlns="http://www.w3.org/2000/svg">
  <path d="M 1741.5 1450  C 1745.14 1450  1748 1452.86  1748 1456.5  C 1748 1460.14  1745.14 1463  1741.5 1463  C 1737.86 1463  1735 1460.14  1735 1456.5  C 1735 1452.86  1737.86 1450  1741.5 1450  Z " fill-rule="nonzero" fill="rgba(255, 255, 255, 1)" stroke="none" class="fill" />
  <path d="M 1741.5 1450.5  C 1744.86 1450.5  1747.5 1453.14  1747.5 1456.5  C 1747.5 1459.86  1744.86 1462.5  1741.5 1462.5  C 1738.14 1462.5  1735.5 1459.86  1735.5 1456.5  C 1735.5 1453.14  1738.14 1450.5  1741.5 1450.5  Z " stroke-width="1" stroke-dasharray="0" stroke="rgba(121, 121, 121, 1)" fill="none" class="stroke" stroke-dashoffset="0.5" />
  <path d="M 1741.5 1459.75  C 1739.68 1459.75  1738.25 1458.32  1738.25 1456.5  C 1738.25 1454.68  1739.68 1453.25  1741.5 1453.25  C 1743.32 1453.25  1744.75 1454.68  1744.75 1456.5  C 1744.75 1458.32  1743.32 1459.75  1741.5 1459.75  " fill-rule="nonzero" fill="rgba(121, 121, 121, 1)" stroke="none" class="stroke btn_check" />
</svg>