<?xml version="1.0" encoding="utf-8"?>
<svg version="1.1" xmlns:xlink="http://www.w3.org/1999/xlink" width="13px" height="13px" viewBox="2488 2376 13 13" xmlns="http://www.w3.org/2000/svg">
  <path d="M 2494.5 2376  C 2498.14 2376  2501 2378.86  2501 2382.5  C 2501 2386.14  2498.14 2389  2494.5 2389  C 2490.86 2389  2488 2386.14  2488 2382.5  C 2488 2378.86  2490.86 2376  2494.5 2376  Z " fill-rule="nonzero" fill="rgba(240, 240, 240, 1)" stroke="none" class="fill" />
  <path d="M 2494.5 2376.5  C 2497.86 2376.5  2500.5 2379.14  2500.5 2382.5  C 2500.5 2385.86  2497.86 2388.5  2494.5 2388.5  C 2491.14 2388.5  2488.5 2385.86  2488.5 2382.5  C 2488.5 2379.14  2491.14 2376.5  2494.5 2376.5  Z " stroke-width="1" stroke-dasharray="0" stroke="rgba(121, 121, 121, 1)" fill="none" class="stroke" stroke-dashoffset="0.5" />
  <path d="M 2494.5 2385.75  C 2492.68 2385.75  2491.25 2384.32  2491.25 2382.5  C 2491.25 2380.68  2492.68 2379.25  2494.5 2379.25  C 2496.32 2379.25  2497.75 2380.68  2497.75 2382.5  C 2497.75 2384.32  2496.32 2385.75  2494.5 2385.75  " fill-rule="nonzero" fill="rgba(121, 121, 121, 1)" stroke="none" class="stroke btn_check" />
</svg>