<?xml version="1.0" encoding="utf-8"?>
<svg version="1.1" xmlns:xlink="http://www.w3.org/1999/xlink" width="13px" height="13px" viewBox="2488 2446 13 13" xmlns="http://www.w3.org/2000/svg">
  <path d="M 2494.5 2446  C 2498.14 2446  2501 2448.86  2501 2452.5  C 2501 2456.14  2498.14 2459  2494.5 2459  C 2490.86 2459  2488 2456.14  2488 2452.5  C 2488 2448.86  2490.86 2446  2494.5 2446  Z " fill-rule="nonzero" fill="rgba(255, 255, 255, 1)" stroke="none" class="fill" />
  <path d="M 2494.5 2446.5  C 2497.86 2446.5  2500.5 2449.14  2500.5 2452.5  C 2500.5 2455.86  2497.86 2458.5  2494.5 2458.5  C 2491.14 2458.5  2488.5 2455.86  2488.5 2452.5  C 2488.5 2449.14  2491.14 2446.5  2494.5 2446.5  Z " stroke-width="1" stroke-dasharray="0" stroke="rgba(121, 121, 121, 1)" fill="none" class="stroke" stroke-dashoffset="0.5" />
  <path d="M 2494.5 2455.75  C 2492.68 2455.75  2491.25 2454.32  2491.25 2452.5  C 2491.25 2450.68  2492.68 2449.25  2494.5 2449.25  C 2496.32 2449.25  2497.75 2450.68  2497.75 2452.5  C 2497.75 2454.32  2496.32 2455.75  2494.5 2455.75  " fill-rule="nonzero" fill="rgba(121, 121, 121, 1)" stroke="none" class="stroke btn_check" />
</svg>