<?xml version="1.0" encoding="utf-8"?>
<svg version="1.1" xmlns:xlink="http://www.w3.org/1999/xlink" width="13px" height="13px" viewBox="2488 2511 13 13" xmlns="http://www.w3.org/2000/svg">
  <path d="M 2494.5 2511  C 2498.14 2511  2501 2513.86  2501 2517.5  C 2501 2521.14  2498.14 2524  2494.5 2524  C 2490.86 2524  2488 2521.14  2488 2517.5  C 2488 2513.86  2490.86 2511  2494.5 2511  Z " fill-rule="nonzero" fill="rgba(255, 255, 255, 1)" stroke="none" class="fill" />
  <path d="M 2494.5 2511.5  C 2497.86 2511.5  2500.5 2514.14  2500.5 2517.5  C 2500.5 2520.86  2497.86 2523.5  2494.5 2523.5  C 2491.14 2523.5  2488.5 2520.86  2488.5 2517.5  C 2488.5 2514.14  2491.14 2511.5  2494.5 2511.5  Z " stroke-width="1" stroke-dasharray="0" stroke="rgba(121, 121, 121, 1)" fill="none" class="stroke" stroke-dashoffset="0.5" />
  <path d="M 2494.5 2520.75  C 2492.68 2520.75  2491.25 2519.32  2491.25 2517.5  C 2491.25 2515.68  2492.68 2514.25  2494.5 2514.25  C 2496.32 2514.25  2497.75 2515.68  2497.75 2517.5  C 2497.75 2519.32  2496.32 2520.75  2494.5 2520.75  " fill-rule="nonzero" fill="rgba(121, 121, 121, 1)" stroke="none" class="stroke btn_check" />
</svg>