<?xml version="1.0" encoding="utf-8"?>
<svg version="1.1" xmlns:xlink="http://www.w3.org/1999/xlink" width="13px" height="13px" viewBox="1739 3427 13 13" xmlns="http://www.w3.org/2000/svg">
  <path d="M 1745.5 3427  C 1749.14 3427  1752 3429.86  1752 3433.5  C 1752 3437.14  1749.14 3440  1745.5 3440  C 1741.86 3440  1739 3437.14  1739 3433.5  C 1739 3429.86  1741.86 3427  1745.5 3427  Z " fill-rule="nonzero" fill="rgba(240, 240, 240, 1)" stroke="none" class="fill" />
  <path d="M 1745.5 3427.5  C 1748.86 3427.5  1751.5 3430.14  1751.5 3433.5  C 1751.5 3436.86  1748.86 3439.5  1745.5 3439.5  C 1742.14 3439.5  1739.5 3436.86  1739.5 3433.5  C 1739.5 3430.14  1742.14 3427.5  1745.5 3427.5  Z " stroke-width="1" stroke-dasharray="0" stroke="rgba(121, 121, 121, 1)" fill="none" class="stroke" stroke-dashoffset="0.5" />
  <path d="M 1745.5 3436.75  C 1743.68 3436.75  1742.25 3435.32  1742.25 3433.5  C 1742.25 3431.68  1743.68 3430.25  1745.5 3430.25  C 1747.32 3430.25  1748.75 3431.68  1748.75 3433.5  C 1748.75 3435.32  1747.32 3436.75  1745.5 3436.75  " fill-rule="nonzero" fill="rgba(121, 121, 121, 1)" stroke="none" class="stroke btn_check" />
</svg>