<?xml version="1.0" encoding="utf-8"?>
<svg version="1.1" xmlns:xlink="http://www.w3.org/1999/xlink" width="13px" height="13px" viewBox="1739 3497 13 13" xmlns="http://www.w3.org/2000/svg">
  <path d="M 1745.5 3497  C 1749.14 3497  1752 3499.86  1752 3503.5  C 1752 3507.14  1749.14 3510  1745.5 3510  C 1741.86 3510  1739 3507.14  1739 3503.5  C 1739 3499.86  1741.86 3497  1745.5 3497  Z " fill-rule="nonzero" fill="rgba(255, 255, 255, 1)" stroke="none" class="fill" />
  <path d="M 1745.5 3497.5  C 1748.86 3497.5  1751.5 3500.14  1751.5 3503.5  C 1751.5 3506.86  1748.86 3509.5  1745.5 3509.5  C 1742.14 3509.5  1739.5 3506.86  1739.5 3503.5  C 1739.5 3500.14  1742.14 3497.5  1745.5 3497.5  Z " stroke-width="1" stroke-dasharray="0" stroke="rgba(121, 121, 121, 1)" fill="none" class="stroke" stroke-dashoffset="0.5" />
  <path d="M 1745.5 3506.75  C 1743.68 3506.75  1742.25 3505.32  1742.25 3503.5  C 1742.25 3501.68  1743.68 3500.25  1745.5 3500.25  C 1747.32 3500.25  1748.75 3501.68  1748.75 3503.5  C 1748.75 3505.32  1747.32 3506.75  1745.5 3506.75  " fill-rule="nonzero" fill="rgba(121, 121, 121, 1)" stroke="none" class="stroke btn_check" />
</svg>