<?xml version="1.0" encoding="utf-8"?>
<svg version="1.1" xmlns:xlink="http://www.w3.org/1999/xlink" width="13px" height="13px" viewBox="1739 3562 13 13" xmlns="http://www.w3.org/2000/svg">
  <path d="M 1745.5 3562  C 1749.14 3562  1752 3564.86  1752 3568.5  C 1752 3572.14  1749.14 3575  1745.5 3575  C 1741.86 3575  1739 3572.14  1739 3568.5  C 1739 3564.86  1741.86 3562  1745.5 3562  Z " fill-rule="nonzero" fill="rgba(240, 240, 240, 1)" stroke="none" class="fill" />
  <path d="M 1745.5 3562.5  C 1748.86 3562.5  1751.5 3565.14  1751.5 3568.5  C 1751.5 3571.86  1748.86 3574.5  1745.5 3574.5  C 1742.14 3574.5  1739.5 3571.86  1739.5 3568.5  C 1739.5 3565.14  1742.14 3562.5  1745.5 3562.5  Z " stroke-width="1" stroke-dasharray="0" stroke="rgba(121, 121, 121, 1)" fill="none" class="stroke" stroke-dashoffset="0.5" />
  <path d="M 1745.5 3571.75  C 1743.68 3571.75  1742.25 3570.32  1742.25 3568.5  C 1742.25 3566.68  1743.68 3565.25  1745.5 3565.25  C 1747.32 3565.25  1748.75 3566.68  1748.75 3568.5  C 1748.75 3570.32  1747.32 3571.75  1745.5 3571.75  " fill-rule="nonzero" fill="rgba(121, 121, 121, 1)" stroke="none" class="stroke btn_check" />
</svg>