<?xml version="1.0" encoding="utf-8"?>
<svg version="1.1" xmlns:xlink="http://www.w3.org/1999/xlink" width="25px" height="14px" xmlns="http://www.w3.org/2000/svg">
  <defs>
    <pattern id="BGPattern" patternUnits="userSpaceOnUse" alignment="0 0" imageRepeat="None" />
    <mask fill="white" id="Clip65">
      <path d="M 0 14  L 0 0  L 25 0  L 25 14  L 0 14  Z " fill-rule="evenodd" />
    </mask>
  </defs>
  <g transform="matrix(1 0 0 1 -1737 -4282 )">
    <path d="M 0 14  L 0 0  L 25 0  L 25 14  L 0 14  Z " fill-rule="nonzero" fill="rgba(242, 242, 242, 1)" stroke="none" transform="matrix(1 0 0 1 1737 4282 )" class="fill" />
    <path d="M 0 14  L 0 0  L 25 0  L 25 14  L 0 14  Z " stroke-width="2" stroke-dasharray="0" stroke="rgba(121, 121, 121, 1)" fill="none" transform="matrix(1 0 0 1 1737 4282 )" class="stroke" mask="url(#Clip65)" />
    <path d="M 24.220976771473467 0.43625300797485994  L 0.7790232285265356 13.563746992025141  M 0.7790232285265356 0.43625300797485994  L 24.220976771473467 13.563746992025141  " stroke-width="1" stroke-dasharray="0" stroke="rgba(121, 121, 121, 1)" fill="none" transform="matrix(1 0 0 1 1737 4282 )" class="stroke" />
  </g>
</svg>