<?xml version="1.0" encoding="utf-8"?>
<svg version="1.1" xmlns:xlink="http://www.w3.org/1999/xlink" width="13px" height="13px" viewBox="1736 6152 13 13" xmlns="http://www.w3.org/2000/svg">
  <path d="M 1742.5 6152  C 1746.14 6152  1749 6154.86  1749 6158.5  C 1749 6162.14  1746.14 6165  1742.5 6165  C 1738.86 6165  1736 6162.14  1736 6158.5  C 1736 6154.86  1738.86 6152  1742.5 6152  Z " fill-rule="nonzero" fill="rgba(255, 255, 255, 1)" stroke="none" class="fill" />
  <path d="M 1742.5 6152.5  C 1745.86 6152.5  1748.5 6155.14  1748.5 6158.5  C 1748.5 6161.86  1745.86 6164.5  1742.5 6164.5  C 1739.14 6164.5  1736.5 6161.86  1736.5 6158.5  C 1736.5 6155.14  1739.14 6152.5  1742.5 6152.5  Z " stroke-width="1" stroke-dasharray="0" stroke="rgba(121, 121, 121, 1)" fill="none" class="stroke" stroke-dashoffset="0.5" />
  <path d="M 1742.5 6161.75  C 1740.68 6161.75  1739.25 6160.32  1739.25 6158.5  C 1739.25 6156.68  1740.68 6155.25  1742.5 6155.25  C 1744.32 6155.25  1745.75 6156.68  1745.75 6158.5  C 1745.75 6160.32  1744.32 6161.75  1742.5 6161.75  " fill-rule="nonzero" fill="rgba(121, 121, 121, 1)" stroke="none" class="stroke btn_check" />
</svg>