<?xml version="1.0" encoding="utf-8"?>
<svg version="1.1" xmlns:xlink="http://www.w3.org/1999/xlink" width="30px" height="30px" xmlns="http://www.w3.org/2000/svg">
  <defs>
    <pattern id="BGPattern" patternUnits="userSpaceOnUse" alignment="0 0" imageRepeat="None" />
    <mask fill="white" id="Clip6">
      <path d="M 0 10  C 0 4.3999999999999995  4.3999999999999995 0  10 0  C 15.600000000000001 0  20 4.3999999999999995  20 10  C 20 15.600000000000001  15.600000000000001 20  10 20  C 4.3999999999999995 20  0 15.600000000000001  0 10  Z " fill-rule="evenodd" />
    </mask>
  </defs>
  <g transform="matrix(1 0 0 1 -1159 -845 )">
    <path d="M 0 10  C 0 4.3999999999999995  4.3999999999999995 0  10 0  C 15.600000000000001 0  20 4.3999999999999995  20 10  C 20 15.600000000000001  15.600000000000001 20  10 20  C 4.3999999999999995 20  0 15.600000000000001  0 10  Z " fill-rule="nonzero" fill="rgba(217, 0, 27, 1)" stroke="none" transform="matrix(1 0 0 1 1163 849 )" class="fill" />
    <path d="M 0 10  C 0 4.3999999999999995  4.3999999999999995 0  10 0  C 15.600000000000001 0  20 4.3999999999999995  20 10  C 20 15.600000000000001  15.600000000000001 20  10 20  C 4.3999999999999995 20  0 15.600000000000001  0 10  Z " stroke-width="2" stroke-dasharray="0" stroke="rgba(255, 255, 255, 1)" fill="none" transform="matrix(1 0 0 1 1163 849 )" class="stroke" mask="url(#Clip6)" />
  </g>
  <style>svg { filter: drop-shadow(1px 1px 2.5px rgba(0, 0, 0, 0.6980392156862745)); }</style>
</svg>