<?xml version="1.0" encoding="utf-8"?>
<svg version="1.1" xmlns:xlink="http://www.w3.org/1999/xlink" width="17px" height="17px" xmlns="http://www.w3.org/2000/svg">
  <defs>
    <pattern id="BGPattern" patternUnits="userSpaceOnUse" alignment="0 0" imageRepeat="None" />
    <mask fill="white" id="Clip129">
      <path d="M 12.142857142857142 3.6428571428571432  L 16.089285714285715 3.6428571428571432  C 16.342261904761905 3.6428571428571432  16.557291666666668 3.7313988095238084  16.734375 3.9084821428571432  C 16.911458333333336 4.085565476190474  17 4.300595238095238  17 4.55357142857143  L 17 16.089285714285715  C 17 16.342261904761905  16.911458333333336 16.557291666666664  16.734375 16.734375  C 16.557291666666668 16.911458333333336  16.342261904761905 17  16.089285714285715 17  L 6.982142857142857 17  C 6.729166666666667 17  6.514136904761905 16.911458333333336  6.337053571428571 16.734375  C 6.159970238095239 16.557291666666664  6.071428571428571 16.342261904761905  6.071428571428571 16.089285714285715  L 6.071428571428571 13.357142857142858  L 0.9107142857142857 13.357142857142858  C 0.6577380952380953 13.357142857142858  0.44270833333333337 13.268601190476192  0.265625 13.091517857142858  C 0.08854166666666666 12.914434523809524  0 12.699404761904763  0 12.446428571428573  L 0 6.07142857142857  C 0 5.818452380952381  0.06324404761904762 5.54017857142857  0.18973214285714285 5.236607142857143  C 0.3162202380952381 4.9330357142857135  0.46800595238095244 4.692708333333333  0.6450892857142857 4.515625  L 4.515625 0.6450892857142863  C 4.692708333333334 0.46800595238095166  4.933035714285714 0.3162202380952379  5.236607142857143 0.18973214285714313  C 5.540178571428571 0.06324404761904834  5.818452380952381 0  6.071428571428571 0  L 10.017857142857142 0  C 10.270833333333334 0  10.485863095238097 0.0885416666666673  10.662946428571429 0.265625  C 10.840029761904763 0.4427083333333327  10.928571428571429 0.6577380952380948  10.928571428571429 0.9107142857142863  L 10.928571428571429 4.02232142857143  C 11.358630952380954 3.769345238095238  11.763392857142858 3.6428571428571432  12.142857142857142 3.6428571428571432  Z M 10.928571428571429 8.5  L 10.928571428571429 5.6635044642857135  L 8.092075892857142 8.5  L 10.928571428571429 8.5  Z M 4.857142857142857 4.857142857142857  L 4.857142857142857 2.0206473214285707  L 2.020647321428571 4.857142857142857  L 4.857142857142857 4.857142857142857  Z M 6.261160714285714 8.879464285714286  C 6.387648809523809 8.575892857142858  6.539434523809524 8.335565476190476  6.716517857142857 8.158482142857142  L 9.714285714285714 5.1607142857142865  L 9.714285714285714 1.2142857142857137  L 6.071428571428571 1.2142857142857137  L 6.071428571428571 5.1607142857142865  C 6.071428571428571 5.413690476190474  5.982886904761905 5.628720238095238  5.805803571428571 5.80580357142857  C 5.628720238095239 5.982886904761903  5.413690476190477 6.07142857142857  5.160714285714286 6.07142857142857  L 1.2142857142857142 6.07142857142857  L 1.2142857142857142 12.142857142857142  L 6.071428571428571 12.142857142857142  L 6.071428571428571 9.714285714285714  C 6.071428571428571 9.461309523809524  6.1346726190476195 9.183035714285714  6.261160714285714 8.879464285714286  Z M 7.285714285714286 15.785714285714286  L 15.785714285714286 15.785714285714286  L 15.785714285714286 4.857142857142857  L 12.142857142857142 4.857142857142857  L 12.142857142857142 8.803571428571427  C 12.142857142857142 9.056547619047619  12.054315476190478 9.27157738095238  11.877232142857142 9.448660714285714  C 11.70014880952381 9.625744047619047  11.485119047619047 9.714285714285714  11.232142857142858 9.714285714285714  L 7.285714285714286 9.714285714285714  L 7.285714285714286 15.785714285714286  Z " fill-rule="evenodd" />
    </mask>
  </defs>
  <g transform="matrix(1 0 0 1 -685 -576 )">
    <path d="M 12.142857142857142 3.6428571428571432  L 16.089285714285715 3.6428571428571432  C 16.342261904761905 3.6428571428571432  16.557291666666668 3.7313988095238084  16.734375 3.9084821428571432  C 16.911458333333336 4.085565476190474  17 4.300595238095238  17 4.55357142857143  L 17 16.089285714285715  C 17 16.342261904761905  16.911458333333336 16.557291666666664  16.734375 16.734375  C 16.557291666666668 16.911458333333336  16.342261904761905 17  16.089285714285715 17  L 6.982142857142857 17  C 6.729166666666667 17  6.514136904761905 16.911458333333336  6.337053571428571 16.734375  C 6.159970238095239 16.557291666666664  6.071428571428571 16.342261904761905  6.071428571428571 16.089285714285715  L 6.071428571428571 13.357142857142858  L 0.9107142857142857 13.357142857142858  C 0.6577380952380953 13.357142857142858  0.44270833333333337 13.268601190476192  0.265625 13.091517857142858  C 0.08854166666666666 12.914434523809524  0 12.699404761904763  0 12.446428571428573  L 0 6.07142857142857  C 0 5.818452380952381  0.06324404761904762 5.54017857142857  0.18973214285714285 5.236607142857143  C 0.3162202380952381 4.9330357142857135  0.46800595238095244 4.692708333333333  0.6450892857142857 4.515625  L 4.515625 0.6450892857142863  C 4.692708333333334 0.46800595238095166  4.933035714285714 0.3162202380952379  5.236607142857143 0.18973214285714313  C 5.540178571428571 0.06324404761904834  5.818452380952381 0  6.071428571428571 0  L 10.017857142857142 0  C 10.270833333333334 0  10.485863095238097 0.0885416666666673  10.662946428571429 0.265625  C 10.840029761904763 0.4427083333333327  10.928571428571429 0.6577380952380948  10.928571428571429 0.9107142857142863  L 10.928571428571429 4.02232142857143  C 11.358630952380954 3.769345238095238  11.763392857142858 3.6428571428571432  12.142857142857142 3.6428571428571432  Z M 10.928571428571429 8.5  L 10.928571428571429 5.6635044642857135  L 8.092075892857142 8.5  L 10.928571428571429 8.5  Z M 4.857142857142857 4.857142857142857  L 4.857142857142857 2.0206473214285707  L 2.020647321428571 4.857142857142857  L 4.857142857142857 4.857142857142857  Z M 6.261160714285714 8.879464285714286  C 6.387648809523809 8.575892857142858  6.539434523809524 8.335565476190476  6.716517857142857 8.158482142857142  L 9.714285714285714 5.1607142857142865  L 9.714285714285714 1.2142857142857137  L 6.071428571428571 1.2142857142857137  L 6.071428571428571 5.1607142857142865  C 6.071428571428571 5.413690476190474  5.982886904761905 5.628720238095238  5.805803571428571 5.80580357142857  C 5.628720238095239 5.982886904761903  5.413690476190477 6.07142857142857  5.160714285714286 6.07142857142857  L 1.2142857142857142 6.07142857142857  L 1.2142857142857142 12.142857142857142  L 6.071428571428571 12.142857142857142  L 6.071428571428571 9.714285714285714  C 6.071428571428571 9.461309523809524  6.1346726190476195 9.183035714285714  6.261160714285714 8.879464285714286  Z M 7.285714285714286 15.785714285714286  L 15.785714285714286 15.785714285714286  L 15.785714285714286 4.857142857142857  L 12.142857142857142 4.857142857142857  L 12.142857142857142 8.803571428571427  C 12.142857142857142 9.056547619047619  12.054315476190478 9.27157738095238  11.877232142857142 9.448660714285714  C 11.70014880952381 9.625744047619047  11.485119047619047 9.714285714285714  11.232142857142858 9.714285714285714  L 7.285714285714286 9.714285714285714  L 7.285714285714286 15.785714285714286  Z " fill-rule="nonzero" fill="rgba(215, 215, 215, 1)" stroke="none" transform="matrix(1 0 0 1 685 576 )" class="fill" />
    <path d="M 12.142857142857142 3.6428571428571432  L 16.089285714285715 3.6428571428571432  C 16.342261904761905 3.6428571428571432  16.557291666666668 3.7313988095238084  16.734375 3.9084821428571432  C 16.911458333333336 4.085565476190474  17 4.300595238095238  17 4.55357142857143  L 17 16.089285714285715  C 17 16.342261904761905  16.911458333333336 16.557291666666664  16.734375 16.734375  C 16.557291666666668 16.911458333333336  16.342261904761905 17  16.089285714285715 17  L 6.982142857142857 17  C 6.729166666666667 17  6.514136904761905 16.911458333333336  6.337053571428571 16.734375  C 6.159970238095239 16.557291666666664  6.071428571428571 16.342261904761905  6.071428571428571 16.089285714285715  L 6.071428571428571 13.357142857142858  L 0.9107142857142857 13.357142857142858  C 0.6577380952380953 13.357142857142858  0.44270833333333337 13.268601190476192  0.265625 13.091517857142858  C 0.08854166666666666 12.914434523809524  0 12.699404761904763  0 12.446428571428573  L 0 6.07142857142857  C 0 5.818452380952381  0.06324404761904762 5.54017857142857  0.18973214285714285 5.236607142857143  C 0.3162202380952381 4.9330357142857135  0.46800595238095244 4.692708333333333  0.6450892857142857 4.515625  L 4.515625 0.6450892857142863  C 4.692708333333334 0.46800595238095166  4.933035714285714 0.3162202380952379  5.236607142857143 0.18973214285714313  C 5.540178571428571 0.06324404761904834  5.818452380952381 0  6.071428571428571 0  L 10.017857142857142 0  C 10.270833333333334 0  10.485863095238097 0.0885416666666673  10.662946428571429 0.265625  C 10.840029761904763 0.4427083333333327  10.928571428571429 0.6577380952380948  10.928571428571429 0.9107142857142863  L 10.928571428571429 4.02232142857143  C 11.358630952380954 3.769345238095238  11.763392857142858 3.6428571428571432  12.142857142857142 3.6428571428571432  Z " stroke-width="0" stroke-dasharray="0" stroke="rgba(255, 255, 255, 0)" fill="none" transform="matrix(1 0 0 1 685 576 )" class="stroke" mask="url(#Clip129)" />
    <path d="M 10.928571428571429 8.5  L 10.928571428571429 5.6635044642857135  L 8.092075892857142 8.5  L 10.928571428571429 8.5  Z " stroke-width="0" stroke-dasharray="0" stroke="rgba(255, 255, 255, 0)" fill="none" transform="matrix(1 0 0 1 685 576 )" class="stroke" mask="url(#Clip129)" />
    <path d="M 4.857142857142857 4.857142857142857  L 4.857142857142857 2.0206473214285707  L 2.020647321428571 4.857142857142857  L 4.857142857142857 4.857142857142857  Z " stroke-width="0" stroke-dasharray="0" stroke="rgba(255, 255, 255, 0)" fill="none" transform="matrix(1 0 0 1 685 576 )" class="stroke" mask="url(#Clip129)" />
    <path d="M 6.261160714285714 8.879464285714286  C 6.387648809523809 8.575892857142858  6.539434523809524 8.335565476190476  6.716517857142857 8.158482142857142  L 9.714285714285714 5.1607142857142865  L 9.714285714285714 1.2142857142857137  L 6.071428571428571 1.2142857142857137  L 6.071428571428571 5.1607142857142865  C 6.071428571428571 5.413690476190474  5.982886904761905 5.628720238095238  5.805803571428571 5.80580357142857  C 5.628720238095239 5.982886904761903  5.413690476190477 6.07142857142857  5.160714285714286 6.07142857142857  L 1.2142857142857142 6.07142857142857  L 1.2142857142857142 12.142857142857142  L 6.071428571428571 12.142857142857142  L 6.071428571428571 9.714285714285714  C 6.071428571428571 9.461309523809524  6.1346726190476195 9.183035714285714  6.261160714285714 8.879464285714286  Z " stroke-width="0" stroke-dasharray="0" stroke="rgba(255, 255, 255, 0)" fill="none" transform="matrix(1 0 0 1 685 576 )" class="stroke" mask="url(#Clip129)" />
    <path d="M 7.285714285714286 15.785714285714286  L 15.785714285714286 15.785714285714286  L 15.785714285714286 4.857142857142857  L 12.142857142857142 4.857142857142857  L 12.142857142857142 8.803571428571427  C 12.142857142857142 9.056547619047619  12.054315476190478 9.27157738095238  11.877232142857142 9.448660714285714  C 11.70014880952381 9.625744047619047  11.485119047619047 9.714285714285714  11.232142857142858 9.714285714285714  L 7.285714285714286 9.714285714285714  L 7.285714285714286 15.785714285714286  Z " stroke-width="0" stroke-dasharray="0" stroke="rgba(255, 255, 255, 0)" fill="none" transform="matrix(1 0 0 1 685 576 )" class="stroke" mask="url(#Clip129)" />
  </g>
</svg>