<?xml version="1.0" encoding="utf-8"?>
<svg version="1.1" xmlns:xlink="http://www.w3.org/1999/xlink" width="1435px" height="905px" xmlns="http://www.w3.org/2000/svg">
  <defs>
    <pattern id="BGPattern" patternUnits="userSpaceOnUse" alignment="0 0" imageRepeat="None" />
    <mask fill="white" id="Clip3">
      <path d="M 0 896  L 0 9  C 0 3.959999999999999  3.959999999999999 0  9 0  L 1426 0  C 1431.04 0  1435 3.959999999999999  1435 9  L 1435 896  C 1435 901.04  1431.04 905  1426 905  L 9 905  C 3.959999999999999 905  0 901.04  0 896  Z " fill-rule="evenodd" />
    </mask>
  </defs>
  <g transform="matrix(1 0 0 1 -31 -794 )">
    <path d="M 0 896  L 0 9  C 0 3.959999999999999  3.959999999999999 0  9 0  L 1426 0  C 1431.04 0  1435 3.959999999999999  1435 9  L 1435 896  C 1435 901.04  1431.04 905  1426 905  L 9 905  C 3.959999999999999 905  0 901.04  0 896  Z " fill-rule="nonzero" fill="rgba(255, 255, 255, 1)" stroke="none" transform="matrix(1 0 0 1 31 794 )" class="fill" />
    <path d="M 0 896  L 0 9  C 0 3.959999999999999  3.959999999999999 0  9 0  L 1426 0  C 1431.04 0  1435 3.959999999999999  1435 9  L 1435 896  C 1435 901.04  1431.04 905  1426 905  L 9 905  C 3.959999999999999 905  0 901.04  0 896  Z " stroke-width="2" stroke-dasharray="9,4" stroke="rgba(236, 128, 141, 1)" fill="none" transform="matrix(1 0 0 1 31 794 )" class="stroke" mask="url(#Clip3)" />
  </g>
</svg>