<?xml version="1.0" encoding="utf-8"?>
<svg version="1.1" xmlns:xlink="http://www.w3.org/1999/xlink" width="21px" height="21px" xmlns="http://www.w3.org/2000/svg">
  <defs>
    <pattern id="BGPattern" patternUnits="userSpaceOnUse" alignment="0 0" imageRepeat="None" />
    <mask fill="white" id="Clip4">
      <path d="M 19.558823529411764 18.354000000000017  C 19.882319931339534 18.683966329966342  19.311764705882343 18.647999999999993  19.04039688164422 19.02144578313254  C 18.7690290574061 19.394891566265084  18.49622971982999 19.947953754411625  19.558823529411764 18.647999999999993  L 17.74608833432362 20.505050505050516  C 17.42259193239585 20.835016835016837  18.208226051363294 20.505050505050516  17.74608833432362 20.505050505050516  C 17.434435231193962 20.505050505050516  17.347048547864375 20.786372226655597  17.08823529411765 20.79  C 16.96326489538343 20.79175170426861  16.989235212816315 20.392692672920706  16.567637155872454 20.505050505050516  L 10.294117647058822 14.593734939759036  L 4.0205981382451945 20.505050505050516  C 3.697101736317403 20.835016835016837  4.4827358552848695 20.505050505050516  4.0205981382451945 20.505050505050516  C 3.558460421205519 20.505050505050516  3.741143460751302 20.447966329966313  3.417647058823534 20.11799999999999  L 1.4287739192062543 18.10101010101009  C 1.1052775172784863 17.771043771043768  1.4287739192062543 18.572390572390606  1.4287739192062543 18.10101010101009  C 1.4287739192062543 17.629629629629623  2.124252207880866 18.51584763295606  1.4287739192062543 18.10101010101009  L 8.250177179305464 11.43108433734944  L 1.4287739192062543 4.101010101010122  C 0.8235294117647058 3.3179999999999907  0.48524460289165205 3.3703703703703782  0.48524460289165205 2.89898989898991  C 0.48524460289165205 2.427609427609441  0.16174820096388404 3.228956228956233  0.48524460289165205 2.89898989898991  L 2.8421469597940288 0.49494949494948515  C 3.165643361721797 0.1649831649831617  2.3800092427543538 0.49494949494948515  2.8421469597940288 0.49494949494948515  C 3.304284676833704 0.49494949494948515  3.697101736317403 0.9806360796722537  4.0205981382451945 1.3106024096385773  L 10.294117647058822 9.153975903614466  L 17.74608833432362 1.3106024096385773  C 18.06958473625141 0.9806360796722537  17.499029510794195 1.5120000000000096  17.994117647058818 1.05  C 18.48920578332344 0.5879999999999904  17.917680068660474 0.4260336700336575  18.24117647058824 0.7559999999999809  L 20.102990691225994 2.89898989898991  C 20.588235294117645 3.3179999999999907  20.71176470588236 3.4020000000000574  20.71176470588236 3.4440000000000195  C 20.71176470588236 3.485999999999981  19.36389328357199 4.522804754371037  19.04039688164422 4.85277108433736  L 12.96314670446494 11.43108433734944  L 19.558823529411764 18.354000000000017  Z " fill-rule="evenodd" />
    </mask>
  </defs>
  <g transform="matrix(1 0 0 1 -1312 -1364 )">
    <path d="M 19.558823529411764 18.354000000000017  C 19.882319931339534 18.683966329966342  19.311764705882343 18.647999999999993  19.04039688164422 19.02144578313254  C 18.7690290574061 19.394891566265084  18.49622971982999 19.947953754411625  19.558823529411764 18.647999999999993  L 17.74608833432362 20.505050505050516  C 17.42259193239585 20.835016835016837  18.208226051363294 20.505050505050516  17.74608833432362 20.505050505050516  C 17.434435231193962 20.505050505050516  17.347048547864375 20.786372226655597  17.08823529411765 20.79  C 16.96326489538343 20.79175170426861  16.989235212816315 20.392692672920706  16.567637155872454 20.505050505050516  L 10.294117647058822 14.593734939759036  L 4.0205981382451945 20.505050505050516  C 3.697101736317403 20.835016835016837  4.4827358552848695 20.505050505050516  4.0205981382451945 20.505050505050516  C 3.558460421205519 20.505050505050516  3.741143460751302 20.447966329966313  3.417647058823534 20.11799999999999  L 1.4287739192062543 18.10101010101009  C 1.1052775172784863 17.771043771043768  1.4287739192062543 18.572390572390606  1.4287739192062543 18.10101010101009  C 1.4287739192062543 17.629629629629623  2.124252207880866 18.51584763295606  1.4287739192062543 18.10101010101009  L 8.250177179305464 11.43108433734944  L 1.4287739192062543 4.101010101010122  C 0.8235294117647058 3.3179999999999907  0.48524460289165205 3.3703703703703782  0.48524460289165205 2.89898989898991  C 0.48524460289165205 2.427609427609441  0.16174820096388404 3.228956228956233  0.48524460289165205 2.89898989898991  L 2.8421469597940288 0.49494949494948515  C 3.165643361721797 0.1649831649831617  2.3800092427543538 0.49494949494948515  2.8421469597940288 0.49494949494948515  C 3.304284676833704 0.49494949494948515  3.697101736317403 0.9806360796722537  4.0205981382451945 1.3106024096385773  L 10.294117647058822 9.153975903614466  L 17.74608833432362 1.3106024096385773  C 18.06958473625141 0.9806360796722537  17.499029510794195 1.5120000000000096  17.994117647058818 1.05  C 18.48920578332344 0.5879999999999904  17.917680068660474 0.4260336700336575  18.24117647058824 0.7559999999999809  L 20.102990691225994 2.89898989898991  C 20.588235294117645 3.3179999999999907  20.71176470588236 3.4020000000000574  20.71176470588236 3.4440000000000195  C 20.71176470588236 3.485999999999981  19.36389328357199 4.522804754371037  19.04039688164422 4.85277108433736  L 12.96314670446494 11.43108433734944  L 19.558823529411764 18.354000000000017  Z " fill-rule="nonzero" fill="rgba(170, 170, 170, 1)" stroke="none" transform="matrix(1 0 0 1 1312 1364 )" class="fill" />
    <path d="M 19.558823529411764 18.354000000000017  C 19.882319931339534 18.683966329966342  19.311764705882343 18.647999999999993  19.04039688164422 19.02144578313254  C 18.7690290574061 19.394891566265084  18.49622971982999 19.947953754411625  19.558823529411764 18.647999999999993  L 17.74608833432362 20.505050505050516  C 17.42259193239585 20.835016835016837  18.208226051363294 20.505050505050516  17.74608833432362 20.505050505050516  C 17.434435231193962 20.505050505050516  17.347048547864375 20.786372226655597  17.08823529411765 20.79  C 16.96326489538343 20.79175170426861  16.989235212816315 20.392692672920706  16.567637155872454 20.505050505050516  L 10.294117647058822 14.593734939759036  L 4.0205981382451945 20.505050505050516  C 3.697101736317403 20.835016835016837  4.4827358552848695 20.505050505050516  4.0205981382451945 20.505050505050516  C 3.558460421205519 20.505050505050516  3.741143460751302 20.447966329966313  3.417647058823534 20.11799999999999  L 1.4287739192062543 18.10101010101009  C 1.1052775172784863 17.771043771043768  1.4287739192062543 18.572390572390606  1.4287739192062543 18.10101010101009  C 1.4287739192062543 17.629629629629623  2.124252207880866 18.51584763295606  1.4287739192062543 18.10101010101009  L 8.250177179305464 11.43108433734944  L 1.4287739192062543 4.101010101010122  C 0.8235294117647058 3.3179999999999907  0.48524460289165205 3.3703703703703782  0.48524460289165205 2.89898989898991  C 0.48524460289165205 2.427609427609441  0.16174820096388404 3.228956228956233  0.48524460289165205 2.89898989898991  L 2.8421469597940288 0.49494949494948515  C 3.165643361721797 0.1649831649831617  2.3800092427543538 0.49494949494948515  2.8421469597940288 0.49494949494948515  C 3.304284676833704 0.49494949494948515  3.697101736317403 0.9806360796722537  4.0205981382451945 1.3106024096385773  L 10.294117647058822 9.153975903614466  L 17.74608833432362 1.3106024096385773  C 18.06958473625141 0.9806360796722537  17.499029510794195 1.5120000000000096  17.994117647058818 1.05  C 18.48920578332344 0.5879999999999904  17.917680068660474 0.4260336700336575  18.24117647058824 0.7559999999999809  L 20.102990691225994 2.89898989898991  C 20.588235294117645 3.3179999999999907  20.71176470588236 3.4020000000000574  20.71176470588236 3.4440000000000195  C 20.71176470588236 3.485999999999981  19.36389328357199 4.522804754371037  19.04039688164422 4.85277108433736  L 12.96314670446494 11.43108433734944  L 19.558823529411764 18.354000000000017  Z " stroke-width="0" stroke-dasharray="0" stroke="rgba(255, 255, 255, 0)" fill="none" transform="matrix(1 0 0 1 1312 1364 )" class="stroke" mask="url(#Clip4)" />
  </g>
</svg>