<?xml version="1.0" encoding="utf-8"?>
<svg version="1.1" xmlns:xlink="http://www.w3.org/1999/xlink" width="11px" height="20px" xmlns="http://www.w3.org/2000/svg">
  <defs>
    <pattern id="BGPattern" patternUnits="userSpaceOnUse" alignment="0 0" imageRepeat="None" />
    <mask fill="white" id="Clip1">
      <path d="M 10.810996563573882 1.2024048096192375  C 10.93699885452463 1.3360053440213737  11 1.4896459585838318  11 1.6633266533066138  C 11 1.8370073480293914  10.93699885452463 1.9906479625918494  10.810996563573882 2.124248496993988  L 3.383161512027492 10  L 10.810996563573882 17.87575150300601  C 10.93699885452463 18.00935203740815  11 18.162992651970605  11 18.336673346693388  C 11 18.510354041416164  10.93699885452463 18.663994655978623  10.810996563573882 18.79759519038076  L 9.8659793814433 19.799599198396795  C 9.739977090492555 19.933199732798933  9.5950744558992 20  9.43127147766323 20  C 9.267468499427263 20  9.122565864833907 19.933199732798933  8.996563573883162 19.799599198396795  L 0.18900343642611686 10.460921843687373  C 0.06300114547537232 10.327321309285235  0 10.173680694722778  0 10  C 0 9.82631930527722  0.06300114547537232 9.672678690714761  0.18900343642611686 9.539078156312627  L 8.996563573883162 0.2004008016032066  C 9.122565864833907 0.06680026720106813  9.267468499427263 0  9.43127147766323 0  C 9.5950744558992 0  9.739977090492555 0.06680026720106813  9.8659793814433 0.2004008016032066  L 10.810996563573882 1.2024048096192375  Z " fill-rule="evenodd" />
    </mask>
  </defs>
  <g transform="matrix(1 0 0 1 -85 -50 )">
    <path d="M 10.810996563573882 1.2024048096192375  C 10.93699885452463 1.3360053440213737  11 1.4896459585838318  11 1.6633266533066138  C 11 1.8370073480293914  10.93699885452463 1.9906479625918494  10.810996563573882 2.124248496993988  L 3.383161512027492 10  L 10.810996563573882 17.87575150300601  C 10.93699885452463 18.00935203740815  11 18.162992651970605  11 18.336673346693388  C 11 18.510354041416164  10.93699885452463 18.663994655978623  10.810996563573882 18.79759519038076  L 9.8659793814433 19.799599198396795  C 9.739977090492555 19.933199732798933  9.5950744558992 20  9.43127147766323 20  C 9.267468499427263 20  9.122565864833907 19.933199732798933  8.996563573883162 19.799599198396795  L 0.18900343642611686 10.460921843687373  C 0.06300114547537232 10.327321309285235  0 10.173680694722778  0 10  C 0 9.82631930527722  0.06300114547537232 9.672678690714761  0.18900343642611686 9.539078156312627  L 8.996563573883162 0.2004008016032066  C 9.122565864833907 0.06680026720106813  9.267468499427263 0  9.43127147766323 0  C 9.5950744558992 0  9.739977090492555 0.06680026720106813  9.8659793814433 0.2004008016032066  L 10.810996563573882 1.2024048096192375  Z " fill-rule="nonzero" fill="rgba(0, 0, 0, 1)" stroke="none" transform="matrix(1 0 0 1 85 50 )" class="fill" />
    <path d="M 10.810996563573882 1.2024048096192375  C 10.93699885452463 1.3360053440213737  11 1.4896459585838318  11 1.6633266533066138  C 11 1.8370073480293914  10.93699885452463 1.9906479625918494  10.810996563573882 2.124248496993988  L 3.383161512027492 10  L 10.810996563573882 17.87575150300601  C 10.93699885452463 18.00935203740815  11 18.162992651970605  11 18.336673346693388  C 11 18.510354041416164  10.93699885452463 18.663994655978623  10.810996563573882 18.79759519038076  L 9.8659793814433 19.799599198396795  C 9.739977090492555 19.933199732798933  9.5950744558992 20  9.43127147766323 20  C 9.267468499427263 20  9.122565864833907 19.933199732798933  8.996563573883162 19.799599198396795  L 0.18900343642611686 10.460921843687373  C 0.06300114547537232 10.327321309285235  0 10.173680694722778  0 10  C 0 9.82631930527722  0.06300114547537232 9.672678690714761  0.18900343642611686 9.539078156312627  L 8.996563573883162 0.2004008016032066  C 9.122565864833907 0.06680026720106813  9.267468499427263 0  9.43127147766323 0  C 9.5950744558992 0  9.739977090492555 0.06680026720106813  9.8659793814433 0.2004008016032066  L 10.810996563573882 1.2024048096192375  Z " stroke-width="0" stroke-dasharray="0" stroke="rgba(255, 255, 255, 0)" fill="none" transform="matrix(1 0 0 1 85 50 )" class="stroke" mask="url(#Clip1)" />
  </g>
</svg>