<?xml version="1.0" encoding="utf-8"?>
<svg version="1.1" xmlns:xlink="http://www.w3.org/1999/xlink" width="13px" height="13px" viewBox="365 1339 13 13" xmlns="http://www.w3.org/2000/svg">
  <path d="M 371.5 1339  C 375.14 1339  378 1341.86  378 1345.5  C 378 1349.14  375.14 1352  371.5 1352  C 367.86 1352  365 1349.14  365 1345.5  C 365 1341.86  367.86 1339  371.5 1339  Z " fill-rule="nonzero" fill="rgba(240, 240, 240, 1)" stroke="none" class="fill" />
  <path d="M 371.5 1339.5  C 374.86 1339.5  377.5 1342.14  377.5 1345.5  C 377.5 1348.86  374.86 1351.5  371.5 1351.5  C 368.14 1351.5  365.5 1348.86  365.5 1345.5  C 365.5 1342.14  368.14 1339.5  371.5 1339.5  Z " stroke-width="1" stroke-dasharray="0" stroke="rgba(121, 121, 121, 1)" fill="none" class="stroke" stroke-dashoffset="0.5" />
  <path d="M 371.5 1348.75  C 369.68 1348.75  368.25 1347.32  368.25 1345.5  C 368.25 1343.68  369.68 1342.25  371.5 1342.25  C 373.32 1342.25  374.75 1343.68  374.75 1345.5  C 374.75 1347.32  373.32 1348.75  371.5 1348.75  " fill-rule="nonzero" fill="rgba(121, 121, 121, 1)" stroke="none" class="stroke btn_check" />
</svg>