<?xml version="1.0" encoding="utf-8"?>
<svg version="1.1" xmlns:xlink="http://www.w3.org/1999/xlink" width="13px" height="13px" viewBox="440 1339 13 13" xmlns="http://www.w3.org/2000/svg">
  <path d="M 446.5 1339  C 450.14 1339  453 1341.86  453 1345.5  C 453 1349.14  450.14 1352  446.5 1352  C 442.86 1352  440 1349.14  440 1345.5  C 440 1341.86  442.86 1339  446.5 1339  Z " fill-rule="nonzero" fill="rgba(240, 240, 240, 1)" stroke="none" class="fill" />
  <path d="M 446.5 1339.5  C 449.86 1339.5  452.5 1342.14  452.5 1345.5  C 452.5 1348.86  449.86 1351.5  446.5 1351.5  C 443.14 1351.5  440.5 1348.86  440.5 1345.5  C 440.5 1342.14  443.14 1339.5  446.5 1339.5  Z " stroke-width="1" stroke-dasharray="0" stroke="rgba(121, 121, 121, 1)" fill="none" class="stroke" stroke-dashoffset="0.5" />
  <path d="M 446.5 1348.75  C 444.68 1348.75  443.25 1347.32  443.25 1345.5  C 443.25 1343.68  444.68 1342.25  446.5 1342.25  C 448.32 1342.25  449.75 1343.68  449.75 1345.5  C 449.75 1347.32  448.32 1348.75  446.5 1348.75  " fill-rule="nonzero" fill="rgba(121, 121, 121, 1)" stroke="none" class="stroke btn_check" />
</svg>