<?xml version="1.0" encoding="utf-8"?>
<svg version="1.1" xmlns:xlink="http://www.w3.org/1999/xlink" width="13px" height="13px" viewBox="1164 913 13 13" xmlns="http://www.w3.org/2000/svg">
  <path d="M 1170.5 913  C 1174.14 913  1177 915.86  1177 919.5  C 1177 923.14  1174.14 926  1170.5 926  C 1166.86 926  1164 923.14  1164 919.5  C 1164 915.86  1166.86 913  1170.5 913  Z " fill-rule="nonzero" fill="rgba(255, 255, 255, 1)" stroke="none" class="fill" />
  <path d="M 1170.5 913.5  C 1173.86 913.5  1176.5 916.14  1176.5 919.5  C 1176.5 922.86  1173.86 925.5  1170.5 925.5  C 1167.14 925.5  1164.5 922.86  1164.5 919.5  C 1164.5 916.14  1167.14 913.5  1170.5 913.5  Z " stroke-width="1" stroke-dasharray="0" stroke="rgba(121, 121, 121, 1)" fill="none" class="stroke" stroke-dashoffset="0.5" />
  <path d="M 1170.5 922.75  C 1168.68 922.75  1167.25 921.32  1167.25 919.5  C 1167.25 917.68  1168.68 916.25  1170.5 916.25  C 1172.32 916.25  1173.75 917.68  1173.75 919.5  C 1173.75 921.32  1172.32 922.75  1170.5 922.75  " fill-rule="nonzero" fill="rgba(121, 121, 121, 1)" stroke="none" class="stroke btn_check" />
</svg>