<?xml version="1.0" encoding="utf-8"?>
<svg version="1.1" xmlns:xlink="http://www.w3.org/1999/xlink" width="13px" height="13px" viewBox="365 980 13 13" xmlns="http://www.w3.org/2000/svg">
  <path d="M 371.5 980  C 375.14 980  378 982.86  378 986.5  C 378 990.14  375.14 993  371.5 993  C 367.86 993  365 990.14  365 986.5  C 365 982.86  367.86 980  371.5 980  Z " fill-rule="nonzero" fill="rgba(255, 255, 255, 1)" stroke="none" class="fill" />
  <path d="M 371.5 980.5  C 374.86 980.5  377.5 983.14  377.5 986.5  C 377.5 989.86  374.86 992.5  371.5 992.5  C 368.14 992.5  365.5 989.86  365.5 986.5  C 365.5 983.14  368.14 980.5  371.5 980.5  Z " stroke-width="1" stroke-dasharray="0" stroke="rgba(121, 121, 121, 1)" fill="none" class="stroke" stroke-dashoffset="0.5" />
  <path d="M 371.5 989.75  C 369.68 989.75  368.25 988.32  368.25 986.5  C 368.25 984.68  369.68 983.25  371.5 983.25  C 373.32 983.25  374.75 984.68  374.75 986.5  C 374.75 988.32  373.32 989.75  371.5 989.75  " fill-rule="nonzero" fill="rgba(121, 121, 121, 1)" stroke="none" class="stroke btn_check" />
</svg>