<?xml version="1.0" encoding="utf-8"?>
<svg version="1.1" xmlns:xlink="http://www.w3.org/1999/xlink" width="13px" height="13px" viewBox="1164 773 13 13" xmlns="http://www.w3.org/2000/svg">
  <path d="M 1170.5 773  C 1174.14 773  1177 775.86  1177 779.5  C 1177 783.14  1174.14 786  1170.5 786  C 1166.86 786  1164 783.14  1164 779.5  C 1164 775.86  1166.86 773  1170.5 773  Z " fill-rule="nonzero" fill="rgba(255, 255, 255, 1)" stroke="none" class="fill" />
  <path d="M 1170.5 773.5  C 1173.86 773.5  1176.5 776.14  1176.5 779.5  C 1176.5 782.86  1173.86 785.5  1170.5 785.5  C 1167.14 785.5  1164.5 782.86  1164.5 779.5  C 1164.5 776.14  1167.14 773.5  1170.5 773.5  Z " stroke-width="1" stroke-dasharray="0" stroke="rgba(121, 121, 121, 1)" fill="none" class="stroke" stroke-dashoffset="0.5" />
  <path d="M 1170.5 782.75  C 1168.68 782.75  1167.25 781.32  1167.25 779.5  C 1167.25 777.68  1168.68 776.25  1170.5 776.25  C 1172.32 776.25  1173.75 777.68  1173.75 779.5  C 1173.75 781.32  1172.32 782.75  1170.5 782.75  " fill-rule="nonzero" fill="rgba(121, 121, 121, 1)" stroke="none" class="stroke btn_check" />
</svg>