<?xml version="1.0" encoding="utf-8"?>
<svg version="1.1" xmlns:xlink="http://www.w3.org/1999/xlink" width="13px" height="13px" viewBox="440 1016 13 13" xmlns="http://www.w3.org/2000/svg">
  <path d="M 446.5 1016  C 450.14 1016  453 1018.86  453 1022.5  C 453 1026.14  450.14 1029  446.5 1029  C 442.86 1029  440 1026.14  440 1022.5  C 440 1018.86  442.86 1016  446.5 1016  Z " fill-rule="nonzero" fill="rgba(255, 255, 255, 1)" stroke="none" class="fill" />
  <path d="M 446.5 1016.5  C 449.86 1016.5  452.5 1019.14  452.5 1022.5  C 452.5 1025.86  449.86 1028.5  446.5 1028.5  C 443.14 1028.5  440.5 1025.86  440.5 1022.5  C 440.5 1019.14  443.14 1016.5  446.5 1016.5  Z " stroke-width="1" stroke-dasharray="0" stroke="rgba(121, 121, 121, 1)" fill="none" class="stroke" stroke-dashoffset="0.5" />
  <path d="M 446.5 1025.75  C 444.68 1025.75  443.25 1024.32  443.25 1022.5  C 443.25 1020.68  444.68 1019.25  446.5 1019.25  C 448.32 1019.25  449.75 1020.68  449.75 1022.5  C 449.75 1024.32  448.32 1025.75  446.5 1025.75  " fill-rule="nonzero" fill="rgba(121, 121, 121, 1)" stroke="none" class="stroke btn_check" />
</svg>