<?xml version="1.0" encoding="utf-8"?>
<svg version="1.1" xmlns:xlink="http://www.w3.org/1999/xlink" width="13px" height="13px" viewBox="1164 807 13 13" xmlns="http://www.w3.org/2000/svg">
  <path d="M 1170.5 807  C 1174.14 807  1177 809.86  1177 813.5  C 1177 817.14  1174.14 820  1170.5 820  C 1166.86 820  1164 817.14  1164 813.5  C 1164 809.86  1166.86 807  1170.5 807  Z " fill-rule="nonzero" fill="rgba(255, 255, 255, 1)" stroke="none" class="fill" />
  <path d="M 1170.5 807.5  C 1173.86 807.5  1176.5 810.14  1176.5 813.5  C 1176.5 816.86  1173.86 819.5  1170.5 819.5  C 1167.14 819.5  1164.5 816.86  1164.5 813.5  C 1164.5 810.14  1167.14 807.5  1170.5 807.5  Z " stroke-width="1" stroke-dasharray="0" stroke="rgba(121, 121, 121, 1)" fill="none" class="stroke" stroke-dashoffset="0.5" />
  <path d="M 1170.5 816.75  C 1168.68 816.75  1167.25 815.32  1167.25 813.5  C 1167.25 811.68  1168.68 810.25  1170.5 810.25  C 1172.32 810.25  1173.75 811.68  1173.75 813.5  C 1173.75 815.32  1172.32 816.75  1170.5 816.75  " fill-rule="nonzero" fill="rgba(121, 121, 121, 1)" stroke="none" class="stroke btn_check" />
</svg>