<?xml version="1.0" encoding="utf-8"?>
<svg version="1.1" xmlns:xlink="http://www.w3.org/1999/xlink" width="17px" height="9px" xmlns="http://www.w3.org/2000/svg">
  <defs>
    <pattern id="BGPattern" patternUnits="userSpaceOnUse" alignment="0 0" imageRepeat="None" />
    <mask fill="white" id="Clip134">
      <path d="M 16.6845703125 0.29687500000000044  C 16.894856770833336 0.49479166666666574  17 0.7291666666666644  17 1.0000000000000004  C 17 1.2708333333333326  16.894856770833336 1.5052083333333321  16.6845703125 1.7031250000000004  L 9.2470703125 8.703125  C 9.036783854166668 8.901041666666668  8.787760416666668 9  8.5 9  C 8.212239583333334 9  7.963216145833335 8.901041666666668  7.7529296875 8.703125  L 0.3154296875 1.7031250000000004  C 0.10514322916666666 1.5052083333333321  0 1.2708333333333326  0 1.0000000000000004  C 0 0.7291666666666644  0.10514322916666666 0.49479166666666574  0.3154296875 0.29687500000000044  C 0.5257161458333334 0.09895833333333215  0.7747395833333334 0  1.0625 0  L 15.9375 0  C 16.225260416666668 0  16.474283854166668 0.09895833333333215  16.6845703125 0.29687500000000044  Z " fill-rule="evenodd" />
    </mask>
  </defs>
  <g transform="matrix(1 0 0 1 -777 -729 )">
    <path d="M 16.6845703125 0.29687500000000044  C 16.894856770833336 0.49479166666666574  17 0.7291666666666644  17 1.0000000000000004  C 17 1.2708333333333326  16.894856770833336 1.5052083333333321  16.6845703125 1.7031250000000004  L 9.2470703125 8.703125  C 9.036783854166668 8.901041666666668  8.787760416666668 9  8.5 9  C 8.212239583333334 9  7.963216145833335 8.901041666666668  7.7529296875 8.703125  L 0.3154296875 1.7031250000000004  C 0.10514322916666666 1.5052083333333321  0 1.2708333333333326  0 1.0000000000000004  C 0 0.7291666666666644  0.10514322916666666 0.49479166666666574  0.3154296875 0.29687500000000044  C 0.5257161458333334 0.09895833333333215  0.7747395833333334 0  1.0625 0  L 15.9375 0  C 16.225260416666668 0  16.474283854166668 0.09895833333333215  16.6845703125 0.29687500000000044  Z " fill-rule="nonzero" fill="rgba(0, 0, 0, 1)" stroke="none" transform="matrix(1 0 0 1 777 729 )" class="fill" />
    <path d="M 16.6845703125 0.29687500000000044  C 16.894856770833336 0.49479166666666574  17 0.7291666666666644  17 1.0000000000000004  C 17 1.2708333333333326  16.894856770833336 1.5052083333333321  16.6845703125 1.7031250000000004  L 9.2470703125 8.703125  C 9.036783854166668 8.901041666666668  8.787760416666668 9  8.5 9  C 8.212239583333334 9  7.963216145833335 8.901041666666668  7.7529296875 8.703125  L 0.3154296875 1.7031250000000004  C 0.10514322916666666 1.5052083333333321  0 1.2708333333333326  0 1.0000000000000004  C 0 0.7291666666666644  0.10514322916666666 0.49479166666666574  0.3154296875 0.29687500000000044  C 0.5257161458333334 0.09895833333333215  0.7747395833333334 0  1.0625 0  L 15.9375 0  C 16.225260416666668 0  16.474283854166668 0.09895833333333215  16.6845703125 0.29687500000000044  Z " stroke-width="0" stroke-dasharray="0" stroke="rgba(255, 255, 255, 0)" fill="none" transform="matrix(1 0 0 1 777 729 )" class="stroke" mask="url(#Clip134)" />
  </g>
</svg>