<?xml version="1.0" encoding="utf-8"?>
<svg version="1.1" xmlns:xlink="http://www.w3.org/1999/xlink" width="13px" height="13px" viewBox="365 1035 13 13" xmlns="http://www.w3.org/2000/svg">
  <path d="M 371.5 1035  C 375.14 1035  378 1037.86  378 1041.5  C 378 1045.14  375.14 1048  371.5 1048  C 367.86 1048  365 1045.14  365 1041.5  C 365 1037.86  367.86 1035  371.5 1035  Z " fill-rule="nonzero" fill="rgba(255, 255, 255, 1)" stroke="none" class="fill" />
  <path d="M 371.5 1035.5  C 374.86 1035.5  377.5 1038.14  377.5 1041.5  C 377.5 1044.86  374.86 1047.5  371.5 1047.5  C 368.14 1047.5  365.5 1044.86  365.5 1041.5  C 365.5 1038.14  368.14 1035.5  371.5 1035.5  Z " stroke-width="1" stroke-dasharray="0" stroke="rgba(121, 121, 121, 1)" fill="none" class="stroke" stroke-dashoffset="0.5" />
  <path d="M 371.5 1044.75  C 369.68 1044.75  368.25 1043.32  368.25 1041.5  C 368.25 1039.68  369.68 1038.25  371.5 1038.25  C 373.32 1038.25  374.75 1039.68  374.75 1041.5  C 374.75 1043.32  373.32 1044.75  371.5 1044.75  " fill-rule="nonzero" fill="rgba(121, 121, 121, 1)" stroke="none" class="stroke btn_check" />
</svg>