<?xml version="1.0" encoding="utf-8"?>
<svg version="1.1" xmlns:xlink="http://www.w3.org/1999/xlink" width="1980px" height="681px" xmlns="http://www.w3.org/2000/svg">
  <defs>
    <pattern id="BGPattern" patternUnits="userSpaceOnUse" alignment="0 0" imageRepeat="None" />
    <mask fill="white" id="Clip28">
      <path d="M 0 676  L 0 5  C 0 2.1999999999999997  2.2 0  5 0  L 1975 0  C 1977.8000000000002 0  1980 2.1999999999999997  1980 5  L 1980 676  C 1980 678.8000000000001  1977.8000000000002 681  1975 681  L 5 681  C 2.2 681  0 678.8000000000001  0 676  Z " fill-rule="evenodd" />
    </mask>
  </defs>
  <g transform="matrix(1 0 0 1 -45 -532 )">
    <path d="M 0 676  L 0 5  C 0 2.1999999999999997  2.2 0  5 0  L 1975 0  C 1977.8000000000002 0  1980 2.1999999999999997  1980 5  L 1980 676  C 1980 678.8000000000001  1977.8000000000002 681  1975 681  L 5 681  C 2.2 681  0 678.8000000000001  0 676  Z " fill-rule="nonzero" fill="rgba(51, 51, 51, 0)" stroke="none" transform="matrix(1 0 0 1 45 532 )" class="fill" />
    <path d="M 0 676  L 0 5  C 0 2.1999999999999997  2.2 0  5 0  L 1975 0  C 1977.8000000000002 0  1980 2.1999999999999997  1980 5  L 1980 676  C 1980 678.8000000000001  1977.8000000000002 681  1975 681  L 5 681  C 2.2 681  0 678.8000000000001  0 676  Z " stroke-width="2" stroke-dasharray="9,4" stroke="rgba(236, 128, 141, 1)" fill="none" transform="matrix(1 0 0 1 45 532 )" class="stroke" mask="url(#Clip28)" />
  </g>
</svg>