<?xml version="1.0" encoding="utf-8"?>
<svg version="1.1" xmlns:xlink="http://www.w3.org/1999/xlink" width="1842px" height="232px" xmlns="http://www.w3.org/2000/svg">
  <defs>
    <pattern id="BGPattern" patternUnits="userSpaceOnUse" alignment="0 0" imageRepeat="None" />
    <mask fill="white" id="Clip2">
      <path d="M 0 223  L 0 9  C 0 3.9599999999999995  3.9599999999999995 0  9 0  L 1833 0  C 1838.0400000000002 0  1842 3.9599999999999995  1842 9  L 1842 223  C 1842 228.04000000000002  1838.0400000000002 232  1833 232  L 9 232  C 3.9599999999999995 232  0 228.04000000000002  0 223  Z " fill-rule="evenodd" />
    </mask>
  </defs>
  <g transform="matrix(1 0 0 1 -30 -769 )">
    <path d="M 0 223  L 0 9  C 0 3.9599999999999995  3.9599999999999995 0  9 0  L 1833 0  C 1838.0400000000002 0  1842 3.9599999999999995  1842 9  L 1842 223  C 1842 228.04000000000002  1838.0400000000002 232  1833 232  L 9 232  C 3.9599999999999995 232  0 228.04000000000002  0 223  Z " fill-rule="nonzero" fill="rgba(255, 255, 255, 1)" stroke="none" transform="matrix(1 0 0 1 30 769 )" class="fill" />
    <path d="M 0 223  L 0 9  C 0 3.9599999999999995  3.9599999999999995 0  9 0  L 1833 0  C 1838.0400000000002 0  1842 3.9599999999999995  1842 9  L 1842 223  C 1842 228.04000000000002  1838.0400000000002 232  1833 232  L 9 232  C 3.9599999999999995 232  0 228.04000000000002  0 223  Z " stroke-width="2" stroke-dasharray="9,4" stroke="rgba(236, 128, 141, 1)" fill="none" transform="matrix(1 0 0 1 30 769 )" class="stroke" mask="url(#Clip2)" />
  </g>
</svg>