<?xml version="1.0" encoding="utf-8"?>
<svg version="1.1" xmlns:xlink="http://www.w3.org/1999/xlink" width="11px" height="19px" xmlns="http://www.w3.org/2000/svg">
  <defs>
    <pattern id="BGPattern" patternUnits="userSpaceOnUse" alignment="0 0" imageRepeat="None" />
    <mask fill="white" id="Clip121">
      <path d="M 10.810996563573882 1.1422845691382757  C 10.93699885452463 1.2692050768203051  11 1.41516366065464  11 1.580160320641283  C 11 1.7451569806279217  10.93699885452463 1.891115564462257  10.810996563573882 2.0180360721442883  L 3.383161512027492 9.5  L 10.810996563573882 16.981963927855713  C 10.93699885452463 17.108884435537743  11 17.254843019372075  11 17.419839679358716  C 11 17.584836339345358  10.93699885452463 17.73079492317969  10.810996563573882 17.857715430861724  L 9.8659793814433 18.809619238476955  C 9.739977090492555 18.936539746158985  9.5950744558992 19  9.43127147766323 19  C 9.267468499427263 19  9.122565864833907 18.936539746158985  8.996563573883162 18.809619238476955  L 0.18900343642611686 9.937875751503006  C 0.06300114547537232 9.810955243820974  0 9.664996659986638  0 9.5  C 0 9.335003340013358  0.06300114547537232 9.189044756179024  0.18900343642611686 9.062124248496994  L 8.996563573883162 0.19038076152304628  C 9.122565864833907 0.06346025384101472  9.267468499427263 0  9.43127147766323 0  C 9.5950744558992 0  9.739977090492555 0.06346025384101472  9.8659793814433 0.19038076152304628  L 10.810996563573882 1.1422845691382757  Z " fill-rule="evenodd" />
    </mask>
  </defs>
  <g transform="matrix(1 0 0 1 -63 -48 )">
    <path d="M 10.810996563573882 1.1422845691382757  C 10.93699885452463 1.2692050768203051  11 1.41516366065464  11 1.580160320641283  C 11 1.7451569806279217  10.93699885452463 1.891115564462257  10.810996563573882 2.0180360721442883  L 3.383161512027492 9.5  L 10.810996563573882 16.981963927855713  C 10.93699885452463 17.108884435537743  11 17.254843019372075  11 17.419839679358716  C 11 17.584836339345358  10.93699885452463 17.73079492317969  10.810996563573882 17.857715430861724  L 9.8659793814433 18.809619238476955  C 9.739977090492555 18.936539746158985  9.5950744558992 19  9.43127147766323 19  C 9.267468499427263 19  9.122565864833907 18.936539746158985  8.996563573883162 18.809619238476955  L 0.18900343642611686 9.937875751503006  C 0.06300114547537232 9.810955243820974  0 9.664996659986638  0 9.5  C 0 9.335003340013358  0.06300114547537232 9.189044756179024  0.18900343642611686 9.062124248496994  L 8.996563573883162 0.19038076152304628  C 9.122565864833907 0.06346025384101472  9.267468499427263 0  9.43127147766323 0  C 9.5950744558992 0  9.739977090492555 0.06346025384101472  9.8659793814433 0.19038076152304628  L 10.810996563573882 1.1422845691382757  Z " fill-rule="nonzero" fill="rgba(0, 0, 0, 1)" stroke="none" transform="matrix(1 0 0 1 63 48 )" class="fill" />
    <path d="M 10.810996563573882 1.1422845691382757  C 10.93699885452463 1.2692050768203051  11 1.41516366065464  11 1.580160320641283  C 11 1.7451569806279217  10.93699885452463 1.891115564462257  10.810996563573882 2.0180360721442883  L 3.383161512027492 9.5  L 10.810996563573882 16.981963927855713  C 10.93699885452463 17.108884435537743  11 17.254843019372075  11 17.419839679358716  C 11 17.584836339345358  10.93699885452463 17.73079492317969  10.810996563573882 17.857715430861724  L 9.8659793814433 18.809619238476955  C 9.739977090492555 18.936539746158985  9.5950744558992 19  9.43127147766323 19  C 9.267468499427263 19  9.122565864833907 18.936539746158985  8.996563573883162 18.809619238476955  L 0.18900343642611686 9.937875751503006  C 0.06300114547537232 9.810955243820974  0 9.664996659986638  0 9.5  C 0 9.335003340013358  0.06300114547537232 9.189044756179024  0.18900343642611686 9.062124248496994  L 8.996563573883162 0.19038076152304628  C 9.122565864833907 0.06346025384101472  9.267468499427263 0  9.43127147766323 0  C 9.5950744558992 0  9.739977090492555 0.06346025384101472  9.8659793814433 0.19038076152304628  L 10.810996563573882 1.1422845691382757  Z " stroke-width="0" stroke-dasharray="0" stroke="rgba(255, 255, 255, 0)" fill="none" transform="matrix(1 0 0 1 63 48 )" class="stroke" mask="url(#Clip121)" />
  </g>
</svg>