<?xml version="1.0" encoding="utf-8"?>
<svg version="1.1" xmlns:xlink="http://www.w3.org/1999/xlink" width="13px" height="7px" xmlns="http://www.w3.org/2000/svg">
  <defs>
    <pattern id="BGPattern" patternUnits="userSpaceOnUse" alignment="0 0" imageRepeat="None" />
    <mask fill="white" id="Clip285">
      <path d="M 12.869739478957916 0.7216494845360822  C 12.956579826319306 0.8018327605956451  13 0.8940435280641458  13 0.9982817869415811  C 13 1.102520045819014  12.956579826319306 1.1947308132875132  12.869739478957916 1.2749140893470792  L 6.799599198396793 6.8797250859106525  C 6.712758851035405 6.959908361970215  6.612892451569807 7  6.5 7  C 6.387107548430195 7  6.287241148964597 6.959908361970215  6.200400801603206 6.8797250859106525  L 0.13026052104208416 1.2749140893470792  C 0.04342017368069485 1.1947308132875132  0 1.102520045819014  0 0.9982817869415811  C 0 0.8940435280641458  0.04342017368069485 0.8018327605956451  0.13026052104208416 0.7216494845360822  L 0.781563126252505 0.12027491408934743  C 0.8684034736138947 0.04009163802978144  0.9682698730794924 0  1.0811623246492985 0  C 1.1940547762191052 0  1.2939211756847029 0.04009163802978144  1.3807615230460921 0.12027491408934743  L 6.5 4.847079037800687  L 11.619238476953909 0.12027491408934743  C 11.706078824315298 0.04009163802978144  11.805945223780896 0  11.918837675350701 0  C 12.03173012692051 0  12.131596526386106 0.04009163802978144  12.218436873747496 0.12027491408934743  L 12.869739478957916 0.7216494845360822  Z " fill-rule="evenodd" />
    </mask>
  </defs>
  <g transform="matrix(1 0 0 1 -558 -126 )">
    <path d="M 12.869739478957916 0.7216494845360822  C 12.956579826319306 0.8018327605956451  13 0.8940435280641458  13 0.9982817869415811  C 13 1.102520045819014  12.956579826319306 1.1947308132875132  12.869739478957916 1.2749140893470792  L 6.799599198396793 6.8797250859106525  C 6.712758851035405 6.959908361970215  6.612892451569807 7  6.5 7  C 6.387107548430195 7  6.287241148964597 6.959908361970215  6.200400801603206 6.8797250859106525  L 0.13026052104208416 1.2749140893470792  C 0.04342017368069485 1.1947308132875132  0 1.102520045819014  0 0.9982817869415811  C 0 0.8940435280641458  0.04342017368069485 0.8018327605956451  0.13026052104208416 0.7216494845360822  L 0.781563126252505 0.12027491408934743  C 0.8684034736138947 0.04009163802978144  0.9682698730794924 0  1.0811623246492985 0  C 1.1940547762191052 0  1.2939211756847029 0.04009163802978144  1.3807615230460921 0.12027491408934743  L 6.5 4.847079037800687  L 11.619238476953909 0.12027491408934743  C 11.706078824315298 0.04009163802978144  11.805945223780896 0  11.918837675350701 0  C 12.03173012692051 0  12.131596526386106 0.04009163802978144  12.218436873747496 0.12027491408934743  L 12.869739478957916 0.7216494845360822  Z " fill-rule="nonzero" fill="rgba(170, 170, 170, 1)" stroke="none" transform="matrix(1 0 0 1 558 126 )" class="fill" />
    <path d="M 12.869739478957916 0.7216494845360822  C 12.956579826319306 0.8018327605956451  13 0.8940435280641458  13 0.9982817869415811  C 13 1.102520045819014  12.956579826319306 1.1947308132875132  12.869739478957916 1.2749140893470792  L 6.799599198396793 6.8797250859106525  C 6.712758851035405 6.959908361970215  6.612892451569807 7  6.5 7  C 6.387107548430195 7  6.287241148964597 6.959908361970215  6.200400801603206 6.8797250859106525  L 0.13026052104208416 1.2749140893470792  C 0.04342017368069485 1.1947308132875132  0 1.102520045819014  0 0.9982817869415811  C 0 0.8940435280641458  0.04342017368069485 0.8018327605956451  0.13026052104208416 0.7216494845360822  L 0.781563126252505 0.12027491408934743  C 0.8684034736138947 0.04009163802978144  0.9682698730794924 0  1.0811623246492985 0  C 1.1940547762191052 0  1.2939211756847029 0.04009163802978144  1.3807615230460921 0.12027491408934743  L 6.5 4.847079037800687  L 11.619238476953909 0.12027491408934743  C 11.706078824315298 0.04009163802978144  11.805945223780896 0  11.918837675350701 0  C 12.03173012692051 0  12.131596526386106 0.04009163802978144  12.218436873747496 0.12027491408934743  L 12.869739478957916 0.7216494845360822  Z " stroke-width="0" stroke-dasharray="0" stroke="rgba(255, 255, 255, 0)" fill="none" transform="matrix(1 0 0 1 558 126 )" class="stroke" mask="url(#Clip285)" />
  </g>
</svg>