<?xml version="1.0" encoding="utf-8"?>
<svg version="1.1" xmlns:xlink="http://www.w3.org/1999/xlink" width="50px" height="43px" xmlns="http://www.w3.org/2000/svg">
  <defs>
    <pattern id="BGPattern" patternUnits="userSpaceOnUse" alignment="0 0" imageRepeat="None" />
    <mask fill="white" id="Clip213">
      <path d="M 6.6127232142857135 35.301432291666664  C 6.966145833333334 34.94683159722222  7.142857142857142 34.52690972222222  7.142857142857142 34.041666666666664  C 7.142857142857142 33.556423611111114  6.966145833333334 33.136501736111114  6.6127232142857135 32.781901041666664  C 6.259300595238096 32.42730034722222  5.840773809523809 32.25  5.357142857142857 32.25  C 4.873511904761905 32.25  4.4549851190476195 32.42730034722222  4.1015625 32.781901041666664  C 3.7481398809523814 33.136501736111114  3.571428571428571 33.556423611111114  3.571428571428571 34.041666666666664  C 3.571428571428571 34.52690972222222  3.7481398809523814 34.94683159722222  4.1015625 35.301432291666664  C 4.4549851190476195 35.656032986111114  4.873511904761905 35.833333333333336  5.357142857142857 35.833333333333336  C 5.840773809523809 35.833333333333336  6.259300595238096 35.656032986111114  6.6127232142857135 35.301432291666664  Z M 45.36830357142857 20.436197916666664  C 46.07514880952381 19.726996527777775  46.42857142857143 18.887152777777775  46.42857142857143 17.916666666666664  C 46.42857142857143 16.964843749999996  46.065848214285715 16.129665798611104  45.340401785714285 15.4111328125  C 44.614955357142854 14.692599826388886  43.78720238095239 14.333333333333336  42.857142857142854 15  L 26.785714285714285 15  C 26.785714285714292 13.96006944444444  26.925223214285715 13.507486979166664  27.20424107142857 12.9755859375  C 27.48325892857143 12.443684895833336  27.790178571428577 11.930447048611105  28.125 11.435872395833336  C 28.45982142857143 10.941297743055555  28.76674107142857 10.30674913194444  29.04575892857143 9.5322265625  C 29.324776785714285 8.757703993055555  29.464285714285715 7.969184027777775  29.464285714285715 7.166666666666665  C 29.464285714285715 5.916232638888885  29.050409226190478 5.00640190972222  28.22265625 4.437174479166665  C 27.394903273809522 3.8679470486111054  26.320684523809522 3.583333333333335  25 3.583333333333335  C 24.553571428571427 3.583333333333335  23.716517857142858 4.88042534722222  22.488839285714285 7.474609375  C 22.042410714285715 8.295789930555555  21.698288690476193 8.90234375  21.456473214285715 9.294270833333336  C 20.712425595238095 10.488715277777775  19.670758928571427 11.841796875  18.331473214285715 13.353515625  C 17.010788690476193 14.865234375  16.071428571428573 15.854383680555555  15.513392857142858 16.320963541666664  C 14.229910714285715 17.384765625  12.927827380952381 17.916666666666664  11.607142857142858 17.916666666666664  L 11 17.916666666666664  L 11 35.833333333333336  L 11.607142857142858 35.833333333333336  C 12.946428571428573 35.833333333333336  14.49962797619048 36.13194444444444  16.266741071428573 36.729166666666664  C 18.033854166666668 37.326388888888886  19.833519345238095 37.923611111111114  21.665736607142858 38.520833333333336  C 23.49795386904762 39.11805555555556  25.167410714285715 39.416666666666664  26.674107142857146 39.416666666666664  C 30.189732142857146 39.416666666666664  31.947544642857146 37.85828993055556  31.947544642857146 34.741536458333336  C 31.947544642857146 34.25629340277778  31.901041666666668 33.733723958333336  31.808035714285715 33.173828125  C 32.36607142857143 32.875217013888886  32.807849702380956 32.38530815972222  33.133370535714285 31.7041015625  C 33.45889136904762 31.02289496527777  33.621651785714285 30.33702256944444  33.621651785714285 29.646484375  C 33.621651785714285 28.95594618055555  33.45424107142857 28.31206597222222  33.119419642857146 27.71484375  C 34.10528273809524 26.78168402777777  34.598214285714285 25.67122395833333  34.598214285714285 24.38346354166667  C 34.598214285714285 23.91688368055555  34.505208333333336 23.39898003472222  34.31919642857143 22.82975260416667  C 34.133184523809526 22.26052517361111  33.900669642857146 21.81727430555555  33.621651785714285 21.5  L 42.857142857142854 21.5  C 43.82440476190476 21.5  44.661458333333336 21.145399305555554  45.36830357142857 20.436197916666664  Z M 47.879464285714285 12.877604166666664  C 49.29315476190476 14.29600694444444  50 15.96636284722222  50 17.888671875  C 50 19.848307291666664  49.29780505952381 21.53732638888889  47.89341517857143 22.95572916666667  C 46.48902529761906 24.37413194444444  44.81026785714287 25.08333333333333  42.857142857142854 25.08333333333333  L 38.14174107142857 25.08333333333333  C 38.06733630952381 26.24045138888889  37.723214285714285 27.35091145833333  37.109375 28.41471354166667  C 37.16517857142857 28.806640625  37.193080357142854 29.20789930555555  37.193080357142854 29.61848958333333  C 37.193080357142854 31.50347222222222  36.635044642857146 33.16449652777778  35.518973214285715 34.6015625  C 35.537574404761905 37.19574652777778  34.74702380952381 39.24403211805556  33.14732142857143 40.746419270833336  C 31.54761904761905 42.248806423611114  29.43638392857143 43  26.81361607142857 43  C 24.33965773809524 43  21.344866071428577 42.356119791666664  17.829241071428573 41.068359375  C 14.778645833333334 39.96723090277778  12.704613095238097 39.416666666666664  11.607142857142858 39.416666666666664  L 3.571428571428571 39.416666666666664  C 2.5855654761904763 39.416666666666664  1.7438616071428572 39.066731770833336  1.0463169642857142 38.366861979166664  C 0.34877232142857145 37.6669921875  0 36.822482638888886  0 35.833333333333336  L 0 17.916666666666664  C 0 16.92751736111111  0.34877232142857145 16.0830078125  1.0463169642857142 15.383138020833336  C 1.7438616071428572 14.683268229166664  2.5855654761904763 14.333333333333336  3.571428571428571 14.333333333333336  L 11.607142857142858 14.333333333333336  C 11.793154761904765 14.333333333333336  11.99311755952381 14.291341145833336  12.20703125 14.207356770833336  C 12.42094494047619 14.123372395833336  12.639508928571427 13.99273003472222  12.862723214285715 13.8154296875  C 13.0859375 13.638129340277775  13.295200892857142 13.470160590277775  13.490513392857142 13.3115234375  C 13.685825892857142 13.15288628472222  13.909040178571427 12.94292534722222  14.16015625 12.681640625  C 14.411272321428573 12.420355902777775  14.601934523809526 12.2197265625  14.732142857142858 12.079752604166664  C 14.862351190476192 11.939778645833336  15.0390625 11.739149305555555  15.262276785714285 11.477864583333336  C 15.485491071428573 11.216579861111105  15.615699404761907 11.057942708333336  15.652901785714285 11.001953125  C 16.861979166666668 9.620876736111105  17.792038690476193 8.41710069444444  18.443080357142858 7.390625  C 18.684895833333336 6.998697916666665  18.991815476190478 6.420138888888885  19.363839285714285 5.654947916666665  C 19.735863095238095 4.88975694444444  20.07998511904762 4.21788194444444  20.396205357142858 3.639322916666665  C 20.712425595238095 3.0607638888888853  21.089099702380953 2.4728732638888853  21.526227678571427 1.8756510416666652  C 21.963355654761905 1.2784288194444402  22.474888392857146 0.8165147569444402  23.060825892857142 0.4899088541666651  C 23.646763392857146 0.16330295138888518  24.293154761904763 0  25 0  C 27.325148809523807 0  29.245721726190478 0.6252170138888852  30.76171875 1.8756510416666652  C 32.277715773809526 3.12608506944444  33.035714285714285 4.88975694444444  33.035714285714285 7.166666666666665  C 33.035714285714285 8.435763888888886  32.83110119047619 9.630208333333336  32.421875 11  L 42.857142857142854 11  C 44.79166666666667 10.75  46.46577380952381 11.459201388888886  47.879464285714285 12.877604166666664  Z " fill-rule="evenodd" />
    </mask>
  </defs>
  <g transform="matrix(1 0 0 1 -475 -548 )">
    <path d="M 6.6127232142857135 35.301432291666664  C 6.966145833333334 34.94683159722222  7.142857142857142 34.52690972222222  7.142857142857142 34.041666666666664  C 7.142857142857142 33.556423611111114  6.966145833333334 33.136501736111114  6.6127232142857135 32.781901041666664  C 6.259300595238096 32.42730034722222  5.840773809523809 32.25  5.357142857142857 32.25  C 4.873511904761905 32.25  4.4549851190476195 32.42730034722222  4.1015625 32.781901041666664  C 3.7481398809523814 33.136501736111114  3.571428571428571 33.556423611111114  3.571428571428571 34.041666666666664  C 3.571428571428571 34.52690972222222  3.7481398809523814 34.94683159722222  4.1015625 35.301432291666664  C 4.4549851190476195 35.656032986111114  4.873511904761905 35.833333333333336  5.357142857142857 35.833333333333336  C 5.840773809523809 35.833333333333336  6.259300595238096 35.656032986111114  6.6127232142857135 35.301432291666664  Z M 45.36830357142857 20.436197916666664  C 46.07514880952381 19.726996527777775  46.42857142857143 18.887152777777775  46.42857142857143 17.916666666666664  C 46.42857142857143 16.964843749999996  46.065848214285715 16.129665798611104  45.340401785714285 15.4111328125  C 44.614955357142854 14.692599826388886  43.78720238095239 14.333333333333336  42.857142857142854 15  L 26.785714285714285 15  C 26.785714285714292 13.96006944444444  26.925223214285715 13.507486979166664  27.20424107142857 12.9755859375  C 27.48325892857143 12.443684895833336  27.790178571428577 11.930447048611105  28.125 11.435872395833336  C 28.45982142857143 10.941297743055555  28.76674107142857 10.30674913194444  29.04575892857143 9.5322265625  C 29.324776785714285 8.757703993055555  29.464285714285715 7.969184027777775  29.464285714285715 7.166666666666665  C 29.464285714285715 5.916232638888885  29.050409226190478 5.00640190972222  28.22265625 4.437174479166665  C 27.394903273809522 3.8679470486111054  26.320684523809522 3.583333333333335  25 3.583333333333335  C 24.553571428571427 3.583333333333335  23.716517857142858 4.88042534722222  22.488839285714285 7.474609375  C 22.042410714285715 8.295789930555555  21.698288690476193 8.90234375  21.456473214285715 9.294270833333336  C 20.712425595238095 10.488715277777775  19.670758928571427 11.841796875  18.331473214285715 13.353515625  C 17.010788690476193 14.865234375  16.071428571428573 15.854383680555555  15.513392857142858 16.320963541666664  C 14.229910714285715 17.384765625  12.927827380952381 17.916666666666664  11.607142857142858 17.916666666666664  L 11 17.916666666666664  L 11 35.833333333333336  L 11.607142857142858 35.833333333333336  C 12.946428571428573 35.833333333333336  14.49962797619048 36.13194444444444  16.266741071428573 36.729166666666664  C 18.033854166666668 37.326388888888886  19.833519345238095 37.923611111111114  21.665736607142858 38.520833333333336  C 23.49795386904762 39.11805555555556  25.167410714285715 39.416666666666664  26.674107142857146 39.416666666666664  C 30.189732142857146 39.416666666666664  31.947544642857146 37.85828993055556  31.947544642857146 34.741536458333336  C 31.947544642857146 34.25629340277778  31.901041666666668 33.733723958333336  31.808035714285715 33.173828125  C 32.36607142857143 32.875217013888886  32.807849702380956 32.38530815972222  33.133370535714285 31.7041015625  C 33.45889136904762 31.02289496527777  33.621651785714285 30.33702256944444  33.621651785714285 29.646484375  C 33.621651785714285 28.95594618055555  33.45424107142857 28.31206597222222  33.119419642857146 27.71484375  C 34.10528273809524 26.78168402777777  34.598214285714285 25.67122395833333  34.598214285714285 24.38346354166667  C 34.598214285714285 23.91688368055555  34.505208333333336 23.39898003472222  34.31919642857143 22.82975260416667  C 34.133184523809526 22.26052517361111  33.900669642857146 21.81727430555555  33.621651785714285 21.5  L 42.857142857142854 21.5  C 43.82440476190476 21.5  44.661458333333336 21.145399305555554  45.36830357142857 20.436197916666664  Z M 47.879464285714285 12.877604166666664  C 49.29315476190476 14.29600694444444  50 15.96636284722222  50 17.888671875  C 50 19.848307291666664  49.29780505952381 21.53732638888889  47.89341517857143 22.95572916666667  C 46.48902529761906 24.37413194444444  44.81026785714287 25.08333333333333  42.857142857142854 25.08333333333333  L 38.14174107142857 25.08333333333333  C 38.06733630952381 26.24045138888889  37.723214285714285 27.35091145833333  37.109375 28.41471354166667  C 37.16517857142857 28.806640625  37.193080357142854 29.20789930555555  37.193080357142854 29.61848958333333  C 37.193080357142854 31.50347222222222  36.635044642857146 33.16449652777778  35.518973214285715 34.6015625  C 35.537574404761905 37.19574652777778  34.74702380952381 39.24403211805556  33.14732142857143 40.746419270833336  C 31.54761904761905 42.248806423611114  29.43638392857143 43  26.81361607142857 43  C 24.33965773809524 43  21.344866071428577 42.356119791666664  17.829241071428573 41.068359375  C 14.778645833333334 39.96723090277778  12.704613095238097 39.416666666666664  11.607142857142858 39.416666666666664  L 3.571428571428571 39.416666666666664  C 2.5855654761904763 39.416666666666664  1.7438616071428572 39.066731770833336  1.0463169642857142 38.366861979166664  C 0.34877232142857145 37.6669921875  0 36.822482638888886  0 35.833333333333336  L 0 17.916666666666664  C 0 16.92751736111111  0.34877232142857145 16.0830078125  1.0463169642857142 15.383138020833336  C 1.7438616071428572 14.683268229166664  2.5855654761904763 14.333333333333336  3.571428571428571 14.333333333333336  L 11.607142857142858 14.333333333333336  C 11.793154761904765 14.333333333333336  11.99311755952381 14.291341145833336  12.20703125 14.207356770833336  C 12.42094494047619 14.123372395833336  12.639508928571427 13.99273003472222  12.862723214285715 13.8154296875  C 13.0859375 13.638129340277775  13.295200892857142 13.470160590277775  13.490513392857142 13.3115234375  C 13.685825892857142 13.15288628472222  13.909040178571427 12.94292534722222  14.16015625 12.681640625  C 14.411272321428573 12.420355902777775  14.601934523809526 12.2197265625  14.732142857142858 12.079752604166664  C 14.862351190476192 11.939778645833336  15.0390625 11.739149305555555  15.262276785714285 11.477864583333336  C 15.485491071428573 11.216579861111105  15.615699404761907 11.057942708333336  15.652901785714285 11.001953125  C 16.861979166666668 9.620876736111105  17.792038690476193 8.41710069444444  18.443080357142858 7.390625  C 18.684895833333336 6.998697916666665  18.991815476190478 6.420138888888885  19.363839285714285 5.654947916666665  C 19.735863095238095 4.88975694444444  20.07998511904762 4.21788194444444  20.396205357142858 3.639322916666665  C 20.712425595238095 3.0607638888888853  21.089099702380953 2.4728732638888853  21.526227678571427 1.8756510416666652  C 21.963355654761905 1.2784288194444402  22.474888392857146 0.8165147569444402  23.060825892857142 0.4899088541666651  C 23.646763392857146 0.16330295138888518  24.293154761904763 0  25 0  C 27.325148809523807 0  29.245721726190478 0.6252170138888852  30.76171875 1.8756510416666652  C 32.277715773809526 3.12608506944444  33.035714285714285 4.88975694444444  33.035714285714285 7.166666666666665  C 33.035714285714285 8.435763888888886  32.83110119047619 9.630208333333336  32.421875 11  L 42.857142857142854 11  C 44.79166666666667 10.75  46.46577380952381 11.459201388888886  47.879464285714285 12.877604166666664  Z " fill-rule="nonzero" fill="rgba(0, 0, 0, 1)" stroke="none" transform="matrix(1 0 0 1 475 548 )" class="fill" />
    <path d="M 6.6127232142857135 35.301432291666664  C 6.966145833333334 34.94683159722222  7.142857142857142 34.52690972222222  7.142857142857142 34.041666666666664  C 7.142857142857142 33.556423611111114  6.966145833333334 33.136501736111114  6.6127232142857135 32.781901041666664  C 6.259300595238096 32.42730034722222  5.840773809523809 32.25  5.357142857142857 32.25  C 4.873511904761905 32.25  4.4549851190476195 32.42730034722222  4.1015625 32.781901041666664  C 3.7481398809523814 33.136501736111114  3.571428571428571 33.556423611111114  3.571428571428571 34.041666666666664  C 3.571428571428571 34.52690972222222  3.7481398809523814 34.94683159722222  4.1015625 35.301432291666664  C 4.4549851190476195 35.656032986111114  4.873511904761905 35.833333333333336  5.357142857142857 35.833333333333336  C 5.840773809523809 35.833333333333336  6.259300595238096 35.656032986111114  6.6127232142857135 35.301432291666664  Z " stroke-width="0" stroke-dasharray="0" stroke="rgba(255, 255, 255, 0)" fill="none" transform="matrix(1 0 0 1 475 548 )" class="stroke" mask="url(#Clip213)" />
    <path d="M 45.36830357142857 20.436197916666664  C 46.07514880952381 19.726996527777775  46.42857142857143 18.887152777777775  46.42857142857143 17.916666666666664  C 46.42857142857143 16.964843749999996  46.065848214285715 16.129665798611104  45.340401785714285 15.4111328125  C 44.614955357142854 14.692599826388886  43.78720238095239 14.333333333333336  42.857142857142854 15  L 26.785714285714285 15  C 26.785714285714292 13.96006944444444  26.925223214285715 13.507486979166664  27.20424107142857 12.9755859375  C 27.48325892857143 12.443684895833336  27.790178571428577 11.930447048611105  28.125 11.435872395833336  C 28.45982142857143 10.941297743055555  28.76674107142857 10.30674913194444  29.04575892857143 9.5322265625  C 29.324776785714285 8.757703993055555  29.464285714285715 7.969184027777775  29.464285714285715 7.166666666666665  C 29.464285714285715 5.916232638888885  29.050409226190478 5.00640190972222  28.22265625 4.437174479166665  C 27.394903273809522 3.8679470486111054  26.320684523809522 3.583333333333335  25 3.583333333333335  C 24.553571428571427 3.583333333333335  23.716517857142858 4.88042534722222  22.488839285714285 7.474609375  C 22.042410714285715 8.295789930555555  21.698288690476193 8.90234375  21.456473214285715 9.294270833333336  C 20.712425595238095 10.488715277777775  19.670758928571427 11.841796875  18.331473214285715 13.353515625  C 17.010788690476193 14.865234375  16.071428571428573 15.854383680555555  15.513392857142858 16.320963541666664  C 14.229910714285715 17.384765625  12.927827380952381 17.916666666666664  11.607142857142858 17.916666666666664  L 11 17.916666666666664  L 11 35.833333333333336  L 11.607142857142858 35.833333333333336  C 12.946428571428573 35.833333333333336  14.49962797619048 36.13194444444444  16.266741071428573 36.729166666666664  C 18.033854166666668 37.326388888888886  19.833519345238095 37.923611111111114  21.665736607142858 38.520833333333336  C 23.49795386904762 39.11805555555556  25.167410714285715 39.416666666666664  26.674107142857146 39.416666666666664  C 30.189732142857146 39.416666666666664  31.947544642857146 37.85828993055556  31.947544642857146 34.741536458333336  C 31.947544642857146 34.25629340277778  31.901041666666668 33.733723958333336  31.808035714285715 33.173828125  C 32.36607142857143 32.875217013888886  32.807849702380956 32.38530815972222  33.133370535714285 31.7041015625  C 33.45889136904762 31.02289496527777  33.621651785714285 30.33702256944444  33.621651785714285 29.646484375  C 33.621651785714285 28.95594618055555  33.45424107142857 28.31206597222222  33.119419642857146 27.71484375  C 34.10528273809524 26.78168402777777  34.598214285714285 25.67122395833333  34.598214285714285 24.38346354166667  C 34.598214285714285 23.91688368055555  34.505208333333336 23.39898003472222  34.31919642857143 22.82975260416667  C 34.133184523809526 22.26052517361111  33.900669642857146 21.81727430555555  33.621651785714285 21.5  L 42.857142857142854 21.5  C 43.82440476190476 21.5  44.661458333333336 21.145399305555554  45.36830357142857 20.436197916666664  Z " stroke-width="0" stroke-dasharray="0" stroke="rgba(255, 255, 255, 0)" fill="none" transform="matrix(1 0 0 1 475 548 )" class="stroke" mask="url(#Clip213)" />
    <path d="M 47.879464285714285 12.877604166666664  C 49.29315476190476 14.29600694444444  50 15.96636284722222  50 17.888671875  C 50 19.848307291666664  49.29780505952381 21.53732638888889  47.89341517857143 22.95572916666667  C 46.48902529761906 24.37413194444444  44.81026785714287 25.08333333333333  42.857142857142854 25.08333333333333  L 38.14174107142857 25.08333333333333  C 38.06733630952381 26.24045138888889  37.723214285714285 27.35091145833333  37.109375 28.41471354166667  C 37.16517857142857 28.806640625  37.193080357142854 29.20789930555555  37.193080357142854 29.61848958333333  C 37.193080357142854 31.50347222222222  36.635044642857146 33.16449652777778  35.518973214285715 34.6015625  C 35.537574404761905 37.19574652777778  34.74702380952381 39.24403211805556  33.14732142857143 40.746419270833336  C 31.54761904761905 42.248806423611114  29.43638392857143 43  26.81361607142857 43  C 24.33965773809524 43  21.344866071428577 42.356119791666664  17.829241071428573 41.068359375  C 14.778645833333334 39.96723090277778  12.704613095238097 39.416666666666664  11.607142857142858 39.416666666666664  L 3.571428571428571 39.416666666666664  C 2.5855654761904763 39.416666666666664  1.7438616071428572 39.066731770833336  1.0463169642857142 38.366861979166664  C 0.34877232142857145 37.6669921875  0 36.822482638888886  0 35.833333333333336  L 0 17.916666666666664  C 0 16.92751736111111  0.34877232142857145 16.0830078125  1.0463169642857142 15.383138020833336  C 1.7438616071428572 14.683268229166664  2.5855654761904763 14.333333333333336  3.571428571428571 14.333333333333336  L 11.607142857142858 14.333333333333336  C 11.793154761904765 14.333333333333336  11.99311755952381 14.291341145833336  12.20703125 14.207356770833336  C 12.42094494047619 14.123372395833336  12.639508928571427 13.99273003472222  12.862723214285715 13.8154296875  C 13.0859375 13.638129340277775  13.295200892857142 13.470160590277775  13.490513392857142 13.3115234375  C 13.685825892857142 13.15288628472222  13.909040178571427 12.94292534722222  14.16015625 12.681640625  C 14.411272321428573 12.420355902777775  14.601934523809526 12.2197265625  14.732142857142858 12.079752604166664  C 14.862351190476192 11.939778645833336  15.0390625 11.739149305555555  15.262276785714285 11.477864583333336  C 15.485491071428573 11.216579861111105  15.615699404761907 11.057942708333336  15.652901785714285 11.001953125  C 16.861979166666668 9.620876736111105  17.792038690476193 8.41710069444444  18.443080357142858 7.390625  C 18.684895833333336 6.998697916666665  18.991815476190478 6.420138888888885  19.363839285714285 5.654947916666665  C 19.735863095238095 4.88975694444444  20.07998511904762 4.21788194444444  20.396205357142858 3.639322916666665  C 20.712425595238095 3.0607638888888853  21.089099702380953 2.4728732638888853  21.526227678571427 1.8756510416666652  C 21.963355654761905 1.2784288194444402  22.474888392857146 0.8165147569444402  23.060825892857142 0.4899088541666651  C 23.646763392857146 0.16330295138888518  24.293154761904763 0  25 0  C 27.325148809523807 0  29.245721726190478 0.6252170138888852  30.76171875 1.8756510416666652  C 32.277715773809526 3.12608506944444  33.035714285714285 4.88975694444444  33.035714285714285 7.166666666666665  C 33.035714285714285 8.435763888888886  32.83110119047619 9.630208333333336  32.421875 11  L 42.857142857142854 11  C 44.79166666666667 10.75  46.46577380952381 11.459201388888886  47.879464285714285 12.877604166666664  Z " stroke-width="0" stroke-dasharray="0" stroke="rgba(255, 255, 255, 0)" fill="none" transform="matrix(1 0 0 1 475 548 )" class="stroke" mask="url(#Clip213)" />
  </g>
</svg>