<?xml version="1.0" encoding="utf-8"?>
<svg version="1.1" xmlns:xlink="http://www.w3.org/1999/xlink" width="18px" height="13px" xmlns="http://www.w3.org/2000/svg">
  <defs>
    <pattern id="BGPattern" patternUnits="userSpaceOnUse" alignment="0 0" imageRepeat="None" />
    <mask fill="white" id="Clip215">
      <path d="M 0 13  L 0 0  L 18 0  L 18 13  L 0 13  Z " fill-rule="evenodd" />
    </mask>
  </defs>
  <g transform="matrix(1 0 0 1 -1298 -1852 )">
    <path d="M 0 13  L 0 0  L 18 0  L 18 13  L 0 13  Z " fill-rule="nonzero" fill="rgba(242, 242, 242, 1)" stroke="none" transform="matrix(1 0 0 1 1298 1852 )" class="fill" />
    <path d="M 0 13  L 0 0  L 18 0  L 18 13  L 0 13  Z " stroke-width="2" stroke-dasharray="0" stroke="rgba(121, 121, 121, 1)" fill="none" transform="matrix(1 0 0 1 1298 1852 )" class="stroke" mask="url(#Clip215)" />
    <path d="M 17.438760534184695 0.4053396141999405  L 0.5612394658153023 12.594660385800058  M 0.5612394658153023 0.4053396141999405  L 17.438760534184695 12.594660385800058  " stroke-width="1" stroke-dasharray="0" stroke="rgba(121, 121, 121, 1)" fill="none" transform="matrix(1 0 0 1 1298 1852 )" class="stroke" />
  </g>
</svg>