<?xml version="1.0" encoding="utf-8"?>
<svg version="1.1" xmlns:xlink="http://www.w3.org/1999/xlink" width="55px" height="44px" xmlns="http://www.w3.org/2000/svg">
  <g transform="matrix(1 0 0 1 -134 -1719 )">
    <path d="M 134 1719  L 189 1719  L 189 1763  L 134 1763  L 134 1719  " fill-rule="nonzero" fill="rgba(204, 204, 204, 1)" stroke="none" class="fill" />
    <path d="M 137 1722  L 186 1722  L 186 1760  L 137 1760  L 137 1722  " fill-rule="nonzero" fill="rgba(255, 255, 255, 1)" stroke="none" class="fill" />
    <path d="M 165.89999999999998 1732.1999999999998  C 164.052 1732.1999999999998  162.6 1730.7479999999998  162.6 1728.8999999999999  C 162.6 1727.052  164.052 1725.6  165.89999999999998 1725.6  C 167.748 1725.6  169.2 1727.052  169.2 1728.8999999999999  C 169.2 1730.7479999999998  167.748 1732.1999999999998  165.89999999999998 1732.1999999999998  " fill-rule="nonzero" fill="rgba(204, 204, 204, 1)" stroke="none" class="fill" />
    <path d="M 138 1759  L 138 1739.2  L 149.75 1730.2  L 166.2 1741.72  L 175.6 1735.6  L 185 1741.72  L 185 1759  L 138 1759  " fill-rule="nonzero" fill="rgba(22, 155, 213, 1)" stroke="none" class="fill" />
  </g>
</svg>