<?xml version="1.0" encoding="utf-8"?>
<svg version="1.1" xmlns:xlink="http://www.w3.org/1999/xlink" width="14px" height="20px" xmlns="http://www.w3.org/2000/svg">
  <defs>
    <pattern id="BGPattern" patternUnits="userSpaceOnUse" alignment="0 0" imageRepeat="None" />
    <mask fill="white" id="Clip167">
      <path d="M 13.759450171821305 9.539078156312627  C 13.919816723940437 9.672678690714761  14 9.82631930527722  14 10  C 14 10.173680694722778  13.919816723940437 10.327321309285235  13.759450171821305 10.460921843687373  L 2.549828178694158 19.799599198396795  C 2.3894616265750286 19.933199732798933  2.20504009163803 20  1.9965635738831615 20  C 1.7880870561282936 20  1.6036655211912945 19.933199732798933  1.443298969072165 19.799599198396795  L 0.2405498281786942 18.79759519038076  C 0.08018327605956477 18.663994655978623  0 18.510354041416164  0 18.336673346693388  C 0 18.162992651970605  0.08018327605956477 18.00935203740815  0.2405498281786942 17.87575150300601  L 9.694158075601374 10  L 0.2405498281786942 2.124248496993988  C 0.08018327605956477 1.9906479625918494  0 1.8370073480293914  0 1.6633266533066138  C 0 1.4896459585838318  0.08018327605956477 1.3360053440213737  0.2405498281786942 1.2024048096192375  L 1.443298969072165 0.2004008016032066  C 1.6036655211912945 0.06680026720106813  1.7880870561282936 0  1.9965635738831615 0  C 2.20504009163803 0  2.3894616265750286 0.06680026720106813  2.549828178694158 0.2004008016032066  L 13.759450171821305 9.539078156312627  Z " fill-rule="evenodd" />
    </mask>
  </defs>
  <g transform="matrix(1 0 0 1 -499 -1749 )">
    <path d="M 13.759450171821305 9.539078156312627  C 13.919816723940437 9.672678690714761  14 9.82631930527722  14 10  C 14 10.173680694722778  13.919816723940437 10.327321309285235  13.759450171821305 10.460921843687373  L 2.549828178694158 19.799599198396795  C 2.3894616265750286 19.933199732798933  2.20504009163803 20  1.9965635738831615 20  C 1.7880870561282936 20  1.6036655211912945 19.933199732798933  1.443298969072165 19.799599198396795  L 0.2405498281786942 18.79759519038076  C 0.08018327605956477 18.663994655978623  0 18.510354041416164  0 18.336673346693388  C 0 18.162992651970605  0.08018327605956477 18.00935203740815  0.2405498281786942 17.87575150300601  L 9.694158075601374 10  L 0.2405498281786942 2.124248496993988  C 0.08018327605956477 1.9906479625918494  0 1.8370073480293914  0 1.6633266533066138  C 0 1.4896459585838318  0.08018327605956477 1.3360053440213737  0.2405498281786942 1.2024048096192375  L 1.443298969072165 0.2004008016032066  C 1.6036655211912945 0.06680026720106813  1.7880870561282936 0  1.9965635738831615 0  C 2.20504009163803 0  2.3894616265750286 0.06680026720106813  2.549828178694158 0.2004008016032066  L 13.759450171821305 9.539078156312627  Z " fill-rule="nonzero" fill="rgba(215, 215, 215, 1)" stroke="none" transform="matrix(1 0 0 1 499 1749 )" class="fill" />
    <path d="M 13.759450171821305 9.539078156312627  C 13.919816723940437 9.672678690714761  14 9.82631930527722  14 10  C 14 10.173680694722778  13.919816723940437 10.327321309285235  13.759450171821305 10.460921843687373  L 2.549828178694158 19.799599198396795  C 2.3894616265750286 19.933199732798933  2.20504009163803 20  1.9965635738831615 20  C 1.7880870561282936 20  1.6036655211912945 19.933199732798933  1.443298969072165 19.799599198396795  L 0.2405498281786942 18.79759519038076  C 0.08018327605956477 18.663994655978623  0 18.510354041416164  0 18.336673346693388  C 0 18.162992651970605  0.08018327605956477 18.00935203740815  0.2405498281786942 17.87575150300601  L 9.694158075601374 10  L 0.2405498281786942 2.124248496993988  C 0.08018327605956477 1.9906479625918494  0 1.8370073480293914  0 1.6633266533066138  C 0 1.4896459585838318  0.08018327605956477 1.3360053440213737  0.2405498281786942 1.2024048096192375  L 1.443298969072165 0.2004008016032066  C 1.6036655211912945 0.06680026720106813  1.7880870561282936 0  1.9965635738831615 0  C 2.20504009163803 0  2.3894616265750286 0.06680026720106813  2.549828178694158 0.2004008016032066  L 13.759450171821305 9.539078156312627  Z " stroke-width="0" stroke-dasharray="0" stroke="rgba(255, 255, 255, 0)" fill="none" transform="matrix(1 0 0 1 499 1749 )" class="stroke" mask="url(#Clip167)" />
  </g>
</svg>