<?xml version="1.0" encoding="utf-8"?>
<svg version="1.1" xmlns:xlink="http://www.w3.org/1999/xlink" width="11px" height="18px" xmlns="http://www.w3.org/2000/svg">
  <defs>
    <pattern id="BGPattern" patternUnits="userSpaceOnUse" alignment="0 0" imageRepeat="None" />
    <mask fill="white" id="Clip4">
      <path d="M 10.810996563573882 1.0821643286573137  C 10.93699885452463 1.2024048096192363  11 1.3406813627254486  11 1.4969939879759524  C 11 1.6533066132264522  10.93699885452463 1.7915831663326645  10.810996563573882 1.911823647294589  L 3.383161512027492 9  L 10.810996563573882 16.08817635270541  C 10.93699885452463 16.208416833667336  11 16.346693386773545  11 16.50300601202405  C 11 16.65931863727455  10.93699885452463 16.79759519038076  10.810996563573882 16.917835671342687  L 9.8659793814433 17.819639278557116  C 9.739977090492555 17.939879759519037  9.5950744558992 18  9.43127147766323 18  C 9.267468499427263 18  9.122565864833907 17.939879759519037  8.996563573883162 17.819639278557116  L 0.18900343642611686 9.414829659318636  C 0.06300114547537232 9.294589178356713  0 9.1563126252505  0 9  C 0 8.843687374749498  0.06300114547537232 8.705410821643286  0.18900343642611686 8.585170340681364  L 8.996563573883162 0.18036072144288595  C 9.122565864833907 0.06012024048096132  9.267468499427263 0  9.43127147766323 0  C 9.5950744558992 0  9.739977090492555 0.06012024048096132  9.8659793814433 0.18036072144288595  L 10.810996563573882 1.0821643286573137  Z " fill-rule="evenodd" />
    </mask>
  </defs>
  <g transform="matrix(1 0 0 1 -1184 -219 )">
    <path d="M 10.810996563573882 1.0821643286573137  C 10.93699885452463 1.2024048096192363  11 1.3406813627254486  11 1.4969939879759524  C 11 1.6533066132264522  10.93699885452463 1.7915831663326645  10.810996563573882 1.911823647294589  L 3.383161512027492 9  L 10.810996563573882 16.08817635270541  C 10.93699885452463 16.208416833667336  11 16.346693386773545  11 16.50300601202405  C 11 16.65931863727455  10.93699885452463 16.79759519038076  10.810996563573882 16.917835671342687  L 9.8659793814433 17.819639278557116  C 9.739977090492555 17.939879759519037  9.5950744558992 18  9.43127147766323 18  C 9.267468499427263 18  9.122565864833907 17.939879759519037  8.996563573883162 17.819639278557116  L 0.18900343642611686 9.414829659318636  C 0.06300114547537232 9.294589178356713  0 9.1563126252505  0 9  C 0 8.843687374749498  0.06300114547537232 8.705410821643286  0.18900343642611686 8.585170340681364  L 8.996563573883162 0.18036072144288595  C 9.122565864833907 0.06012024048096132  9.267468499427263 0  9.43127147766323 0  C 9.5950744558992 0  9.739977090492555 0.06012024048096132  9.8659793814433 0.18036072144288595  L 10.810996563573882 1.0821643286573137  Z " fill-rule="nonzero" fill="rgba(170, 170, 170, 1)" stroke="none" transform="matrix(1 0 0 1 1184 219 )" class="fill" />
    <path d="M 10.810996563573882 1.0821643286573137  C 10.93699885452463 1.2024048096192363  11 1.3406813627254486  11 1.4969939879759524  C 11 1.6533066132264522  10.93699885452463 1.7915831663326645  10.810996563573882 1.911823647294589  L 3.383161512027492 9  L 10.810996563573882 16.08817635270541  C 10.93699885452463 16.208416833667336  11 16.346693386773545  11 16.50300601202405  C 11 16.65931863727455  10.93699885452463 16.79759519038076  10.810996563573882 16.917835671342687  L 9.8659793814433 17.819639278557116  C 9.739977090492555 17.939879759519037  9.5950744558992 18  9.43127147766323 18  C 9.267468499427263 18  9.122565864833907 17.939879759519037  8.996563573883162 17.819639278557116  L 0.18900343642611686 9.414829659318636  C 0.06300114547537232 9.294589178356713  0 9.1563126252505  0 9  C 0 8.843687374749498  0.06300114547537232 8.705410821643286  0.18900343642611686 8.585170340681364  L 8.996563573883162 0.18036072144288595  C 9.122565864833907 0.06012024048096132  9.267468499427263 0  9.43127147766323 0  C 9.5950744558992 0  9.739977090492555 0.06012024048096132  9.8659793814433 0.18036072144288595  L 10.810996563573882 1.0821643286573137  Z " stroke-width="0" stroke-dasharray="0" stroke="rgba(255, 255, 255, 0)" fill="none" transform="matrix(1 0 0 1 1184 219 )" class="stroke" mask="url(#Clip4)" />
  </g>
</svg>