<?xml version="1.0" encoding="utf-8"?>
<svg version="1.1" xmlns:xlink="http://www.w3.org/1999/xlink" width="35px" height="31px" xmlns="http://www.w3.org/2000/svg">
  <defs>
    <pattern id="BGPattern" patternUnits="userSpaceOnUse" alignment="0 0" imageRepeat="None" />
    <mask fill="white" id="Clip6">
      <path d="M 28.412642045454543 14.2890625  C 28.561789772727273 14.421164772727273  28.636363636363637 14.58996212121212  28.636363636363637 14.795454545454547  L 28.636363636363637 16.204545454545453  C 28.636363636363637 16.410037878787875  28.561789772727273 16.578835227272727  28.412642045454543 16.7109375  C 28.263494318181817 16.843039772727273  28.07291666666667 16.909090909090907  27.84090909090909 16.909090909090907  L 19.09090909090909 16.909090909090907  L 19.09090909090909 24.659090909090907  C 19.09090909090909 24.864583333333332  19.016335227272727 25.03338068181818  18.8671875 25.165482954545453  C 18.718039772727273 25.297585227272727  18.527462121212125 25.363636363636363  18.295454545454543 25.363636363636363  L 16.704545454545457 25.363636363636363  C 16.472537878787882 25.363636363636363  16.281960227272727 25.297585227272727  16.1328125 25.165482954545453  C 15.983664772727272 25.03338068181818  15.909090909090908 24.864583333333332  15.909090909090908 24.659090909090907  L 15.909090909090908 16.909090909090907  L 7.159090909090909 16.909090909090907  C 6.927083333333334 16.909090909090907  6.736505681818182 16.843039772727273  6.587357954545454 16.7109375  C 6.4382102272727275 16.578835227272727  6.363636363636364 16.410037878787875  6.363636363636364 16.204545454545453  L 6.363636363636364 14.795454545454547  C 6.363636363636364 14.58996212121212  6.4382102272727275 14.421164772727273  6.587357954545454 14.2890625  C 6.736505681818182 14.156960227272727  6.927083333333334 14.090909090909092  7.159090909090909 14.090909090909092  L 15.909090909090908 14.090909090909092  L 15.909090909090908 6.340909090909092  C 15.909090909090908 6.1354166666666625  15.983664772727272 5.966619318181819  16.1328125 5.834517045454546  C 16.281960227272727 5.702414772727273  16.472537878787882 5.636363636363635  16.704545454545457 5.636363636363635  L 18.295454545454543 5.636363636363635  C 18.527462121212125 5.636363636363635  18.718039772727273 5.702414772727273  18.8671875 5.834517045454546  C 19.016335227272727 5.966619318181819  19.09090909090909 6.1354166666666625  19.09090909090909 6.340909090909092  L 19.09090909090909 14.090909090909092  L 27.84090909090909 14.090909090909092  C 28.07291666666667 14.090909090909092  28.263494318181817 14.156960227272727  28.412642045454543 14.2890625  Z M 30.649857954545457 27.147017045454547  C 31.428740530303035 26.457149621212118  31.818181818181817 25.627840909090907  31.818181818181817 24.659090909090907  L 31.818181818181817 6.340909090909092  C 31.818181818181817 5.372159090909092  31.428740530303035 4.542850378787877  30.649857954545457 3.852982954545454  C 29.870975378787882 3.163115530303027  28.93465909090909 2.8181818181818192  27.84090909090909 3  L 7.159090909090909 3  C 6.065340909090909 2.8181818181818192  5.129024621212122 3.163115530303027  4.350142045454545 3.852982954545454  C 3.57125946969697 4.542850378787877  3.181818181818182 5.372159090909092  3.181818181818182 6.340909090909092  L 3.181818181818182 24.659090909090907  C 3.181818181818182 25.627840909090907  3.57125946969697 26.457149621212118  4.350142045454545 27.147017045454547  C 5.129024621212122 27.83688446969697  6.065340909090909 28.18181818181818  7.159090909090909 28  L 27.84090909090909 28  C 28.93465909090909 28.18181818181818  29.870975378787882 27.83688446969697  30.649857954545457 27.147017045454547  Z M 32.899502840909086 1.8604403409090922  C 34.29983428030303 3.10073390151515  35 4.594223484848481  35 6.340909090909092  L 35 24.659090909090907  C 35 26.405776515151516  34.29983428030303 27.89926609848485  32.899502840909086 29.139559659090907  C 31.499171401515152 30.37985321969697  29.812973484848488 31  27.84090909090909 31  L 7.159090909090909 31  C 5.187026515151516 31  3.500828598484849 30.37985321969697  2.100497159090909 29.139559659090907  C 0.7001657196969697 27.89926609848485  0 26.405776515151516  0 24.659090909090907  L 0 6.340909090909092  C 0 4.594223484848481  0.7001657196969697 3.10073390151515  2.100497159090909 1.8604403409090922  C 3.500828598484849 0.6201467803030273  5.187026515151516 0  7.159090909090909 0  L 27.84090909090909 0  C 29.812973484848488 0  31.499171401515152 0.6201467803030273  32.899502840909086 1.8604403409090922  Z " fill-rule="evenodd" />
    </mask>
  </defs>
  <g transform="matrix(1 0 0 1 -296 -666 )">
    <path d="M 28.412642045454543 14.2890625  C 28.561789772727273 14.421164772727273  28.636363636363637 14.58996212121212  28.636363636363637 14.795454545454547  L 28.636363636363637 16.204545454545453  C 28.636363636363637 16.410037878787875  28.561789772727273 16.578835227272727  28.412642045454543 16.7109375  C 28.263494318181817 16.843039772727273  28.07291666666667 16.909090909090907  27.84090909090909 16.909090909090907  L 19.09090909090909 16.909090909090907  L 19.09090909090909 24.659090909090907  C 19.09090909090909 24.864583333333332  19.016335227272727 25.03338068181818  18.8671875 25.165482954545453  C 18.718039772727273 25.297585227272727  18.527462121212125 25.363636363636363  18.295454545454543 25.363636363636363  L 16.704545454545457 25.363636363636363  C 16.472537878787882 25.363636363636363  16.281960227272727 25.297585227272727  16.1328125 25.165482954545453  C 15.983664772727272 25.03338068181818  15.909090909090908 24.864583333333332  15.909090909090908 24.659090909090907  L 15.909090909090908 16.909090909090907  L 7.159090909090909 16.909090909090907  C 6.927083333333334 16.909090909090907  6.736505681818182 16.843039772727273  6.587357954545454 16.7109375  C 6.4382102272727275 16.578835227272727  6.363636363636364 16.410037878787875  6.363636363636364 16.204545454545453  L 6.363636363636364 14.795454545454547  C 6.363636363636364 14.58996212121212  6.4382102272727275 14.421164772727273  6.587357954545454 14.2890625  C 6.736505681818182 14.156960227272727  6.927083333333334 14.090909090909092  7.159090909090909 14.090909090909092  L 15.909090909090908 14.090909090909092  L 15.909090909090908 6.340909090909092  C 15.909090909090908 6.1354166666666625  15.983664772727272 5.966619318181819  16.1328125 5.834517045454546  C 16.281960227272727 5.702414772727273  16.472537878787882 5.636363636363635  16.704545454545457 5.636363636363635  L 18.295454545454543 5.636363636363635  C 18.527462121212125 5.636363636363635  18.718039772727273 5.702414772727273  18.8671875 5.834517045454546  C 19.016335227272727 5.966619318181819  19.09090909090909 6.1354166666666625  19.09090909090909 6.340909090909092  L 19.09090909090909 14.090909090909092  L 27.84090909090909 14.090909090909092  C 28.07291666666667 14.090909090909092  28.263494318181817 14.156960227272727  28.412642045454543 14.2890625  Z M 30.649857954545457 27.147017045454547  C 31.428740530303035 26.457149621212118  31.818181818181817 25.627840909090907  31.818181818181817 24.659090909090907  L 31.818181818181817 6.340909090909092  C 31.818181818181817 5.372159090909092  31.428740530303035 4.542850378787877  30.649857954545457 3.852982954545454  C 29.870975378787882 3.163115530303027  28.93465909090909 2.8181818181818192  27.84090909090909 3  L 7.159090909090909 3  C 6.065340909090909 2.8181818181818192  5.129024621212122 3.163115530303027  4.350142045454545 3.852982954545454  C 3.57125946969697 4.542850378787877  3.181818181818182 5.372159090909092  3.181818181818182 6.340909090909092  L 3.181818181818182 24.659090909090907  C 3.181818181818182 25.627840909090907  3.57125946969697 26.457149621212118  4.350142045454545 27.147017045454547  C 5.129024621212122 27.83688446969697  6.065340909090909 28.18181818181818  7.159090909090909 28  L 27.84090909090909 28  C 28.93465909090909 28.18181818181818  29.870975378787882 27.83688446969697  30.649857954545457 27.147017045454547  Z M 32.899502840909086 1.8604403409090922  C 34.29983428030303 3.10073390151515  35 4.594223484848481  35 6.340909090909092  L 35 24.659090909090907  C 35 26.405776515151516  34.29983428030303 27.89926609848485  32.899502840909086 29.139559659090907  C 31.499171401515152 30.37985321969697  29.812973484848488 31  27.84090909090909 31  L 7.159090909090909 31  C 5.187026515151516 31  3.500828598484849 30.37985321969697  2.100497159090909 29.139559659090907  C 0.7001657196969697 27.89926609848485  0 26.405776515151516  0 24.659090909090907  L 0 6.340909090909092  C 0 4.594223484848481  0.7001657196969697 3.10073390151515  2.100497159090909 1.8604403409090922  C 3.500828598484849 0.6201467803030273  5.187026515151516 0  7.159090909090909 0  L 27.84090909090909 0  C 29.812973484848488 0  31.499171401515152 0.6201467803030273  32.899502840909086 1.8604403409090922  Z " fill-rule="nonzero" fill="rgba(215, 215, 215, 1)" stroke="none" transform="matrix(1 0 0 1 296 666 )" class="fill" />
    <path d="M 28.412642045454543 14.2890625  C 28.561789772727273 14.421164772727273  28.636363636363637 14.58996212121212  28.636363636363637 14.795454545454547  L 28.636363636363637 16.204545454545453  C 28.636363636363637 16.410037878787875  28.561789772727273 16.578835227272727  28.412642045454543 16.7109375  C 28.263494318181817 16.843039772727273  28.07291666666667 16.909090909090907  27.84090909090909 16.909090909090907  L 19.09090909090909 16.909090909090907  L 19.09090909090909 24.659090909090907  C 19.09090909090909 24.864583333333332  19.016335227272727 25.03338068181818  18.8671875 25.165482954545453  C 18.718039772727273 25.297585227272727  18.527462121212125 25.363636363636363  18.295454545454543 25.363636363636363  L 16.704545454545457 25.363636363636363  C 16.472537878787882 25.363636363636363  16.281960227272727 25.297585227272727  16.1328125 25.165482954545453  C 15.983664772727272 25.03338068181818  15.909090909090908 24.864583333333332  15.909090909090908 24.659090909090907  L 15.909090909090908 16.909090909090907  L 7.159090909090909 16.909090909090907  C 6.927083333333334 16.909090909090907  6.736505681818182 16.843039772727273  6.587357954545454 16.7109375  C 6.4382102272727275 16.578835227272727  6.363636363636364 16.410037878787875  6.363636363636364 16.204545454545453  L 6.363636363636364 14.795454545454547  C 6.363636363636364 14.58996212121212  6.4382102272727275 14.421164772727273  6.587357954545454 14.2890625  C 6.736505681818182 14.156960227272727  6.927083333333334 14.090909090909092  7.159090909090909 14.090909090909092  L 15.909090909090908 14.090909090909092  L 15.909090909090908 6.340909090909092  C 15.909090909090908 6.1354166666666625  15.983664772727272 5.966619318181819  16.1328125 5.834517045454546  C 16.281960227272727 5.702414772727273  16.472537878787882 5.636363636363635  16.704545454545457 5.636363636363635  L 18.295454545454543 5.636363636363635  C 18.527462121212125 5.636363636363635  18.718039772727273 5.702414772727273  18.8671875 5.834517045454546  C 19.016335227272727 5.966619318181819  19.09090909090909 6.1354166666666625  19.09090909090909 6.340909090909092  L 19.09090909090909 14.090909090909092  L 27.84090909090909 14.090909090909092  C 28.07291666666667 14.090909090909092  28.263494318181817 14.156960227272727  28.412642045454543 14.2890625  Z " stroke-width="0" stroke-dasharray="0" stroke="rgba(255, 255, 255, 0)" fill="none" transform="matrix(1 0 0 1 296 666 )" class="stroke" mask="url(#Clip6)" />
    <path d="M 30.649857954545457 27.147017045454547  C 31.428740530303035 26.457149621212118  31.818181818181817 25.627840909090907  31.818181818181817 24.659090909090907  L 31.818181818181817 6.340909090909092  C 31.818181818181817 5.372159090909092  31.428740530303035 4.542850378787877  30.649857954545457 3.852982954545454  C 29.870975378787882 3.163115530303027  28.93465909090909 2.8181818181818192  27.84090909090909 3  L 7.159090909090909 3  C 6.065340909090909 2.8181818181818192  5.129024621212122 3.163115530303027  4.350142045454545 3.852982954545454  C 3.57125946969697 4.542850378787877  3.181818181818182 5.372159090909092  3.181818181818182 6.340909090909092  L 3.181818181818182 24.659090909090907  C 3.181818181818182 25.627840909090907  3.57125946969697 26.457149621212118  4.350142045454545 27.147017045454547  C 5.129024621212122 27.83688446969697  6.065340909090909 28.18181818181818  7.159090909090909 28  L 27.84090909090909 28  C 28.93465909090909 28.18181818181818  29.870975378787882 27.83688446969697  30.649857954545457 27.147017045454547  Z " stroke-width="0" stroke-dasharray="0" stroke="rgba(255, 255, 255, 0)" fill="none" transform="matrix(1 0 0 1 296 666 )" class="stroke" mask="url(#Clip6)" />
    <path d="M 32.899502840909086 1.8604403409090922  C 34.29983428030303 3.10073390151515  35 4.594223484848481  35 6.340909090909092  L 35 24.659090909090907  C 35 26.405776515151516  34.29983428030303 27.89926609848485  32.899502840909086 29.139559659090907  C 31.499171401515152 30.37985321969697  29.812973484848488 31  27.84090909090909 31  L 7.159090909090909 31  C 5.187026515151516 31  3.500828598484849 30.37985321969697  2.100497159090909 29.139559659090907  C 0.7001657196969697 27.89926609848485  0 26.405776515151516  0 24.659090909090907  L 0 6.340909090909092  C 0 4.594223484848481  0.7001657196969697 3.10073390151515  2.100497159090909 1.8604403409090922  C 3.500828598484849 0.6201467803030273  5.187026515151516 0  7.159090909090909 0  L 27.84090909090909 0  C 29.812973484848488 0  31.499171401515152 0.6201467803030273  32.899502840909086 1.8604403409090922  Z " stroke-width="0" stroke-dasharray="0" stroke="rgba(255, 255, 255, 0)" fill="none" transform="matrix(1 0 0 1 296 666 )" class="stroke" mask="url(#Clip6)" />
  </g>
</svg>