<?xml version="1.0" encoding="utf-8"?>
<svg version="1.1" xmlns:xlink="http://www.w3.org/1999/xlink" width="85px" height="58px" xmlns="http://www.w3.org/2000/svg">
  <g transform="matrix(1 0 0 1 -786 -402 )">
    <path d="M 786 402  L 871 402  L 871 460  L 786 460  L 786 402  " fill-rule="nonzero" fill="rgba(204, 204, 204, 1)" stroke="none" class="fill" />
    <path d="M 790 406  L 867 406  L 867 456  L 790 456  L 790 406  " fill-rule="nonzero" fill="rgba(255, 255, 255, 1)" stroke="none" class="fill" />
    <path d="M 834.5500000000001 419.4  C 832.114 419.4  830.2 417.486  830.2 415.04999999999995  C 830.2 412.614  832.114 410.7  834.5500000000001 410.7  C 836.9860000000001 410.7  838.9000000000001 412.614  838.9000000000001 415.04999999999995  C 838.9000000000001 417.486  836.9860000000001 419.4  834.5500000000001 419.4  " fill-rule="nonzero" fill="rgba(204, 204, 204, 1)" stroke="none" class="fill" />
    <path d="M 792 455  L 792 429.15  L 810.5 417.4  L 836.4 435.7576470588235  L 851.2 424.45  L 866 435.7576470588235  L 866 455  L 792 455  " fill-rule="nonzero" fill="rgba(22, 155, 213, 1)" stroke="none" class="fill" />
  </g>
</svg>