<?xml version="1.0" encoding="utf-8"?>
<svg version="1.1" xmlns:xlink="http://www.w3.org/1999/xlink" width="85px" height="58px" xmlns="http://www.w3.org/2000/svg">
  <g transform="matrix(1 0 0 1 -786 -327 )">
    <path d="M 786 327  L 871 327  L 871 385  L 786 385  L 786 327  " fill-rule="nonzero" fill="rgba(204, 204, 204, 1)" stroke="none" class="fill" />
    <path d="M 790 331  L 867 331  L 867 381  L 790 381  L 790 331  " fill-rule="nonzero" fill="rgba(255, 255, 255, 1)" stroke="none" class="fill" />
    <path d="M 834.5500000000001 344.4  C 832.114 344.4  830.2 342.486  830.2 340.04999999999995  C 830.2 337.614  832.114 335.7  834.5500000000001 335.7  C 836.9860000000001 335.7  838.9000000000001 337.614  838.9000000000001 340.04999999999995  C 838.9000000000001 342.486  836.9860000000001 344.4  834.5500000000001 344.4  " fill-rule="nonzero" fill="rgba(204, 204, 204, 1)" stroke="none" class="fill" />
    <path d="M 792 380  L 792 354.15  L 810.5 342.4  L 836.4 360.7576470588235  L 851.2 349.45  L 866 360.7576470588235  L 866 380  L 792 380  " fill-rule="nonzero" fill="rgba(22, 155, 213, 1)" stroke="none" class="fill" />
  </g>
</svg>