<?xml version="1.0" encoding="utf-8"?>
<svg version="1.1" xmlns:xlink="http://www.w3.org/1999/xlink" width="46px" height="29px" xmlns="http://www.w3.org/2000/svg">
  <g transform="matrix(1 0 0 1 -180 -1040 )">
    <path d="M 180 1040  L 226 1040  L 226 1069  L 180 1069  L 180 1040  " fill-rule="nonzero" fill="rgba(204, 204, 204, 1)" stroke="none" class="fill" />
    <path d="M 182 1042  L 224 1042  L 224 1067  L 182 1067  L 182 1042  " fill-rule="nonzero" fill="rgba(255, 255, 255, 1)" stroke="none" class="fill" />
    <path d="M 206.09500000000003 1048.6999999999998  C 204.877 1048.6999999999998  203.92000000000002 1047.743  203.92000000000002 1046.5249999999999  C 203.92000000000002 1045.3069999999998  204.877 1044.35  206.09500000000003 1044.35  C 207.31300000000002 1044.35  208.27 1045.3069999999998  208.27 1046.5249999999999  C 208.27 1047.743  207.31300000000002 1048.6999999999998  206.09500000000003 1048.6999999999998  " fill-rule="nonzero" fill="rgba(204, 204, 204, 1)" stroke="none" class="fill" />
    <path d="M 183 1067  L 183 1053.8  L 193.25 1047.8  L 207.6 1057.9217391304348  L 215.8 1051.4  L 224 1057.9217391304348  L 224 1067  L 183 1067  " fill-rule="nonzero" fill="rgba(22, 155, 213, 1)" stroke="none" class="fill" />
  </g>
</svg>