<?xml version="1.0" encoding="utf-8"?>
<svg version="1.1" xmlns:xlink="http://www.w3.org/1999/xlink" width="55px" height="34px" xmlns="http://www.w3.org/2000/svg">
  <g transform="matrix(1 0 0 1 -170 -536 )">
    <path d="M 170 536  L 225 536  L 225 570  L 170 570  L 170 536  " fill-rule="nonzero" fill="rgba(204, 204, 204, 1)" stroke="none" class="fill" />
    <path d="M 172 538  L 223 538  L 223 568  L 172 568  L 172 538  " fill-rule="nonzero" fill="rgba(255, 255, 255, 1)" stroke="none" class="fill" />
    <path d="M 201.14999999999998 546.2  C 199.72199999999998 546.2  198.6 545.0780000000001  198.6 543.6500000000001  C 198.6 542.2220000000001  199.72199999999998 541.1  201.14999999999998 541.1  C 202.57799999999997 541.1  203.7 542.2220000000001  203.7 543.6500000000001  C 203.7 545.0780000000001  202.57799999999997 546.2  201.14999999999998 546.2  " fill-rule="nonzero" fill="rgba(204, 204, 204, 1)" stroke="none" class="fill" />
    <path d="M 173 567  L 173 551.6  L 185.25 544.6  L 202.4 556.6145454545455  L 212.2 548.8  L 222 556.6145454545455  L 222 567  L 173 567  " fill-rule="nonzero" fill="rgba(22, 155, 213, 1)" stroke="none" class="fill" />
  </g>
</svg>