<?xml version="1.0" encoding="utf-8"?>
<svg version="1.1" xmlns:xlink="http://www.w3.org/1999/xlink" width="55px" height="34px" xmlns="http://www.w3.org/2000/svg">
  <g transform="matrix(1 0 0 1 -170 -626 )">
    <path d="M 170 626  L 225 626  L 225 660  L 170 660  L 170 626  " fill-rule="nonzero" fill="rgba(204, 204, 204, 1)" stroke="none" class="fill" />
    <path d="M 172 628  L 223 628  L 223 658  L 172 658  L 172 628  " fill-rule="nonzero" fill="rgba(255, 255, 255, 1)" stroke="none" class="fill" />
    <path d="M 201.14999999999998 636.2  C 199.72199999999998 636.2  198.6 635.0780000000001  198.6 633.6500000000001  C 198.6 632.2220000000001  199.72199999999998 631.1  201.14999999999998 631.1  C 202.57799999999997 631.1  203.7 632.2220000000001  203.7 633.6500000000001  C 203.7 635.0780000000001  202.57799999999997 636.2  201.14999999999998 636.2  " fill-rule="nonzero" fill="rgba(204, 204, 204, 1)" stroke="none" class="fill" />
    <path d="M 173 657  L 173 641.6  L 185.25 634.6  L 202.4 646.6145454545455  L 212.2 638.8  L 222 646.6145454545455  L 222 657  L 173 657  " fill-rule="nonzero" fill="rgba(22, 155, 213, 1)" stroke="none" class="fill" />
  </g>
</svg>