<?xml version="1.0" encoding="utf-8"?>
<svg version="1.1" xmlns:xlink="http://www.w3.org/1999/xlink" width="55px" height="34px" xmlns="http://www.w3.org/2000/svg">
  <g transform="matrix(1 0 0 1 -170 -709 )">
    <path d="M 170 709  L 225 709  L 225 743  L 170 743  L 170 709  " fill-rule="nonzero" fill="rgba(204, 204, 204, 1)" stroke="none" class="fill" />
    <path d="M 172 711  L 223 711  L 223 741  L 172 741  L 172 711  " fill-rule="nonzero" fill="rgba(255, 255, 255, 1)" stroke="none" class="fill" />
    <path d="M 201.14999999999998 719.2  C 199.72199999999998 719.2  198.6 718.0780000000001  198.6 716.6500000000001  C 198.6 715.2220000000001  199.72199999999998 714.1  201.14999999999998 714.1  C 202.57799999999997 714.1  203.7 715.2220000000001  203.7 716.6500000000001  C 203.7 718.0780000000001  202.57799999999997 719.2  201.14999999999998 719.2  " fill-rule="nonzero" fill="rgba(204, 204, 204, 1)" stroke="none" class="fill" />
    <path d="M 173 740  L 173 724.6  L 185.25 717.6  L 202.4 729.6145454545455  L 212.2 721.8  L 222 729.6145454545455  L 222 740  L 173 740  " fill-rule="nonzero" fill="rgba(22, 155, 213, 1)" stroke="none" class="fill" />
  </g>
</svg>