<?xml version="1.0" encoding="utf-8"?>
<svg version="1.1" xmlns:xlink="http://www.w3.org/1999/xlink" width="46px" height="29px" xmlns="http://www.w3.org/2000/svg">
  <g transform="matrix(1 0 0 1 -2148 -391 )">
    <path d="M 2148 391  L 2194 391  L 2194 420  L 2148 420  L 2148 391  " fill-rule="nonzero" fill="rgba(204, 204, 204, 1)" stroke="none" class="fill" />
    <path d="M 2150 393  L 2192 393  L 2192 418  L 2150 418  L 2150 393  " fill-rule="nonzero" fill="rgba(255, 255, 255, 1)" stroke="none" class="fill" />
    <path d="M 2174.0950000000003 399.70000000000005  C 2172.877 399.70000000000005  2171.92 398.74300000000005  2171.92 397.52500000000003  C 2171.92 396.307  2172.877 395.35  2174.0950000000003 395.35  C 2175.313 395.35  2176.27 396.307  2176.27 397.52500000000003  C 2176.27 398.74300000000005  2175.313 399.70000000000005  2174.0950000000003 399.70000000000005  " fill-rule="nonzero" fill="rgba(204, 204, 204, 1)" stroke="none" class="fill" />
    <path d="M 2151 418  L 2151 404.8  L 2161.25 398.8  L 2175.6 408.9217391304348  L 2183.8 402.4  L 2192 408.9217391304348  L 2192 418  L 2151 418  " fill-rule="nonzero" fill="rgba(22, 155, 213, 1)" stroke="none" class="fill" />
  </g>
</svg>