<?xml version="1.0" encoding="utf-8"?>
<svg version="1.1" xmlns:xlink="http://www.w3.org/1999/xlink" width="46px" height="29px" xmlns="http://www.w3.org/2000/svg">
  <g transform="matrix(1 0 0 1 -2148 -301 )">
    <path d="M 2148 301  L 2194 301  L 2194 330  L 2148 330  L 2148 301  " fill-rule="nonzero" fill="rgba(204, 204, 204, 1)" stroke="none" class="fill" />
    <path d="M 2150 303  L 2192 303  L 2192 328  L 2150 328  L 2150 303  " fill-rule="nonzero" fill="rgba(255, 255, 255, 1)" stroke="none" class="fill" />
    <path d="M 2174.0950000000003 309.70000000000005  C 2172.877 309.70000000000005  2171.92 308.74300000000005  2171.92 307.52500000000003  C 2171.92 306.307  2172.877 305.35  2174.0950000000003 305.35  C 2175.313 305.35  2176.27 306.307  2176.27 307.52500000000003  C 2176.27 308.74300000000005  2175.313 309.70000000000005  2174.0950000000003 309.70000000000005  " fill-rule="nonzero" fill="rgba(204, 204, 204, 1)" stroke="none" class="fill" />
    <path d="M 2151 328  L 2151 314.8  L 2161.25 308.8  L 2175.6 318.9217391304348  L 2183.8 312.4  L 2192 318.9217391304348  L 2192 328  L 2151 328  " fill-rule="nonzero" fill="rgba(22, 155, 213, 1)" stroke="none" class="fill" />
  </g>
</svg>