<?xml version="1.0" encoding="utf-8"?>
<svg version="1.1" xmlns:xlink="http://www.w3.org/1999/xlink" width="46px" height="29px" xmlns="http://www.w3.org/2000/svg">
  <g transform="matrix(1 0 0 1 -2148 -376 )">
    <path d="M 2148 376  L 2194 376  L 2194 405  L 2148 405  L 2148 376  " fill-rule="nonzero" fill="rgba(204, 204, 204, 1)" stroke="none" class="fill" />
    <path d="M 2150 378  L 2192 378  L 2192 403  L 2150 403  L 2150 378  " fill-rule="nonzero" fill="rgba(255, 255, 255, 1)" stroke="none" class="fill" />
    <path d="M 2174.0950000000003 384.70000000000005  C 2172.877 384.70000000000005  2171.92 383.74300000000005  2171.92 382.52500000000003  C 2171.92 381.307  2172.877 380.35  2174.0950000000003 380.35  C 2175.313 380.35  2176.27 381.307  2176.27 382.52500000000003  C 2176.27 383.74300000000005  2175.313 384.70000000000005  2174.0950000000003 384.70000000000005  " fill-rule="nonzero" fill="rgba(204, 204, 204, 1)" stroke="none" class="fill" />
    <path d="M 2151 403  L 2151 389.8  L 2161.25 383.8  L 2175.6 393.9217391304348  L 2183.8 387.4  L 2192 393.9217391304348  L 2192 403  L 2151 403  " fill-rule="nonzero" fill="rgba(22, 155, 213, 1)" stroke="none" class="fill" />
  </g>
</svg>