<?xml version="1.0" encoding="utf-8"?>
<svg version="1.1" xmlns:xlink="http://www.w3.org/1999/xlink" width="27px" height="24px" xmlns="http://www.w3.org/2000/svg">
  <defs>
    <pattern id="BGPattern" patternUnits="userSpaceOnUse" alignment="0 0" imageRepeat="None" />
    <mask fill="white" id="Clip29">
      <path d="M 22.535177390258568 13.176136363636365  C 22.75165363800361 13.267045454545453  22.859891761876128 13.43181818181818  22.859891761876128 13.670454545454545  L 22.859891761876128 19.09090909090909  C 22.859891761876128 20.44318181818182  22.402585688514733 21.59943181818182  21.487973541791945 22.55965909090909  C 20.573361395069153 23.519886363636363  19.472038484666268 24  18.184004810583286 24  L 4.675886951292845 24  C 3.3878532772098624 24  2.2865303668069754 23.519886363636363  1.371918220084185 22.55965909090909  C 0.457306073361395 21.59943181818182  0 20.44318181818182  0 19.09090909090909  L 0 4.90909090909091  C 0 3.556818181818179  0.457306073361395 2.4005681818181808  1.371918220084185 1.44034090909091  C 2.2865303668069754 0.480113636363634  3.3878532772098624 0  4.675886951292845 0  L 18.184004810583286 0  C 18.865904990980155 0  19.499098015634395 0.14204545454545325  20.083583884545998 0.4261363636363624  C 20.24594107035478 0.5056818181818166  20.34335538184005 0.6363636363636358  20.375826819001805 0.8181818181818175  C 20.40829825616356 1.0113636363636358  20.359591100420925 1.1761363636363624  20.229705351773905 1.3125  L 19.434155141310885 2.1477272727272725  C 19.325917017438368 2.261363636363634  19.201443174984966 2.3181818181818175  19.060733613950692 2.3181818181818175  C 19.028262176788935 2.3181818181818175  18.979555021046302 2.3068181818181808  18.91461214672279 2.28409090909091  C 18.665664461815997 2.21590909090909  18.422128683102827 2.1818181818181825  18.184004810583286 2.1818181818181825  L 4.675886951292845 2.1818181818181825  C 3.9615153337342153 2.1818181818181825  3.3499699338544806 2.448863636363634  2.841250751653638 2.982954545454545  C 2.3325315694527964 3.5170454545454533  2.0781719783523753 4.15909090909091  2 4.90909090909091  L 2 19.09090909090909  C 2.0781719783523753 19.84090909090909  2.3325315694527964 20.48295454545454  2.841250751653638 21.017045454545453  C 3.3499699338544806 21.551136363636363  3.9615153337342153 21.818181818181817  4.675886951292845 21.818181818181817  L 18.184004810583286 21.818181818181817  C 18.898376428141912 21.818181818181817  19.50992182802165 21.551136363636363  20.01864101022249 21.017045454545453  C 20.527360192423334 20.48295454545454  20.781719783523755 19.84090909090909  20.781719783523755 19.09090909090909  L 20.781719783523755 14.761363636363635  C 20.781719783523755 14.613636363636363  20.830426939266385 14.488636363636365  20.927841250751655 14.386363636363635  L 21.96692723992784 13.295454545454545  C 22.075165363800362 13.18181818181818  22.199639206253764 13.125  22.340348767288035 13.125  C 22.405291641611544 13.125  22.470234515935058 13.142045454545455  22.535177390258568 13.176136363636365  Z M 27 4.363636363636362  C 27 4.738636363636362  26.870114251352977 5.0625  26.61034275405893 5.3352272727272725  L 13.394467829224293 19.210227272727273  C 13.134696331930249 19.482954545454547  12.826217678893569 19.619318181818183  12.469031870114252 19.619318181818183  C 12.111846061334937 19.619318181818183  11.803367408298255 19.482954545454547  11.54359591100421 19.210227272727273  L 4.562236921226699 11.880681818181817  C 4.302465423932652 11.607954545454545  4.172579675285628 11.28409090909091  4.172579675285628 10.90909090909091  C 4.172579675285628 10.534090909090907  4.302465423932652 10.21022727272727  4.562236921226699 9.9375  L 6.348165965123271 8.0625  C 6.6079374624173175 7.7897727272727275  6.916416115453999 7.65340909090909  7.273601924233313 7.65340909090909  C 7.630787733012628 7.65340909090909  7.939266386049309 7.7897727272727275  8.199037883343356 8.0625  L 12.469031870114252 12.545454545454545  L 22.973541791942274 1.517045454545455  C 23.23331328923632 1.2443181818181825  23.541791942273 1.107954545454545  23.898977751052318 1.107954545454545  C 24.25616355983163 1.107954545454545  24.56464221286831 1.2443181818181825  24.824413710162357 1.517045454545455  L 26.61034275405893 3.392045454545455  C 26.870114251352977 3.6647727272727275  27 3.9886363636363624  27 4.363636363636362  Z " fill-rule="evenodd" />
    </mask>
  </defs>
  <g transform="matrix(1 0 0 1 -432 -1144 )">
    <path d="M 22.535177390258568 13.176136363636365  C 22.75165363800361 13.267045454545453  22.859891761876128 13.43181818181818  22.859891761876128 13.670454545454545  L 22.859891761876128 19.09090909090909  C 22.859891761876128 20.44318181818182  22.402585688514733 21.59943181818182  21.487973541791945 22.55965909090909  C 20.573361395069153 23.519886363636363  19.472038484666268 24  18.184004810583286 24  L 4.675886951292845 24  C 3.3878532772098624 24  2.2865303668069754 23.519886363636363  1.371918220084185 22.55965909090909  C 0.457306073361395 21.59943181818182  0 20.44318181818182  0 19.09090909090909  L 0 4.90909090909091  C 0 3.556818181818179  0.457306073361395 2.4005681818181808  1.371918220084185 1.44034090909091  C 2.2865303668069754 0.480113636363634  3.3878532772098624 0  4.675886951292845 0  L 18.184004810583286 0  C 18.865904990980155 0  19.499098015634395 0.14204545454545325  20.083583884545998 0.4261363636363624  C 20.24594107035478 0.5056818181818166  20.34335538184005 0.6363636363636358  20.375826819001805 0.8181818181818175  C 20.40829825616356 1.0113636363636358  20.359591100420925 1.1761363636363624  20.229705351773905 1.3125  L 19.434155141310885 2.1477272727272725  C 19.325917017438368 2.261363636363634  19.201443174984966 2.3181818181818175  19.060733613950692 2.3181818181818175  C 19.028262176788935 2.3181818181818175  18.979555021046302 2.3068181818181808  18.91461214672279 2.28409090909091  C 18.665664461815997 2.21590909090909  18.422128683102827 2.1818181818181825  18.184004810583286 2.1818181818181825  L 4.675886951292845 2.1818181818181825  C 3.9615153337342153 2.1818181818181825  3.3499699338544806 2.448863636363634  2.841250751653638 2.982954545454545  C 2.3325315694527964 3.5170454545454533  2.0781719783523753 4.15909090909091  2 4.90909090909091  L 2 19.09090909090909  C 2.0781719783523753 19.84090909090909  2.3325315694527964 20.48295454545454  2.841250751653638 21.017045454545453  C 3.3499699338544806 21.551136363636363  3.9615153337342153 21.818181818181817  4.675886951292845 21.818181818181817  L 18.184004810583286 21.818181818181817  C 18.898376428141912 21.818181818181817  19.50992182802165 21.551136363636363  20.01864101022249 21.017045454545453  C 20.527360192423334 20.48295454545454  20.781719783523755 19.84090909090909  20.781719783523755 19.09090909090909  L 20.781719783523755 14.761363636363635  C 20.781719783523755 14.613636363636363  20.830426939266385 14.488636363636365  20.927841250751655 14.386363636363635  L 21.96692723992784 13.295454545454545  C 22.075165363800362 13.18181818181818  22.199639206253764 13.125  22.340348767288035 13.125  C 22.405291641611544 13.125  22.470234515935058 13.142045454545455  22.535177390258568 13.176136363636365  Z M 27 4.363636363636362  C 27 4.738636363636362  26.870114251352977 5.0625  26.61034275405893 5.3352272727272725  L 13.394467829224293 19.210227272727273  C 13.134696331930249 19.482954545454547  12.826217678893569 19.619318181818183  12.469031870114252 19.619318181818183  C 12.111846061334937 19.619318181818183  11.803367408298255 19.482954545454547  11.54359591100421 19.210227272727273  L 4.562236921226699 11.880681818181817  C 4.302465423932652 11.607954545454545  4.172579675285628 11.28409090909091  4.172579675285628 10.90909090909091  C 4.172579675285628 10.534090909090907  4.302465423932652 10.21022727272727  4.562236921226699 9.9375  L 6.348165965123271 8.0625  C 6.6079374624173175 7.7897727272727275  6.916416115453999 7.65340909090909  7.273601924233313 7.65340909090909  C 7.630787733012628 7.65340909090909  7.939266386049309 7.7897727272727275  8.199037883343356 8.0625  L 12.469031870114252 12.545454545454545  L 22.973541791942274 1.517045454545455  C 23.23331328923632 1.2443181818181825  23.541791942273 1.107954545454545  23.898977751052318 1.107954545454545  C 24.25616355983163 1.107954545454545  24.56464221286831 1.2443181818181825  24.824413710162357 1.517045454545455  L 26.61034275405893 3.392045454545455  C 26.870114251352977 3.6647727272727275  27 3.9886363636363624  27 4.363636363636362  Z " fill-rule="nonzero" fill="rgba(217, 0, 27, 1)" stroke="none" transform="matrix(1 0 0 1 432 1144 )" class="fill" />
    <path d="M 22.535177390258568 13.176136363636365  C 22.75165363800361 13.267045454545453  22.859891761876128 13.43181818181818  22.859891761876128 13.670454545454545  L 22.859891761876128 19.09090909090909  C 22.859891761876128 20.44318181818182  22.402585688514733 21.59943181818182  21.487973541791945 22.55965909090909  C 20.573361395069153 23.519886363636363  19.472038484666268 24  18.184004810583286 24  L 4.675886951292845 24  C 3.3878532772098624 24  2.2865303668069754 23.519886363636363  1.371918220084185 22.55965909090909  C 0.457306073361395 21.59943181818182  0 20.44318181818182  0 19.09090909090909  L 0 4.90909090909091  C 0 3.556818181818179  0.457306073361395 2.4005681818181808  1.371918220084185 1.44034090909091  C 2.2865303668069754 0.480113636363634  3.3878532772098624 0  4.675886951292845 0  L 18.184004810583286 0  C 18.865904990980155 0  19.499098015634395 0.14204545454545325  20.083583884545998 0.4261363636363624  C 20.24594107035478 0.5056818181818166  20.34335538184005 0.6363636363636358  20.375826819001805 0.8181818181818175  C 20.40829825616356 1.0113636363636358  20.359591100420925 1.1761363636363624  20.229705351773905 1.3125  L 19.434155141310885 2.1477272727272725  C 19.325917017438368 2.261363636363634  19.201443174984966 2.3181818181818175  19.060733613950692 2.3181818181818175  C 19.028262176788935 2.3181818181818175  18.979555021046302 2.3068181818181808  18.91461214672279 2.28409090909091  C 18.665664461815997 2.21590909090909  18.422128683102827 2.1818181818181825  18.184004810583286 2.1818181818181825  L 4.675886951292845 2.1818181818181825  C 3.9615153337342153 2.1818181818181825  3.3499699338544806 2.448863636363634  2.841250751653638 2.982954545454545  C 2.3325315694527964 3.5170454545454533  2.0781719783523753 4.15909090909091  2 4.90909090909091  L 2 19.09090909090909  C 2.0781719783523753 19.84090909090909  2.3325315694527964 20.48295454545454  2.841250751653638 21.017045454545453  C 3.3499699338544806 21.551136363636363  3.9615153337342153 21.818181818181817  4.675886951292845 21.818181818181817  L 18.184004810583286 21.818181818181817  C 18.898376428141912 21.818181818181817  19.50992182802165 21.551136363636363  20.01864101022249 21.017045454545453  C 20.527360192423334 20.48295454545454  20.781719783523755 19.84090909090909  20.781719783523755 19.09090909090909  L 20.781719783523755 14.761363636363635  C 20.781719783523755 14.613636363636363  20.830426939266385 14.488636363636365  20.927841250751655 14.386363636363635  L 21.96692723992784 13.295454545454545  C 22.075165363800362 13.18181818181818  22.199639206253764 13.125  22.340348767288035 13.125  C 22.405291641611544 13.125  22.470234515935058 13.142045454545455  22.535177390258568 13.176136363636365  Z " stroke-width="0" stroke-dasharray="0" stroke="rgba(255, 255, 255, 0)" fill="none" transform="matrix(1 0 0 1 432 1144 )" class="stroke" mask="url(#Clip29)" />
    <path d="M 27 4.363636363636362  C 27 4.738636363636362  26.870114251352977 5.0625  26.61034275405893 5.3352272727272725  L 13.394467829224293 19.210227272727273  C 13.134696331930249 19.482954545454547  12.826217678893569 19.619318181818183  12.469031870114252 19.619318181818183  C 12.111846061334937 19.619318181818183  11.803367408298255 19.482954545454547  11.54359591100421 19.210227272727273  L 4.562236921226699 11.880681818181817  C 4.302465423932652 11.607954545454545  4.172579675285628 11.28409090909091  4.172579675285628 10.90909090909091  C 4.172579675285628 10.534090909090907  4.302465423932652 10.21022727272727  4.562236921226699 9.9375  L 6.348165965123271 8.0625  C 6.6079374624173175 7.7897727272727275  6.916416115453999 7.65340909090909  7.273601924233313 7.65340909090909  C 7.630787733012628 7.65340909090909  7.939266386049309 7.7897727272727275  8.199037883343356 8.0625  L 12.469031870114252 12.545454545454545  L 22.973541791942274 1.517045454545455  C 23.23331328923632 1.2443181818181825  23.541791942273 1.107954545454545  23.898977751052318 1.107954545454545  C 24.25616355983163 1.107954545454545  24.56464221286831 1.2443181818181825  24.824413710162357 1.517045454545455  L 26.61034275405893 3.392045454545455  C 26.870114251352977 3.6647727272727275  27 3.9886363636363624  27 4.363636363636362  Z " stroke-width="0" stroke-dasharray="0" stroke="rgba(255, 255, 255, 0)" fill="none" transform="matrix(1 0 0 1 432 1144 )" class="stroke" mask="url(#Clip29)" />
  </g>
</svg>