<?xml version="1.0" encoding="utf-8"?>
<svg version="1.1" xmlns:xlink="http://www.w3.org/1999/xlink" width="23px" height="19px" xmlns="http://www.w3.org/2000/svg">
  <defs>
    <pattern id="BGPattern" patternUnits="userSpaceOnUse" alignment="0 0" imageRepeat="None" />
    <mask fill="white" id="Clip27">
      <path d="M 0 19  L 0 0  L 23 0  L 23 19  L 0 19  Z " fill-rule="evenodd" />
    </mask>
  </defs>
  <g transform="matrix(1 0 0 1 -1400 -1165 )">
    <path d="M 0 19  L 0 0  L 23 0  L 23 19  L 0 19  Z " fill-rule="nonzero" fill="rgba(242, 242, 242, 1)" stroke="none" transform="matrix(1 0 0 1 1400 1165 )" class="fill" />
    <path d="M 0 19  L 0 0  L 23 0  L 23 19  L 0 19  Z " stroke-width="2" stroke-dasharray="0" stroke="rgba(121, 121, 121, 1)" fill="none" transform="matrix(1 0 0 1 1400 1165 )" class="stroke" mask="url(#Clip27)" />
    <path d="M 22.53336525559413 0.3854808758135448  L 0.46663474440587 18.614519124186454  M 0.46663474440587 0.3854808758135448  L 22.53336525559413 18.614519124186454  " stroke-width="1" stroke-dasharray="0" stroke="rgba(121, 121, 121, 1)" fill="none" transform="matrix(1 0 0 1 1400 1165 )" class="stroke" />
  </g>
</svg>