<?xml version="1.0" encoding="utf-8"?>
<svg version="1.1" xmlns:xlink="http://www.w3.org/1999/xlink" width="1447px" height="685px" xmlns="http://www.w3.org/2000/svg">
  <defs>
    <pattern id="BGPattern" patternUnits="userSpaceOnUse" alignment="0 0" imageRepeat="None" />
    <mask fill="white" id="Clip23">
      <path d="M 0 680  L 0 5  C 0 2.1999999999999997  2.1999999999999997 0  5 0  L 1442 0  C 1444.8 0  1447 2.1999999999999997  1447 5  L 1447 680  C 1447 682.8  1444.8 685  1442 685  L 5 685  C 2.1999999999999997 685  0 682.8  0 680  Z " fill-rule="evenodd" />
    </mask>
  </defs>
  <g transform="matrix(1 0 0 1 -44 -778 )">
    <path d="M 0 680  L 0 5  C 0 2.1999999999999997  2.1999999999999997 0  5 0  L 1442 0  C 1444.8 0  1447 2.1999999999999997  1447 5  L 1447 680  C 1447 682.8  1444.8 685  1442 685  L 5 685  C 2.1999999999999997 685  0 682.8  0 680  Z " fill-rule="nonzero" fill="rgba(51, 51, 51, 0)" stroke="none" transform="matrix(1 0 0 1 44 778 )" class="fill" />
    <path d="M 0 680  L 0 5  C 0 2.1999999999999997  2.1999999999999997 0  5 0  L 1442 0  C 1444.8 0  1447 2.1999999999999997  1447 5  L 1447 680  C 1447 682.8  1444.8 685  1442 685  L 5 685  C 2.1999999999999997 685  0 682.8  0 680  Z " stroke-width="2" stroke-dasharray="9,4" stroke="rgba(236, 128, 141, 1)" fill="none" transform="matrix(1 0 0 1 44 778 )" class="stroke" mask="url(#Clip23)" />
  </g>
</svg>