<?xml version="1.0" encoding="utf-8"?>
<svg version="1.1" xmlns:xlink="http://www.w3.org/1999/xlink" width="23px" height="13px" xmlns="http://www.w3.org/2000/svg">
  <defs>
    <pattern id="BGPattern" patternUnits="userSpaceOnUse" alignment="0 0" imageRepeat="None" />
    <mask fill="white" id="Clip25">
      <path d="M 22.5732421875 0.4288194444444451  C 22.857747395833336 0.7146990740740727  23 1.0532407407407374  23 1.444444444444445  C 23 1.835648148148147  22.857747395833336 2.174189814814813  22.5732421875 2.460069444444445  L 12.5107421875 12.571180555555555  C 12.226236979166668 12.857060185185187  11.889322916666668 13  11.5 13  C 11.110677083333336 13  10.773763020833336 12.857060185185187  10.4892578125 12.571180555555555  L 0.4267578125 2.460069444444445  C 0.14225260416666666 2.174189814814813  0 1.835648148148147  0 1.444444444444445  C 0 1.0532407407407374  0.14225260416666666 0.7146990740740727  0.4267578125 0.4288194444444451  C 0.7112630208333334 0.1429398148148131  1.0481770833333335 0  1.4375 0  L 21.5625 0  C 21.951822916666668 0  22.288736979166668 0.1429398148148131  22.5732421875 0.4288194444444451  Z " fill-rule="evenodd" />
    </mask>
  </defs>
  <g transform="matrix(1 0 0 1 -1439 -230 )">
    <path d="M 22.5732421875 0.4288194444444451  C 22.857747395833336 0.7146990740740727  23 1.0532407407407374  23 1.444444444444445  C 23 1.835648148148147  22.857747395833336 2.174189814814813  22.5732421875 2.460069444444445  L 12.5107421875 12.571180555555555  C 12.226236979166668 12.857060185185187  11.889322916666668 13  11.5 13  C 11.110677083333336 13  10.773763020833336 12.857060185185187  10.4892578125 12.571180555555555  L 0.4267578125 2.460069444444445  C 0.14225260416666666 2.174189814814813  0 1.835648148148147  0 1.444444444444445  C 0 1.0532407407407374  0.14225260416666666 0.7146990740740727  0.4267578125 0.4288194444444451  C 0.7112630208333334 0.1429398148148131  1.0481770833333335 0  1.4375 0  L 21.5625 0  C 21.951822916666668 0  22.288736979166668 0.1429398148148131  22.5732421875 0.4288194444444451  Z " fill-rule="nonzero" fill="rgba(127, 127, 127, 1)" stroke="none" transform="matrix(1 0 0 1 1439 230 )" class="fill" />
    <path d="M 22.5732421875 0.4288194444444451  C 22.857747395833336 0.7146990740740727  23 1.0532407407407374  23 1.444444444444445  C 23 1.835648148148147  22.857747395833336 2.174189814814813  22.5732421875 2.460069444444445  L 12.5107421875 12.571180555555555  C 12.226236979166668 12.857060185185187  11.889322916666668 13  11.5 13  C 11.110677083333336 13  10.773763020833336 12.857060185185187  10.4892578125 12.571180555555555  L 0.4267578125 2.460069444444445  C 0.14225260416666666 2.174189814814813  0 1.835648148148147  0 1.444444444444445  C 0 1.0532407407407374  0.14225260416666666 0.7146990740740727  0.4267578125 0.4288194444444451  C 0.7112630208333334 0.1429398148148131  1.0481770833333335 0  1.4375 0  L 21.5625 0  C 21.951822916666668 0  22.288736979166668 0.1429398148148131  22.5732421875 0.4288194444444451  Z " stroke-width="0" stroke-dasharray="0" stroke="rgba(255, 255, 255, 0)" fill="none" transform="matrix(1 0 0 1 1439 230 )" class="stroke" mask="url(#Clip25)" />
  </g>
</svg>