<?xml version="1.0" encoding="utf-8"?>
<svg version="1.1" xmlns:xlink="http://www.w3.org/1999/xlink" width="40px" height="40px" xmlns="http://www.w3.org/2000/svg">
  <defs>
    <pattern id="BGPattern" patternUnits="userSpaceOnUse" alignment="0 0" imageRepeat="None" />
    <mask fill="white" id="Clip98">
      <path d="M 32.47159090909091 18.4375  C 32.64204545454545 18.607954545454547  32.72727272727273 18.825757575757574  32.72727272727273 19.090909090909093  L 32.72727272727273 20.909090909090907  C 32.72727272727273 21.174242424242422  32.64204545454545 21.392045454545453  32.47159090909091 21.5625  C 32.30113636363636 21.732954545454547  32.08333333333334 21.818181818181817  31.818181818181817 21.818181818181817  L 21.818181818181817 21.818181818181817  L 21.818181818181817 31.818181818181817  C 21.818181818181817 32.08333333333333  21.732954545454547 32.30113636363636  21.5625 32.47159090909091  C 21.392045454545453 32.64204545454545  21.174242424242426 32.72727272727273  20.909090909090907 32.72727272727273  L 19.090909090909093 32.72727272727273  C 18.825757575757578 32.72727272727273  18.607954545454547 32.64204545454545  18.4375 32.47159090909091  C 18.267045454545453 32.30113636363636  18.18181818181818 32.08333333333333  18.18181818181818 31.818181818181817  L 18.18181818181818 21.818181818181817  L 8.181818181818182 21.818181818181817  C 7.916666666666668 21.818181818181817  7.698863636363637 21.732954545454547  7.528409090909091 21.5625  C 7.357954545454546 21.392045454545453  7.272727272727273 21.174242424242422  7.272727272727273 20.909090909090907  L 7.272727272727273 19.090909090909093  C 7.272727272727273 18.825757575757574  7.357954545454546 18.607954545454547  7.528409090909091 18.4375  C 7.698863636363637 18.267045454545453  7.916666666666668 18.181818181818183  8.181818181818182 18.181818181818183  L 18.18181818181818 18.181818181818183  L 18.18181818181818 8.181818181818183  C 18.18181818181818 7.916666666666661  18.267045454545453 7.698863636363638  18.4375 7.528409090909092  C 18.607954545454547 7.357954545454546  18.825757575757578 7.272727272727271  19.090909090909093 7.272727272727271  L 20.909090909090907 7.272727272727271  C 21.174242424242426 7.272727272727271  21.392045454545453 7.357954545454546  21.5625 7.528409090909092  C 21.732954545454547 7.698863636363638  21.818181818181817 7.916666666666661  21.818181818181817 8.181818181818183  L 21.818181818181817 18.181818181818183  L 31.818181818181817 18.181818181818183  C 32.08333333333334 18.181818181818183  32.30113636363636 18.267045454545453  32.47159090909091 18.4375  Z M 35.02840909090909 35.02840909090909  C 35.91856060606061 34.13825757575757  36.36363636363636 33.06818181818181  36 31.818181818181817  L 36 8.181818181818183  C 36.36363636363636 6.931818181818183  35.91856060606061 5.861742424242422  35.02840909090909 4.971590909090908  C 34.13825757575758 4.08143939393939  33.06818181818181 3.6363636363636376  31.818181818181817 4  L 8.181818181818182 4  C 6.9318181818181825 3.6363636363636376  5.861742424242426 4.08143939393939  4.971590909090909 4.971590909090908  C 4.0814393939393945 5.861742424242422  3.6363636363636367 6.931818181818183  4 8.181818181818183  L 4 31.818181818181817  C 3.6363636363636367 33.06818181818181  4.0814393939393945 34.13825757575757  4.971590909090909 35.02840909090909  C 5.861742424242426 35.91856060606061  6.9318181818181825 36.36363636363636  8.181818181818182 36  L 31.818181818181817 36  C 33.06818181818181 36.36363636363636  34.13825757575758 35.91856060606061  35.02840909090909 35.02840909090909  Z M 37.59943181818181 2.4005681818181834  C 39.19981060606061 4.000946969696968  40 5.928030303030298  40 8.181818181818183  L 40 31.818181818181817  C 40 34.071969696969695  39.19981060606061 35.99905303030303  37.59943181818181 37.59943181818181  C 35.99905303030303 39.19981060606061  34.0719696969697 40  31.818181818181817 40  L 8.181818181818182 40  C 5.928030303030304 40  4.000946969696971 39.19981060606061  2.4005681818181817 37.59943181818181  C 0.8001893939393939 35.99905303030303  0 34.071969696969695  0 31.818181818181817  L 0 8.181818181818183  C 0 5.928030303030298  0.8001893939393939 4.000946969696968  2.4005681818181817 2.4005681818181834  C 4.000946969696971 0.80018939393939  5.928030303030304 0  8.181818181818182 0  L 31.818181818181817 0  C 34.0719696969697 0  35.99905303030303 0.80018939393939  37.59943181818181 2.4005681818181834  Z " fill-rule="evenodd" />
    </mask>
  </defs>
  <g transform="matrix(1 0 0 1 -189 -70 )">
    <path d="M 32.47159090909091 18.4375  C 32.64204545454545 18.607954545454547  32.72727272727273 18.825757575757574  32.72727272727273 19.090909090909093  L 32.72727272727273 20.909090909090907  C 32.72727272727273 21.174242424242422  32.64204545454545 21.392045454545453  32.47159090909091 21.5625  C 32.30113636363636 21.732954545454547  32.08333333333334 21.818181818181817  31.818181818181817 21.818181818181817  L 21.818181818181817 21.818181818181817  L 21.818181818181817 31.818181818181817  C 21.818181818181817 32.08333333333333  21.732954545454547 32.30113636363636  21.5625 32.47159090909091  C 21.392045454545453 32.64204545454545  21.174242424242426 32.72727272727273  20.909090909090907 32.72727272727273  L 19.090909090909093 32.72727272727273  C 18.825757575757578 32.72727272727273  18.607954545454547 32.64204545454545  18.4375 32.47159090909091  C 18.267045454545453 32.30113636363636  18.18181818181818 32.08333333333333  18.18181818181818 31.818181818181817  L 18.18181818181818 21.818181818181817  L 8.181818181818182 21.818181818181817  C 7.916666666666668 21.818181818181817  7.698863636363637 21.732954545454547  7.528409090909091 21.5625  C 7.357954545454546 21.392045454545453  7.272727272727273 21.174242424242422  7.272727272727273 20.909090909090907  L 7.272727272727273 19.090909090909093  C 7.272727272727273 18.825757575757574  7.357954545454546 18.607954545454547  7.528409090909091 18.4375  C 7.698863636363637 18.267045454545453  7.916666666666668 18.181818181818183  8.181818181818182 18.181818181818183  L 18.18181818181818 18.181818181818183  L 18.18181818181818 8.181818181818183  C 18.18181818181818 7.916666666666661  18.267045454545453 7.698863636363638  18.4375 7.528409090909092  C 18.607954545454547 7.357954545454546  18.825757575757578 7.272727272727271  19.090909090909093 7.272727272727271  L 20.909090909090907 7.272727272727271  C 21.174242424242426 7.272727272727271  21.392045454545453 7.357954545454546  21.5625 7.528409090909092  C 21.732954545454547 7.698863636363638  21.818181818181817 7.916666666666661  21.818181818181817 8.181818181818183  L 21.818181818181817 18.181818181818183  L 31.818181818181817 18.181818181818183  C 32.08333333333334 18.181818181818183  32.30113636363636 18.267045454545453  32.47159090909091 18.4375  Z M 35.02840909090909 35.02840909090909  C 35.91856060606061 34.13825757575757  36.36363636363636 33.06818181818181  36 31.818181818181817  L 36 8.181818181818183  C 36.36363636363636 6.931818181818183  35.91856060606061 5.861742424242422  35.02840909090909 4.971590909090908  C 34.13825757575758 4.08143939393939  33.06818181818181 3.6363636363636376  31.818181818181817 4  L 8.181818181818182 4  C 6.9318181818181825 3.6363636363636376  5.861742424242426 4.08143939393939  4.971590909090909 4.971590909090908  C 4.0814393939393945 5.861742424242422  3.6363636363636367 6.931818181818183  4 8.181818181818183  L 4 31.818181818181817  C 3.6363636363636367 33.06818181818181  4.0814393939393945 34.13825757575757  4.971590909090909 35.02840909090909  C 5.861742424242426 35.91856060606061  6.9318181818181825 36.36363636363636  8.181818181818182 36  L 31.818181818181817 36  C 33.06818181818181 36.36363636363636  34.13825757575758 35.91856060606061  35.02840909090909 35.02840909090909  Z M 37.59943181818181 2.4005681818181834  C 39.19981060606061 4.000946969696968  40 5.928030303030298  40 8.181818181818183  L 40 31.818181818181817  C 40 34.071969696969695  39.19981060606061 35.99905303030303  37.59943181818181 37.59943181818181  C 35.99905303030303 39.19981060606061  34.0719696969697 40  31.818181818181817 40  L 8.181818181818182 40  C 5.928030303030304 40  4.000946969696971 39.19981060606061  2.4005681818181817 37.59943181818181  C 0.8001893939393939 35.99905303030303  0 34.071969696969695  0 31.818181818181817  L 0 8.181818181818183  C 0 5.928030303030298  0.8001893939393939 4.000946969696968  2.4005681818181817 2.4005681818181834  C 4.000946969696971 0.80018939393939  5.928030303030304 0  8.181818181818182 0  L 31.818181818181817 0  C 34.0719696969697 0  35.99905303030303 0.80018939393939  37.59943181818181 2.4005681818181834  Z " fill-rule="nonzero" fill="rgba(215, 215, 215, 1)" stroke="none" transform="matrix(1 0 0 1 189 70 )" class="fill" />
    <path d="M 32.47159090909091 18.4375  C 32.64204545454545 18.607954545454547  32.72727272727273 18.825757575757574  32.72727272727273 19.090909090909093  L 32.72727272727273 20.909090909090907  C 32.72727272727273 21.174242424242422  32.64204545454545 21.392045454545453  32.47159090909091 21.5625  C 32.30113636363636 21.732954545454547  32.08333333333334 21.818181818181817  31.818181818181817 21.818181818181817  L 21.818181818181817 21.818181818181817  L 21.818181818181817 31.818181818181817  C 21.818181818181817 32.08333333333333  21.732954545454547 32.30113636363636  21.5625 32.47159090909091  C 21.392045454545453 32.64204545454545  21.174242424242426 32.72727272727273  20.909090909090907 32.72727272727273  L 19.090909090909093 32.72727272727273  C 18.825757575757578 32.72727272727273  18.607954545454547 32.64204545454545  18.4375 32.47159090909091  C 18.267045454545453 32.30113636363636  18.18181818181818 32.08333333333333  18.18181818181818 31.818181818181817  L 18.18181818181818 21.818181818181817  L 8.181818181818182 21.818181818181817  C 7.916666666666668 21.818181818181817  7.698863636363637 21.732954545454547  7.528409090909091 21.5625  C 7.357954545454546 21.392045454545453  7.272727272727273 21.174242424242422  7.272727272727273 20.909090909090907  L 7.272727272727273 19.090909090909093  C 7.272727272727273 18.825757575757574  7.357954545454546 18.607954545454547  7.528409090909091 18.4375  C 7.698863636363637 18.267045454545453  7.916666666666668 18.181818181818183  8.181818181818182 18.181818181818183  L 18.18181818181818 18.181818181818183  L 18.18181818181818 8.181818181818183  C 18.18181818181818 7.916666666666661  18.267045454545453 7.698863636363638  18.4375 7.528409090909092  C 18.607954545454547 7.357954545454546  18.825757575757578 7.272727272727271  19.090909090909093 7.272727272727271  L 20.909090909090907 7.272727272727271  C 21.174242424242426 7.272727272727271  21.392045454545453 7.357954545454546  21.5625 7.528409090909092  C 21.732954545454547 7.698863636363638  21.818181818181817 7.916666666666661  21.818181818181817 8.181818181818183  L 21.818181818181817 18.181818181818183  L 31.818181818181817 18.181818181818183  C 32.08333333333334 18.181818181818183  32.30113636363636 18.267045454545453  32.47159090909091 18.4375  Z " stroke-width="0" stroke-dasharray="0" stroke="rgba(255, 255, 255, 0)" fill="none" transform="matrix(1 0 0 1 189 70 )" class="stroke" mask="url(#Clip98)" />
    <path d="M 35.02840909090909 35.02840909090909  C 35.91856060606061 34.13825757575757  36.36363636363636 33.06818181818181  36 31.818181818181817  L 36 8.181818181818183  C 36.36363636363636 6.931818181818183  35.91856060606061 5.861742424242422  35.02840909090909 4.971590909090908  C 34.13825757575758 4.08143939393939  33.06818181818181 3.6363636363636376  31.818181818181817 4  L 8.181818181818182 4  C 6.9318181818181825 3.6363636363636376  5.861742424242426 4.08143939393939  4.971590909090909 4.971590909090908  C 4.0814393939393945 5.861742424242422  3.6363636363636367 6.931818181818183  4 8.181818181818183  L 4 31.818181818181817  C 3.6363636363636367 33.06818181818181  4.0814393939393945 34.13825757575757  4.971590909090909 35.02840909090909  C 5.861742424242426 35.91856060606061  6.9318181818181825 36.36363636363636  8.181818181818182 36  L 31.818181818181817 36  C 33.06818181818181 36.36363636363636  34.13825757575758 35.91856060606061  35.02840909090909 35.02840909090909  Z " stroke-width="0" stroke-dasharray="0" stroke="rgba(255, 255, 255, 0)" fill="none" transform="matrix(1 0 0 1 189 70 )" class="stroke" mask="url(#Clip98)" />
    <path d="M 37.59943181818181 2.4005681818181834  C 39.19981060606061 4.000946969696968  40 5.928030303030298  40 8.181818181818183  L 40 31.818181818181817  C 40 34.071969696969695  39.19981060606061 35.99905303030303  37.59943181818181 37.59943181818181  C 35.99905303030303 39.19981060606061  34.0719696969697 40  31.818181818181817 40  L 8.181818181818182 40  C 5.928030303030304 40  4.000946969696971 39.19981060606061  2.4005681818181817 37.59943181818181  C 0.8001893939393939 35.99905303030303  0 34.071969696969695  0 31.818181818181817  L 0 8.181818181818183  C 0 5.928030303030298  0.8001893939393939 4.000946969696968  2.4005681818181817 2.4005681818181834  C 4.000946969696971 0.80018939393939  5.928030303030304 0  8.181818181818182 0  L 31.818181818181817 0  C 34.0719696969697 0  35.99905303030303 0.80018939393939  37.59943181818181 2.4005681818181834  Z " stroke-width="0" stroke-dasharray="0" stroke="rgba(255, 255, 255, 0)" fill="none" transform="matrix(1 0 0 1 189 70 )" class="stroke" mask="url(#Clip98)" />
  </g>
</svg>