<?xml version="1.0" encoding="utf-8"?>
<svg version="1.1" xmlns:xlink="http://www.w3.org/1999/xlink" width="693px" height="547px" xmlns="http://www.w3.org/2000/svg">
  <defs>
    <pattern id="BGPattern" patternUnits="userSpaceOnUse" alignment="0 0" imageRepeat="None" />
    <mask fill="white" id="Clip3">
      <path d="M 0 542  L 0 5  C 0 2.1999999999999997  2.1999999999999997 0  5 0  L 688 0  C 690.8 0  693 2.1999999999999997  693 5  L 693 542  C 693 544.8  690.8 547  688 547  L 5 547  C 2.1999999999999997 547  0 544.8  0 542  Z " fill-rule="evenodd" />
    </mask>
  </defs>
  <g transform="matrix(1 0 0 1 -956 -78 )">
    <path d="M 0 542  L 0 5  C 0 2.1999999999999997  2.1999999999999997 0  5 0  L 688 0  C 690.8 0  693 2.1999999999999997  693 5  L 693 542  C 693 544.8  690.8 547  688 547  L 5 547  C 2.1999999999999997 547  0 544.8  0 542  Z " fill-rule="nonzero" fill="rgba(255, 255, 255, 1)" stroke="none" transform="matrix(1 0 0 1 956 78 )" class="fill" />
    <path d="M 0 542  L 0 5  C 0 2.1999999999999997  2.1999999999999997 0  5 0  L 688 0  C 690.8 0  693 2.1999999999999997  693 5  L 693 542  C 693 544.8  690.8 547  688 547  L 5 547  C 2.1999999999999997 547  0 544.8  0 542  Z " stroke-width="2" stroke-dasharray="9,4" stroke="rgba(236, 128, 141, 1)" fill="none" transform="matrix(1 0 0 1 956 78 )" class="stroke" mask="url(#Clip3)" />
  </g>
</svg>