<?xml version="1.0" encoding="utf-8"?>
<svg version="1.1" xmlns:xlink="http://www.w3.org/1999/xlink" width="16px" height="16px" xmlns="http://www.w3.org/2000/svg">
  <defs>
    <pattern id="BGPattern" patternUnits="userSpaceOnUse" alignment="0 0" imageRepeat="None" />
    <mask fill="white" id="Clip40">
      <path d="M 11.53125 9.666666666666668  C 11.53125 9.756944444444443  11.496527777777779 9.836805555555554  11.427083333333334 9.90625  L 9.90625 11.427083333333332  C 9.836805555555555 11.496527777777775  9.756944444444445 11.53125  9.666666666666666 11.53125  C 9.576388888888891 11.53125  9.496527777777779 11.496527777777775  9.427083333333334 11.427083333333332  L 8 10  L 6.572916666666667 11.427083333333332  C 6.503472222222222 11.496527777777775  6.423611111111112 11.53125  6.333333333333333 11.53125  C 6.243055555555556 11.53125  6.1631944444444455 11.496527777777775  6.09375 11.427083333333332  L 4.572916666666667 9.90625  C 4.503472222222222 9.836805555555554  4.468750000000001 9.756944444444443  4.46875 9.666666666666668  C 4.468750000000001 9.57638888888889  4.503472222222222 9.496527777777779  4.572916666666667 9.427083333333332  L 6 8  L 4.572916666666667 6.572916666666666  C 4.503472222222222 6.503472222222221  4.468750000000001 6.423611111111111  4.46875 6.333333333333334  C 4.468750000000001 6.243055555555555  4.503472222222222 6.163194444444443  4.572916666666667 6.09375  L 6.09375 4.572916666666666  C 6.1631944444444455 4.503472222222221  6.243055555555556 4.46875  6.333333333333333 4.46875  C 6.423611111111112 4.46875  6.503472222222222 4.503472222222221  6.572916666666667 4.572916666666666  L 8 6  L 9.427083333333334 4.572916666666666  C 9.496527777777779 4.503472222222221  9.576388888888891 4.46875  9.666666666666666 4.46875  C 9.756944444444445 4.46875  9.836805555555555 4.503472222222221  9.90625 4.572916666666666  L 11.427083333333334 6.09375  C 11.496527777777779 6.163194444444443  11.53125 6.243055555555555  11.53125 6.333333333333334  C 11.53125 6.423611111111111  11.496527777777779 6.503472222222221  11.427083333333334 6.572916666666666  L 10 8  L 11.427083333333334 9.427083333333332  C 11.496527777777779 9.496527777777779  11.53125 9.57638888888889  11.53125 9.666666666666668  Z M 12.90625 10.84375  C 13.413194444444445 9.975694444444443  13.666666666666666 9.027777777777779  13.666666666666666 8  C 13.666666666666666 6.972222222222221  13.413194444444445 6.024305555555555  12.90625 5.15625  C 12.399305555555557 4.288194444444443  11.711805555555557 3.600694444444443  10.84375 3.09375  C 9.975694444444445 2.5868055555555554  9.027777777777779 2.333333333333334  8 2.333333333333334  C 6.972222222222222 2.333333333333334  6.024305555555556 2.5868055555555554  5.15625 3.09375  C 4.288194444444445 3.600694444444443  3.6006944444444446 4.288194444444443  3.09375 5.15625  C 2.586805555555556 6.024305555555555  2.3333333333333335 6.972222222222221  2.3333333333333335 8  C 2.3333333333333335 9.027777777777779  2.586805555555556 9.975694444444443  3.09375 10.84375  C 3.6006944444444446 11.711805555555554  4.288194444444445 12.399305555555555  5.15625 12.90625  C 6.024305555555556 13.413194444444445  6.972222222222222 13.666666666666666  8 13.666666666666666  C 9.027777777777779 13.666666666666666  9.975694444444445 13.413194444444445  10.84375 12.90625  C 11.711805555555557 12.399305555555555  12.399305555555557 11.711805555555554  12.90625 10.84375  Z M 14.927083333333334 3.984375  C 15.642361111111109 5.210069444444443  16 6.548611111111109  16 8  C 16 9.45138888888889  15.642361111111109 10.789930555555554  14.927083333333334 12.015625  C 14.211805555555557 13.241319444444445  13.241319444444445 14.211805555555555  12.015625 14.927083333333334  C 10.789930555555557 15.642361111111112  9.45138888888889 16  8 16  C 6.548611111111112 16  5.210069444444445 15.642361111111112  3.984375 14.927083333333334  C 2.758680555555556 14.211805555555555  1.7881944444444446 13.241319444444445  1.0729166666666667 12.015625  C 0.35763888888888884 10.789930555555554  0 9.45138888888889  0 8  C 0 6.548611111111109  0.35763888888888884 5.210069444444443  1.0729166666666667 3.984375  C 1.7881944444444446 2.7586805555555554  2.758680555555556 1.7881944444444429  3.984375 1.072916666666666  C 5.210069444444445 0.3576388888888875  6.548611111111112 0  8 0  C 9.45138888888889 0  10.789930555555557 0.3576388888888875  12.015625 1.072916666666666  C 13.241319444444445 1.7881944444444429  14.211805555555557 2.7586805555555554  14.927083333333334 3.984375  Z " fill-rule="evenodd" />
    </mask>
  </defs>
  <g transform="matrix(1 0 0 1 -380 -150 )">
    <path d="M 11.53125 9.666666666666668  C 11.53125 9.756944444444443  11.496527777777779 9.836805555555554  11.427083333333334 9.90625  L 9.90625 11.427083333333332  C 9.836805555555555 11.496527777777775  9.756944444444445 11.53125  9.666666666666666 11.53125  C 9.576388888888891 11.53125  9.496527777777779 11.496527777777775  9.427083333333334 11.427083333333332  L 8 10  L 6.572916666666667 11.427083333333332  C 6.503472222222222 11.496527777777775  6.423611111111112 11.53125  6.333333333333333 11.53125  C 6.243055555555556 11.53125  6.1631944444444455 11.496527777777775  6.09375 11.427083333333332  L 4.572916666666667 9.90625  C 4.503472222222222 9.836805555555554  4.468750000000001 9.756944444444443  4.46875 9.666666666666668  C 4.468750000000001 9.57638888888889  4.503472222222222 9.496527777777779  4.572916666666667 9.427083333333332  L 6 8  L 4.572916666666667 6.572916666666666  C 4.503472222222222 6.503472222222221  4.468750000000001 6.423611111111111  4.46875 6.333333333333334  C 4.468750000000001 6.243055555555555  4.503472222222222 6.163194444444443  4.572916666666667 6.09375  L 6.09375 4.572916666666666  C 6.1631944444444455 4.503472222222221  6.243055555555556 4.46875  6.333333333333333 4.46875  C 6.423611111111112 4.46875  6.503472222222222 4.503472222222221  6.572916666666667 4.572916666666666  L 8 6  L 9.427083333333334 4.572916666666666  C 9.496527777777779 4.503472222222221  9.576388888888891 4.46875  9.666666666666666 4.46875  C 9.756944444444445 4.46875  9.836805555555555 4.503472222222221  9.90625 4.572916666666666  L 11.427083333333334 6.09375  C 11.496527777777779 6.163194444444443  11.53125 6.243055555555555  11.53125 6.333333333333334  C 11.53125 6.423611111111111  11.496527777777779 6.503472222222221  11.427083333333334 6.572916666666666  L 10 8  L 11.427083333333334 9.427083333333332  C 11.496527777777779 9.496527777777779  11.53125 9.57638888888889  11.53125 9.666666666666668  Z M 12.90625 10.84375  C 13.413194444444445 9.975694444444443  13.666666666666666 9.027777777777779  13.666666666666666 8  C 13.666666666666666 6.972222222222221  13.413194444444445 6.024305555555555  12.90625 5.15625  C 12.399305555555557 4.288194444444443  11.711805555555557 3.600694444444443  10.84375 3.09375  C 9.975694444444445 2.5868055555555554  9.027777777777779 2.333333333333334  8 2.333333333333334  C 6.972222222222222 2.333333333333334  6.024305555555556 2.5868055555555554  5.15625 3.09375  C 4.288194444444445 3.600694444444443  3.6006944444444446 4.288194444444443  3.09375 5.15625  C 2.586805555555556 6.024305555555555  2.3333333333333335 6.972222222222221  2.3333333333333335 8  C 2.3333333333333335 9.027777777777779  2.586805555555556 9.975694444444443  3.09375 10.84375  C 3.6006944444444446 11.711805555555554  4.288194444444445 12.399305555555555  5.15625 12.90625  C 6.024305555555556 13.413194444444445  6.972222222222222 13.666666666666666  8 13.666666666666666  C 9.027777777777779 13.666666666666666  9.975694444444445 13.413194444444445  10.84375 12.90625  C 11.711805555555557 12.399305555555555  12.399305555555557 11.711805555555554  12.90625 10.84375  Z M 14.927083333333334 3.984375  C 15.642361111111109 5.210069444444443  16 6.548611111111109  16 8  C 16 9.45138888888889  15.642361111111109 10.789930555555554  14.927083333333334 12.015625  C 14.211805555555557 13.241319444444445  13.241319444444445 14.211805555555555  12.015625 14.927083333333334  C 10.789930555555557 15.642361111111112  9.45138888888889 16  8 16  C 6.548611111111112 16  5.210069444444445 15.642361111111112  3.984375 14.927083333333334  C 2.758680555555556 14.211805555555555  1.7881944444444446 13.241319444444445  1.0729166666666667 12.015625  C 0.35763888888888884 10.789930555555554  0 9.45138888888889  0 8  C 0 6.548611111111109  0.35763888888888884 5.210069444444443  1.0729166666666667 3.984375  C 1.7881944444444446 2.7586805555555554  2.758680555555556 1.7881944444444429  3.984375 1.072916666666666  C 5.210069444444445 0.3576388888888875  6.548611111111112 0  8 0  C 9.45138888888889 0  10.789930555555557 0.3576388888888875  12.015625 1.072916666666666  C 13.241319444444445 1.7881944444444429  14.211805555555557 2.7586805555555554  14.927083333333334 3.984375  Z " fill-rule="nonzero" fill="rgba(215, 215, 215, 1)" stroke="none" transform="matrix(1 0 0 1 380 150 )" class="fill" />
    <path d="M 11.53125 9.666666666666668  C 11.53125 9.756944444444443  11.496527777777779 9.836805555555554  11.427083333333334 9.90625  L 9.90625 11.427083333333332  C 9.836805555555555 11.496527777777775  9.756944444444445 11.53125  9.666666666666666 11.53125  C 9.576388888888891 11.53125  9.496527777777779 11.496527777777775  9.427083333333334 11.427083333333332  L 8 10  L 6.572916666666667 11.427083333333332  C 6.503472222222222 11.496527777777775  6.423611111111112 11.53125  6.333333333333333 11.53125  C 6.243055555555556 11.53125  6.1631944444444455 11.496527777777775  6.09375 11.427083333333332  L 4.572916666666667 9.90625  C 4.503472222222222 9.836805555555554  4.468750000000001 9.756944444444443  4.46875 9.666666666666668  C 4.468750000000001 9.57638888888889  4.503472222222222 9.496527777777779  4.572916666666667 9.427083333333332  L 6 8  L 4.572916666666667 6.572916666666666  C 4.503472222222222 6.503472222222221  4.468750000000001 6.423611111111111  4.46875 6.333333333333334  C 4.468750000000001 6.243055555555555  4.503472222222222 6.163194444444443  4.572916666666667 6.09375  L 6.09375 4.572916666666666  C 6.1631944444444455 4.503472222222221  6.243055555555556 4.46875  6.333333333333333 4.46875  C 6.423611111111112 4.46875  6.503472222222222 4.503472222222221  6.572916666666667 4.572916666666666  L 8 6  L 9.427083333333334 4.572916666666666  C 9.496527777777779 4.503472222222221  9.576388888888891 4.46875  9.666666666666666 4.46875  C 9.756944444444445 4.46875  9.836805555555555 4.503472222222221  9.90625 4.572916666666666  L 11.427083333333334 6.09375  C 11.496527777777779 6.163194444444443  11.53125 6.243055555555555  11.53125 6.333333333333334  C 11.53125 6.423611111111111  11.496527777777779 6.503472222222221  11.427083333333334 6.572916666666666  L 10 8  L 11.427083333333334 9.427083333333332  C 11.496527777777779 9.496527777777779  11.53125 9.57638888888889  11.53125 9.666666666666668  Z " stroke-width="0" stroke-dasharray="0" stroke="rgba(255, 255, 255, 0)" fill="none" transform="matrix(1 0 0 1 380 150 )" class="stroke" mask="url(#Clip40)" />
    <path d="M 12.90625 10.84375  C 13.413194444444445 9.975694444444443  13.666666666666666 9.027777777777779  13.666666666666666 8  C 13.666666666666666 6.972222222222221  13.413194444444445 6.024305555555555  12.90625 5.15625  C 12.399305555555557 4.288194444444443  11.711805555555557 3.600694444444443  10.84375 3.09375  C 9.975694444444445 2.5868055555555554  9.027777777777779 2.333333333333334  8 2.333333333333334  C 6.972222222222222 2.333333333333334  6.024305555555556 2.5868055555555554  5.15625 3.09375  C 4.288194444444445 3.600694444444443  3.6006944444444446 4.288194444444443  3.09375 5.15625  C 2.586805555555556 6.024305555555555  2.3333333333333335 6.972222222222221  2.3333333333333335 8  C 2.3333333333333335 9.027777777777779  2.586805555555556 9.975694444444443  3.09375 10.84375  C 3.6006944444444446 11.711805555555554  4.288194444444445 12.399305555555555  5.15625 12.90625  C 6.024305555555556 13.413194444444445  6.972222222222222 13.666666666666666  8 13.666666666666666  C 9.027777777777779 13.666666666666666  9.975694444444445 13.413194444444445  10.84375 12.90625  C 11.711805555555557 12.399305555555555  12.399305555555557 11.711805555555554  12.90625 10.84375  Z " stroke-width="0" stroke-dasharray="0" stroke="rgba(255, 255, 255, 0)" fill="none" transform="matrix(1 0 0 1 380 150 )" class="stroke" mask="url(#Clip40)" />
    <path d="M 14.927083333333334 3.984375  C 15.642361111111109 5.210069444444443  16 6.548611111111109  16 8  C 16 9.45138888888889  15.642361111111109 10.789930555555554  14.927083333333334 12.015625  C 14.211805555555557 13.241319444444445  13.241319444444445 14.211805555555555  12.015625 14.927083333333334  C 10.789930555555557 15.642361111111112  9.45138888888889 16  8 16  C 6.548611111111112 16  5.210069444444445 15.642361111111112  3.984375 14.927083333333334  C 2.758680555555556 14.211805555555555  1.7881944444444446 13.241319444444445  1.0729166666666667 12.015625  C 0.35763888888888884 10.789930555555554  0 9.45138888888889  0 8  C 0 6.548611111111109  0.35763888888888884 5.210069444444443  1.0729166666666667 3.984375  C 1.7881944444444446 2.7586805555555554  2.758680555555556 1.7881944444444429  3.984375 1.072916666666666  C 5.210069444444445 0.3576388888888875  6.548611111111112 0  8 0  C 9.45138888888889 0  10.789930555555557 0.3576388888888875  12.015625 1.072916666666666  C 13.241319444444445 1.7881944444444429  14.211805555555557 2.7586805555555554  14.927083333333334 3.984375  Z " stroke-width="0" stroke-dasharray="0" stroke="rgba(255, 255, 255, 0)" fill="none" transform="matrix(1 0 0 1 380 150 )" class="stroke" mask="url(#Clip40)" />
  </g>
</svg>