<?xml version="1.0" encoding="utf-8"?>
<svg version="1.1" xmlns:xlink="http://www.w3.org/1999/xlink" width="10px" height="10px" xmlns="http://www.w3.org/2000/svg">
  <defs>
    <pattern id="BGPattern" patternUnits="userSpaceOnUse" alignment="0 0" imageRepeat="None" />
    <mask fill="white" id="Clip113">
      <path d="M 9.762516046213094 4.133513149022252  C 9.920838682071034 4.308833445718139  10.000000000000002 4.51337379186334  10 4.747134187457855  C 10.000000000000002 4.985389975275343  9.920838682071034 5.187682625309058  9.762516046213094 5.354012137559002  L 5.58408215661104 9.750505731625084  C 5.417201540436457 9.916835243875028  5.222507488232777 10  5 10  C 4.7732135216089 10  4.580658964484382 9.916835243875028  4.422336328626445 9.750505731625084  L 0.24390243902439024 5.354012137559002  C 0.08130081300813011 5.192178017532029  0 4.989885367498315  0 4.747134187457855  C 0 4.508878399640368  0.08130081300813011 4.304338053495167  0.24390243902439024 4.133513149022252  L 0.7188703465982028 3.627781523937964  C 0.8857509627727858 3.461452011688019  1.0804450149764657 3.3782872555630483  1.3029525032092426 3.3782872555630483  C 1.5297389816003426 3.3782872555630483  1.7222935387248612 3.461452011688019  1.8806161745827985 3.627781523937964  L 3.7676508344030806 5.610249494268375  L 3.7676508344030806 0.8631153068105191  C 3.7676508344030806 0.6293549112160035  3.8489516474112113 0.4270622611822872  4.011553273427471 0.2562373567093734  C 4.174154899443732 0.08541245223645633  4.36670945656825 0  4.589216944801027 0  L 5.410783055198973 0  C 5.63329054343175 0  5.825845100556269 0.08541245223645633  5.98844672657253 0.2562373567093734  C 6.15104835258879 0.4270622611822872  6.2323491655969185 0.6293549112160035  6.2323491655969185 0.8631153068105191  L 6.2323491655969185 5.610249494268375  L 8.119383825417202 3.627781523937964  C 8.27770646127514 3.461452011688019  8.470261018399658 3.3782872555630483  8.697047496790757 3.3782872555630483  C 8.919554985023534 3.3782872555630483  9.114249037227214 3.461452011688019  9.281129653401797 3.627781523937964  L 9.762516046213094 4.133513149022252  Z " fill-rule="evenodd" />
    </mask>
  </defs>
  <g transform="matrix(1 0 0 1 -1259 -624 )">
    <path d="M 9.762516046213094 4.133513149022252  C 9.920838682071034 4.308833445718139  10.000000000000002 4.51337379186334  10 4.747134187457855  C 10.000000000000002 4.985389975275343  9.920838682071034 5.187682625309058  9.762516046213094 5.354012137559002  L 5.58408215661104 9.750505731625084  C 5.417201540436457 9.916835243875028  5.222507488232777 10  5 10  C 4.7732135216089 10  4.580658964484382 9.916835243875028  4.422336328626445 9.750505731625084  L 0.24390243902439024 5.354012137559002  C 0.08130081300813011 5.192178017532029  0 4.989885367498315  0 4.747134187457855  C 0 4.508878399640368  0.08130081300813011 4.304338053495167  0.24390243902439024 4.133513149022252  L 0.7188703465982028 3.627781523937964  C 0.8857509627727858 3.461452011688019  1.0804450149764657 3.3782872555630483  1.3029525032092426 3.3782872555630483  C 1.5297389816003426 3.3782872555630483  1.7222935387248612 3.461452011688019  1.8806161745827985 3.627781523937964  L 3.7676508344030806 5.610249494268375  L 3.7676508344030806 0.8631153068105191  C 3.7676508344030806 0.6293549112160035  3.8489516474112113 0.4270622611822872  4.011553273427471 0.2562373567093734  C 4.174154899443732 0.08541245223645633  4.36670945656825 0  4.589216944801027 0  L 5.410783055198973 0  C 5.63329054343175 0  5.825845100556269 0.08541245223645633  5.98844672657253 0.2562373567093734  C 6.15104835258879 0.4270622611822872  6.2323491655969185 0.6293549112160035  6.2323491655969185 0.8631153068105191  L 6.2323491655969185 5.610249494268375  L 8.119383825417202 3.627781523937964  C 8.27770646127514 3.461452011688019  8.470261018399658 3.3782872555630483  8.697047496790757 3.3782872555630483  C 8.919554985023534 3.3782872555630483  9.114249037227214 3.461452011688019  9.281129653401797 3.627781523937964  L 9.762516046213094 4.133513149022252  Z " fill-rule="nonzero" fill="rgba(217, 0, 27, 1)" stroke="none" transform="matrix(1 0 0 1 1259 624 )" class="fill" />
    <path d="M 9.762516046213094 4.133513149022252  C 9.920838682071034 4.308833445718139  10.000000000000002 4.51337379186334  10 4.747134187457855  C 10.000000000000002 4.985389975275343  9.920838682071034 5.187682625309058  9.762516046213094 5.354012137559002  L 5.58408215661104 9.750505731625084  C 5.417201540436457 9.916835243875028  5.222507488232777 10  5 10  C 4.7732135216089 10  4.580658964484382 9.916835243875028  4.422336328626445 9.750505731625084  L 0.24390243902439024 5.354012137559002  C 0.08130081300813011 5.192178017532029  0 4.989885367498315  0 4.747134187457855  C 0 4.508878399640368  0.08130081300813011 4.304338053495167  0.24390243902439024 4.133513149022252  L 0.7188703465982028 3.627781523937964  C 0.8857509627727858 3.461452011688019  1.0804450149764657 3.3782872555630483  1.3029525032092426 3.3782872555630483  C 1.5297389816003426 3.3782872555630483  1.7222935387248612 3.461452011688019  1.8806161745827985 3.627781523937964  L 3.7676508344030806 5.610249494268375  L 3.7676508344030806 0.8631153068105191  C 3.7676508344030806 0.6293549112160035  3.8489516474112113 0.4270622611822872  4.011553273427471 0.2562373567093734  C 4.174154899443732 0.08541245223645633  4.36670945656825 0  4.589216944801027 0  L 5.410783055198973 0  C 5.63329054343175 0  5.825845100556269 0.08541245223645633  5.98844672657253 0.2562373567093734  C 6.15104835258879 0.4270622611822872  6.2323491655969185 0.6293549112160035  6.2323491655969185 0.8631153068105191  L 6.2323491655969185 5.610249494268375  L 8.119383825417202 3.627781523937964  C 8.27770646127514 3.461452011688019  8.470261018399658 3.3782872555630483  8.697047496790757 3.3782872555630483  C 8.919554985023534 3.3782872555630483  9.114249037227214 3.461452011688019  9.281129653401797 3.627781523937964  L 9.762516046213094 4.133513149022252  Z " stroke-width="0" stroke-dasharray="0" stroke="rgba(255, 255, 255, 0)" fill="none" transform="matrix(1 0 0 1 1259 624 )" class="stroke" mask="url(#Clip113)" />
  </g>
</svg>